<?xml version="1.0" standalone="no"?>
<!DOCTYPE svg PUBLIC "-//W3C//DTD SVG 1.1//EN" "http://www.w3.org/Graphics/SVG/1.1/DTD/svg11.dtd" >
<svg>
<metadata>
Created by FontForge 20090914 at Sun Jul  3 17:13:22 2016
 By www-data
</metadata>
<defs>
<font id="KGMissKindyChunky" horiz-adv-x="675" >
  <font-face 
    font-family="KG Miss Kindy Chunky"
    font-weight="400"
    font-stretch="normal"
    units-per-em="1024"
    panose-1="2 0 0 0 0 0 0 0 0 0"
    ascent="819"
    descent="-205"
    x-height="586.004"
    cap-height="853.001"
    bbox="-230.199 -269.999 1126 1100.41"
    underline-thickness="0"
    underline-position="0"
    unicode-range="U+000D-U+2212"
  />
<missing-glyph horiz-adv-x="350" 
 />
    <glyph glyph-name=".notdef" horiz-adv-x="350" 
 />
    <glyph glyph-name=".null" horiz-adv-x="0" 
 />
    <glyph glyph-name=".null" horiz-adv-x="0" 
 />
    <glyph glyph-name="nonmarkingreturn" unicode="&#xd;" horiz-adv-x="350" 
 />
    <glyph glyph-name="space" unicode=" " horiz-adv-x="350" 
 />
    <glyph glyph-name="exclam" unicode="!" horiz-adv-x="201" 
d="M48 23c-7.33301 10 -10.0039 20.3301 -8.00391 30.9971s6.83301 20.334 14.5 29.001s17.167 15.834 28.5 21.501s22.666 8.5 33.999 8.5c10.667 0 20.834 -2.66699 30.501 -8s17.167 -13.666 22.5 -24.999c6 -12.667 8.16699 -24.334 6.5 -35.001s-5.66699 -20 -12 -28
s-14.666 -14.167 -24.999 -18.5s-21.166 -6.5 -32.499 -6.5s-22.166 2.33301 -32.499 7s-19.166 12.334 -26.499 23.001v1zM165.996 186.997c0 -18 -5.33105 -30.833 -15.998 -38.5s-23.334 -11.5 -38.001 -11.5s-28.834 4.16699 -42.501 12.5s-21.167 18.833 -22.5 31.5
c-1.33301 16.667 -2.33301 42.167 -3 76.5s-1.66699 73.166 -3 116.499l-2 114.5c-0.666992 39.667 -1.5 78 -2.5 115s-2.5 71.5 -4.5 103.5s-4.33301 58.667 -7 80c-1.33301 10 -0.166016 19 3.50098 27s8.66699 14.833 15 20.5s13.666 9.83398 21.999 12.501
s16.5 4 24.5 4c14.667 0 28 -4 40 -12s18.667 -20.667 20 -38z" />
    <glyph glyph-name="quotedbl" unicode="&#x22;" horiz-adv-x="451" 
d="M191 516c-5.33301 -12 -12.333 -20.3311 -21 -24.998s-18.334 -7 -29.001 -7c-11.333 0 -22.333 2.83301 -33 8.5s-19.334 13 -26.001 22s-10.5 19 -11.5 30s2.83301 22.167 11.5 33.5c6.66699 9.33301 12.834 19.666 18.501 30.999s8.5 23.666 8.5 36.999
c0 10.667 -2.5 22 -7.5 34s-13.833 24.667 -26.5 38c-7.33301 8 -10.666 17 -9.99902 27s4 19.167 10 27.5s14 15.5 24 21.5s20.667 9 32 9c18 0 32.667 -7.33301 44 -22c32 -40 48 -85 48 -135c0 -38.667 -10.667 -82 -32 -130zM361 535.002
c-5.33301 -12 -12.333 -20.3311 -21 -24.998s-18.334 -7 -29.001 -7c-11.333 0 -22.333 2.83301 -33 8.5s-19.334 13 -26.001 22s-10.5 19 -11.5 30s2.83301 22.167 11.5 33.5c6.66699 9.33301 12.834 19.666 18.501 30.999s8.5 23.666 8.5 36.999c0 10.667 -2.5 22 -7.5 34
s-13.833 24.667 -26.5 38c-7.33301 8 -10.666 17 -9.99902 27s4 19.167 10 27.5s14 15.5 24 21.5s20.667 9 32 9c18 0 32.667 -7.33301 44 -22c32 -40 48 -85 48 -135c0 -38.667 -10.667 -82 -32 -130z" />
    <glyph glyph-name="numbersign" unicode="#" horiz-adv-x="822" 
d="M420 273l-48.501 -5.49707c-15 -1.66699 -32.167 -4.16699 -51.5 -7.5c-2.66699 -23.333 -4.83398 -44.333 -6.50098 -63s-2.83398 -35 -3.50098 -49c-0.666992 -18 -7.33398 -31.333 -20.001 -40s-26.667 -13 -42 -13c-17.333 0 -32.666 5.16699 -45.999 15.5
s-19.333 25.166 -18 44.499l11 88l-101 -16c-18.667 -1.33301 -32.5 4.16699 -41.5 16.5s-13.5 26.166 -13.5 41.499c0 13.333 3.33301 26 10 38s15.667 19.333 27 22c12.667 2.66699 30 5.33398 52 8.00098s50 6.66699 84 12c0.666992 9.33301 1.66699 18 3 26
s2.5 15.667 3.5 23s2 15.166 3 23.499l3.5 28.5l-123 -18c-19.333 -2 -33.5 3.16699 -42.5 15.5s-13.5 26.166 -13.5 41.499c0 13.333 3.66699 26.166 11 38.499s16.666 19.833 27.999 22.5l59.5 9l96.5 14l24 178c2 15.333 7.5 26 16.5 32s19.833 9 32.5 9
c8 0 16.333 -1.5 25 -4.5s16.334 -7.16699 23.001 -12.5s12 -11.333 16 -18s5.66699 -13.334 5 -20.001c-1.33301 -14.667 -3.33301 -33.167 -6 -55.5s-6.66699 -52.833 -12 -91.5l14.5 2.5c5.66699 1 10.834 1.83301 15.501 2.5l71 10l10 74l10 73
c2 15.333 7.5 26.166 16.5 32.499s19.833 9.5 32.5 9.5c8 0 16.333 -1.5 25 -4.5s16.167 -7.16699 22.5 -12.5s11.5 -11.333 15.5 -18s5.66699 -13.334 5 -20.001c-0.666992 -6 -1.16699 -12.5 -1.5 -19.5s-1 -15 -2 -24s-2.33301 -19.167 -4 -30.5s-3.5 -25 -5.5 -41l53 10
c17.333 3.33301 32 6.33301 44 9c10.667 2.66699 20.334 2.33398 29.001 -0.999023s16 -8.16602 22 -14.499s10.667 -14.166 14 -23.499s5 -18.666 5 -27.999c0 -12.667 -3.5 -24.5 -10.5 -35.5s-18.167 -18.167 -33.5 -21.5l-141 -20l-13 -99c26 4 48.667 8 68 12l52 11
c10.667 2.66699 20.5 2.33398 29.5 -0.999023s16.5 -8.33301 22.5 -15s10.667 -14.5 14 -23.5s5 -18.167 5 -27.5c0 -13.333 -3.5 -25.5 -10.5 -36.5s-18.167 -18.167 -33.5 -21.5l-162 -23c-3.33301 -28 -6 -54.333 -8 -79l-5 -62c-0.666992 -18 -7.5 -31.333 -20.5 -40
s-26.833 -13 -41.5 -13c-17.333 0 -32.666 5.16699 -45.999 15.5s-19.333 25.166 -18 44.499zM339.999 427.003l-5 -44.999c2.66699 0.666992 5.66699 1 9 1c18 2.66699 33.5 4.83398 46.5 6.50098s28.167 4.16699 45.5 7.5l7 48c2 14 4.33301 31.333 7 52
c-17.333 -2.66699 -34 -4.83398 -50 -6.50098s-33.667 -3.83398 -53 -6.50098z" />
    <glyph glyph-name="dollar" unicode="$" horiz-adv-x="628" 
d="M230 69c-19.333 6 -38.333 14.167 -57 24.5s-36.5 22.833 -53.5 37.5s-32.667 31.667 -47 51s-26.166 40.666 -35.499 63.999c-4 9.33301 -4.5 18.333 -1.5 27s8 16.5 15 23.5s15.333 12.5 25 16.5s19.167 6.33301 28.5 7s18 -0.833008 26 -4.5s13.667 -10.167 17 -19.5
c8 -22.667 19.167 -42.834 33.5 -60.501s31.166 -32.167 50.499 -43.5l2 196c-119.333 53.333 -179 124 -179 212c0 34.667 9.33301 69 28 103c15.333 28 37 50.333 65 67s58.333 27.667 91 33c0 4.66699 0.166992 9.16699 0.5 13.5s0.5 8.83301 0.5 13.5
c0 17.333 5.66699 29.833 17 37.5s24 11.5 38 11.5c15.333 0 29.833 -4.33301 43.5 -13s20.5 -20 20.5 -34v-32c22 -4 42.833 -10 62.5 -18s37.667 -18 54 -30s30.333 -25.5 42 -40.5s20.5 -31.5 26.5 -49.5c4.66699 -17.333 3.5 -31.833 -3.5 -43.5
s-16.167 -20.334 -27.5 -26.001s-22.833 -7.66699 -34.5 -6s-19.5 7.16699 -23.5 16.5c-7.33301 18.667 -19.833 35.334 -37.5 50.001s-37.167 26 -58.5 34c-0.666992 -30 -1.16699 -62 -1.5 -96s-1.16602 -69.667 -2.49902 -107
c0 -2.66699 -0.166992 -5.83398 -0.5 -9.50098s-0.5 -7.83398 -0.5 -12.501c24.667 -9.33301 50.667 -20.666 78 -33.999s52.166 -29 74.499 -47s40.333 -38.833 54 -62.5s19.5 -50.5 17.5 -80.5c-2 -29.333 -9.66699 -54.666 -23 -75.999s-30.5 -39.333 -51.5 -54
s-44.5 -26 -70.5 -34s-52.333 -13.333 -79 -16l2 -30c0 -9.33301 -2.16699 -17.666 -6.5 -24.999s-9.66602 -13.666 -15.999 -18.999s-13.333 -9.5 -21 -12.5s-15.5 -4.5 -23.5 -4.5c-15.333 0 -28.833 4 -40.5 12s-17.834 20.667 -18.501 38zM458 248
c-5.33301 24 -17.833 43.834 -37.5 59.501s-42.167 28.834 -67.5 39.501c-0.666992 -34 -1.16699 -65.167 -1.5 -93.5s-0.5 -56.833 -0.5 -85.5c14 1.33301 28 3.83301 42 7.5s26.167 8.66699 36.5 15s18.333 14.166 24 23.499s7.16699 20.666 4.5 33.999zM173 635.001
c-6.66699 -11.333 -10.0029 -23.667 -10.0029 -37c0 -19.333 7.33301 -36.5 22 -51.5s31.334 -27.833 50.001 -38.5c0.666992 32 0.833984 61.833 0.500977 89.5s-0.166016 58.834 0.500977 93.501c-26 -10.667 -47 -29.334 -63 -56.001z" />
    <glyph glyph-name="percent" unicode="%" horiz-adv-x="769" 
d="M135 481c-30 12 -52.167 32.832 -66.5 62.499s-21.5 62.5 -21.5 98.5c0 22 3 44.333 9 67s14.833 43.167 26.5 61.5s26 33.833 43 46.5s36.833 20 59.5 22c24 2.66699 46.5 0.833984 67.5 -5.49902s39.667 -16 56 -29s29.833 -29.333 40.5 -49s17 -41.5 19 -65.5
c2 -34.667 -3.16699 -67.334 -15.5 -98.001s-29.5 -56.167 -51.5 -76.5s-47.5 -34.166 -76.5 -41.499s-58.833 -5 -89.5 7zM228 734.999c-12 4 -22.834 3.49902 -32.501 -1.50098s-18 -12.5 -25 -22.5s-12.333 -21.667 -16 -35s-5.5 -26.333 -5.5 -39
c0 -13.333 2.33301 -25.333 7 -36s11.334 -17.667 20.001 -21c3.33301 -1.33301 6.83301 -2.33301 10.5 -3s7.5 -1 11.5 -1c10 0 19 2.83301 27 8.5s14.5 12.834 19.5 21.501s8.83301 18.5 11.5 29.5s4 22.167 4 33.5c0 15.333 -2.66699 29.333 -8 42s-13.333 20.667 -24 24
zM452.999 826.998c4 11.333 9.99707 19.333 17.9971 24s16.667 7 26 7c8.66699 0 17.334 -2 26.001 -6s16.5 -9.16699 23.5 -15.5s12.333 -13.833 16 -22.5s4.83398 -17.334 3.50098 -26.001c-2.66699 -15.333 -12 -44.666 -28 -87.999l-55 -151l-55 -153.5l-54.5 -155
l-45.5 -134c-13.333 -39.667 -22.666 -69.834 -27.999 -90.501c-4.66699 -13.333 -12.167 -23.5 -22.5 -30.5s-21.5 -10.5 -33.5 -10.5c-10 0 -19.667 1.66699 -29 5s-17.166 8.33301 -23.499 15s-10.833 14.334 -13.5 23.001s-2.33398 18.667 0.999023 30zM474.996 3.99805
c-30 11.333 -52.4971 32.167 -67.4971 62.5s-22.5 63.5 -22.5 99.5c0 22 2.66699 43.833 8 65.5s13.666 41.5 24.999 59.5s25.833 33.333 43.5 46s38.5 21.334 62.5 26.001c23.333 4 45.666 3.33301 66.999 -2s40.333 -14.5 57 -27.5s30.167 -29.667 40.5 -50
s16.166 -43.5 17.499 -69.5c2 -40 -3.33301 -75.5 -16 -106.5s-30 -56 -52 -75s-47.167 -31.333 -75.5 -37s-57.5 -2.83398 -87.5 8.49902zM566.999 258.999c-12 4 -23 3.49902 -33 -1.50098s-18.5 -12.5 -25.5 -22.5s-12.333 -21.667 -16 -35s-5.5 -26.333 -5.5 -39
c0 -13.333 2.33301 -25.333 7 -36s11.334 -17.667 20.001 -21c12.667 -4.66699 24.167 -5.5 34.5 -2.5s19.166 8.83301 26.499 17.5s13 19.334 17 32.001s6 26.667 6 42s-2.5 29.333 -7.5 42s-12.833 20.667 -23.5 24z" />
    <glyph glyph-name="ampersand" unicode="&#x26;" horiz-adv-x="715" 
d="M624 81c7.33301 -11.333 8.66992 -23.498 4.00293 -36.498s-12.334 -24 -23.001 -33s-22.834 -14.167 -36.501 -15.5s-25.5 3.66699 -35.5 15l-65 74c-38.667 -30.667 -78.5 -54.667 -119.5 -72s-81.5 -26 -121.5 -26c-28 0 -54.167 4.66699 -78.5 14
s-46.833 24.666 -67.5 45.999c-14.667 14.667 -26.167 32.334 -34.5 53.001s-12.5 44.334 -12.5 71.001c0 19.333 2.83301 40 8.5 62s14.834 44.667 27.501 68s28.834 47.166 48.501 71.499s43.5 48.5 71.5 72.5c-21.333 34.667 -37.5 70.334 -48.5 107.001
s-17.167 72.667 -18.5 108c-1.33301 27.333 1.66699 52.666 9 75.999s18.5 43.166 33.5 59.499s33.833 28.833 56.5 37.5s48.667 11.667 78 9c24.667 -2 45.667 -7.83301 63 -17.5s31.666 -21.834 42.999 -36.501s19.666 -31.667 24.999 -51s8 -39.333 8 -60
c0 -42 -8.33301 -84.5 -25 -127.5s-42 -83.167 -76 -120.5l66 -83c21.333 -26.667 44 -53.334 68 -80.001c15.333 18 28.666 39 39.999 63s22 49.667 32 77c6 17.333 15.167 30.333 27.5 39s25.166 13 38.499 13c7.33301 0 15 -1.66699 23 -5s14.5 -8.66602 19.5 -15.999
s7.83301 -17.5 8.5 -30.5s-2.66602 -28.833 -9.99902 -47.5c-8 -21.333 -15.833 -40 -23.5 -56s-15.5 -30.5 -23.5 -43.5l-24 -38l-26 -39.5l-10 -16zM160.004 121.002c6 -9.33301 14.333 -15.998 25 -19.998s22.667 -6 36 -6c14 0 29 2.16699 45 6.5
s31.833 10.166 47.5 17.499s30.834 16 45.501 26s27.667 20.667 39 32l-40.5 46.5l-41.5 50l-37.5 47c-11.667 15 -20.834 27.833 -27.501 38.5c-32.667 -23.333 -58.5 -51.166 -77.5 -83.499s-28.5 -64.5 -28.5 -96.5c0 -10.667 1.16699 -20.834 3.5 -30.501
s6.5 -18.834 12.5 -27.501h-1zM232.004 663.004c0 -21.333 3.83301 -44.499 11.5 -69.499s19.167 -51.167 34.5 -78.5c7.33301 7.33301 14.333 17 21 29s12.667 25.167 18 39.5s9.5 29.166 12.5 44.499s4.5 30.333 4.5 45c0 16 -3 30 -9 42s-15.333 19.667 -28 23
c-20.667 3.33301 -36.667 -2 -48 -16s-17 -33.667 -17 -59z" />
    <glyph glyph-name="quotesingle" unicode="'" horiz-adv-x="254" 
d="M165 480c-5.33301 -12 -12.333 -20.499 -21 -25.499s-18.334 -7.5 -29.001 -7.5c-11.333 0 -22.166 2.83301 -32.499 8.5s-18.833 13 -25.5 22s-10.5 19.167 -11.5 30.5s2.5 22.666 10.5 33.999c7.33301 9.33301 13.833 19.666 19.5 30.999s8.5 23.666 8.5 36.999
c0 22.667 -11.333 46.334 -34 71.001c-7.33301 8 -10.666 17 -9.99902 27s4 19.333 10 28s14 15.834 24 21.501s20.667 8.5 32 8.5c17.333 0 32 -7.33301 44 -22c32 -41.333 48 -86 48 -134c0 -20 -2.83301 -40.833 -8.5 -62.5s-13.834 -44.167 -24.501 -67.5z" />
    <glyph glyph-name="parenleft" unicode="(" horiz-adv-x="406" 
d="M304 -13c15.333 -2 26 -7.83594 32 -17.5029s9 -21.167 9 -34.5c0 -16 -4.66699 -30.667 -14 -44s-22.333 -19.333 -39 -18c-44.667 6 -83 19.5 -115 40.5s-58.5 46.833 -79.5 77.5s-37.5 65 -49.5 103s-20.5 77.5 -25.5 118.5s-7.16699 82.167 -6.5 123.5
s3 80.333 7 117c6.66699 50 17.834 99.333 33.501 148s34.834 94.834 57.501 138.501s48.5 84.334 77.5 122.001s60.5 70.5 94.5 98.5c13.333 10.667 26.666 13.5 39.999 8.5s24.166 -13.667 32.499 -26s13.166 -26 14.499 -41s-3.66699 -27.167 -15 -36.5
c-29.333 -24 -56 -52.5 -80 -85.5s-45.167 -68.333 -63.5 -106s-33.5 -76.5 -45.5 -116.5s-20.667 -78.667 -26 -116c-2.66699 -15.333 -4.66699 -32 -6 -50s-2 -37.333 -2 -58c0 -36.667 2.66699 -74.667 8 -114s14.333 -75.666 27 -108.999s29.834 -61.5 51.501 -84.5
s49.167 -35.833 82.5 -38.5z" />
    <glyph glyph-name="parenright" unicode=")" horiz-adv-x="422" 
d="M84 -13c33.333 2.66699 60.832 15.499 82.499 38.499s39 51.167 52 84.5s22 69.666 27 108.999s7.5 77.333 7.5 114c0 20.667 -0.666992 40 -2 58s-3.33301 34.667 -6 50c-5.33301 37.333 -14.333 76.333 -27 117s-28.167 80 -46.5 118s-39.5 73.5 -63.5 106.5
s-50 60.5 -78 82.5c-12 9.33301 -17.667 21.5 -17 36.5s5.33398 28.5 14.001 40.5s19.667 20.5 33 25.5s27 2.5 41 -7.5c36 -27.333 68.833 -59.666 98.5 -96.999s55.5 -78.166 77.5 -122.499s40.333 -90.833 55 -139.5s25.667 -98 33 -148
c4.66699 -35.333 7.5 -73.5 8.5 -114.5s-1 -82 -6 -123s-13.5 -80.833 -25.5 -119.5s-28.833 -73.667 -50.5 -105s-48.5 -57.5 -80.5 -78.5s-70.333 -34.167 -115 -39.5c-16.667 -1.33301 -29.667 4.66699 -39 18s-14 28 -14 44c0 13.333 3 24.833 9 34.5
s16.667 15.5 32 17.5z" />
    <glyph glyph-name="asterisk" unicode="*" horiz-adv-x="398" 
d="M313 363c-8.66699 -9.33301 -20.665 -13.8281 -35.998 -13.4951s-32.666 7.16602 -51.999 20.499c-13.333 -23.333 -28.166 -37.333 -44.499 -42s-30.166 -2 -41.499 8c-9.33301 9.33301 -14.833 21.666 -16.5 36.999s-0.833984 29.666 2.49902 42.999
c-23.333 4 -40.333 11.667 -51 23s-15.334 23.666 -14.001 36.999c1.33301 11.333 7.66602 21.833 18.999 31.5s27 16.167 47 19.5c0 28.667 4.16699 50.5 12.5 65.5s19.166 23.5 32.499 25.5c12 1.33301 24.5 -3.33398 37.5 -14.001s24.5 -26 34.5 -46
c6.66699 2.66699 14.5 5.33398 23.5 8.00098s17.833 4 26.5 4s17 -1.66699 25 -5s14.333 -9.33301 19 -18c5.33301 -10.667 5.16602 -23.834 -0.500977 -39.501s-18.167 -30.834 -37.5 -45.501c14.667 -22 22.667 -41.667 24 -59s-2 -30.666 -10 -39.999z" />
    <glyph glyph-name="plus" unicode="+" horiz-adv-x="582" 
d="M341 335c-0.666992 -11.333 -1.00098 -22.3369 -1.00098 -33.0039v-33v-25.5c0 -8.33301 0.333008 -16.833 1 -25.5c0.666992 -19.333 -5.66602 -34 -18.999 -44s-28.333 -15 -45 -15c-15.333 0 -29.666 4.66699 -42.999 14s-20 23 -20 41l7 121h-116
c-17.333 -0.666992 -30 4.33301 -38 15s-12 23.334 -12 38.001c0 15.333 4.5 29.833 13.5 43.5s20.167 21.167 33.5 22.5c13.333 0.666992 28.833 1 46.5 1h55.5h23l8 133c1.33301 15.333 7 26.833 17 34.5s21.333 11.5 34 11.5c8 0 16.167 -1.33301 24.5 -4
s15.666 -6.5 21.999 -11.5s11.5 -10.667 15.5 -17s6 -12.833 6 -19.5l-4 -82l-3 -44c19.333 0.666992 38.833 1.5 58.5 2.5s40.167 2.16699 61.5 3.5s37.166 -4.66699 47.499 -18s15.5 -28.666 15.5 -45.999c0 -15.333 -4.16699 -29.166 -12.5 -41.499
s-21.166 -19.166 -38.499 -20.499z" />
    <glyph glyph-name="comma" unicode="," horiz-adv-x="233" 
d="M165 -121c-5.33301 -12 -12.502 -20.5 -21.502 -25.5s-19.167 -7.5 -30.5 -7.5s-22.166 2.83301 -32.499 8.5s-18.833 13 -25.5 22s-10.5 19.167 -11.5 30.5s2.5 22.666 10.5 33.999c7.33301 9.33301 13.833 19.666 19.5 30.999s8.5 23.666 8.5 36.999
c0 10.667 -2.66699 21.834 -8 33.501s-14 24.167 -26 37.5c-7.33301 8 -10.666 17 -9.99902 27s4 19.333 10 28s14 15.834 24 21.501s20.667 8.5 32 8.5c17.333 0 32 -7.33301 44 -22c32 -41.333 48 -86 48 -134c0 -41.333 -10.333 -84.666 -31 -129.999z" />
    <glyph glyph-name="hyphen" unicode="-" horiz-adv-x="592" 
d="M116 324l1 -0.000976562c-18 -0.666992 -30.833 4.33301 -38.5 15s-11.5 23 -11.5 37c0 8 1 15.833 3 23.5s5 14.834 9 21.501s8.83301 11.834 14.5 15.501s12.5 5.5 20.5 5.5c15.333 -0.666992 32.5 -0.666992 51.5 0s39.167 1 60.5 1c38 0 78.667 0.333008 122 1
s87 3 131 7c21.333 1.33301 37.166 -4.83398 47.499 -18.501s15.5 -29.167 15.5 -46.5c0 -15.333 -4.16699 -29 -12.5 -41s-21.166 -18.667 -38.499 -20z" />
    <glyph glyph-name="period" unicode="." horiz-adv-x="215" 
d="M167 86c6.66699 -10 8.99902 -20.4971 6.99902 -31.4971s-6.66699 -20.833 -14 -29.5s-16.666 -15.834 -27.999 -21.501s-22.666 -8.5 -33.999 -8.5c-10.667 0 -20.834 2.66699 -30.501 8s-17.5 13.666 -23.5 24.999c-6 12.667 -8.16699 24.5 -6.5 35.5
s5.83398 20.5 12.501 28.5s15.167 14.167 25.5 18.5s21.166 6.5 32.499 6.5c10.667 0 21.167 -2.33301 31.5 -7s19.5 -12.334 27.5 -23.001v-1z" />
    <glyph glyph-name="slash" unicode="/" horiz-adv-x="438" 
d="M295 827c4 11.333 9.99707 19.332 17.9971 23.999s16.667 7 26 7c8.66699 0 17.667 -2.16699 27 -6.5s17.5 -10 24.5 -17s12.333 -14.667 16 -23s4.16699 -16.166 1.5 -23.499s-6.5 -18.5 -11.5 -33.5l-18.5 -54l-24.5 -70l-28.5 -81.5l-55 -153.5l-54.5 -155l-45.5 -134
c-13.333 -39.667 -22.666 -69.834 -27.999 -90.501c-4 -13.333 -11.333 -23.5 -22 -30.5s-22 -10.5 -34 -10.5c-9.33301 0 -18.666 1.66699 -27.999 5s-17.166 8.33301 -23.499 15s-11 14.334 -14 23.001s-2.83301 18.667 0.5 30z" />
    <glyph glyph-name="zero" unicode="0" horiz-adv-x="676" 
d="M287 -1c-50 4 -91.8311 19.498 -125.498 46.498s-60.667 60.5 -81 100.5s-34.5 84.167 -42.5 132.5s-11 96.166 -9 143.499c1.33301 32.667 5 66.334 11 101.001s14.833 68.334 26.5 101.001s26.334 63.5 44.001 92.5s38.667 54 63 75s52.166 37 83.499 48
s67 15.5 107 13.5c56 -3.33301 101.5 -17.833 136.5 -43.5s62.5 -58 82.5 -97s33.667 -82.5 41 -130.5s11 -96.333 11 -145c-2 -56 -10.667 -111.167 -26 -165.5s-37.333 -102.666 -66 -144.999s-64.334 -75.5 -107.001 -99.5s-92.334 -33.333 -149.001 -28z
M296.002 114.998c36.667 -4.66699 68.834 3.83398 96.501 25.501s50.834 50.167 69.501 85.5s32.834 74.5 42.501 117.5s14.5 83.833 14.5 122.5c0 24.667 -2.5 52.167 -7.5 82.5s-13.833 58.666 -26.5 84.999s-29.834 48.5 -51.501 66.5s-49.167 27.667 -82.5 29
c-26 0.666992 -48.833 -4.5 -68.5 -15.5s-36.834 -25.5 -51.501 -43.5s-26.834 -38.333 -36.501 -61s-17.667 -45.5 -24 -68.5s-11 -45.167 -14 -66.5s-5.16699 -39.666 -6.5 -54.999c-2.66699 -25.333 -2.16699 -54.833 1.5 -88.5s11 -65.834 22 -96.501
s26.5 -57.167 46.5 -79.5s45.333 -35.5 76 -39.5z" />
    <glyph glyph-name="one" unicode="1" horiz-adv-x="205" 
d="M41 810c0 17.333 5.66895 29.833 17.002 37.5s24 11.5 38 11.5c15.333 0 29.833 -4.33301 43.5 -13s20.5 -20 20.5 -34v-37c0 -22.667 -0.166992 -51.5 -0.5 -86.5s-0.833008 -73.167 -1.5 -114.5c-0.666992 -29.333 -1.16699 -59.833 -1.5 -91.5l-1 -94.5l-1 -92.5
c-0.333008 -30.333 -0.5 -59.166 -0.5 -86.499c0 -33.333 0.166992 -63 0.5 -89s1.16602 -47.333 2.49902 -64c-0.666992 -18 -8 -32.667 -22 -44s-29 -17 -45 -17c-15.333 0 -28.833 4.16699 -40.5 12.5s-17.834 21.166 -18.501 38.499z" />
    <glyph glyph-name="two" unicode="2" horiz-adv-x="656" 
d="M79 1c-12.667 0 -23.1709 2.83594 -31.5039 8.50293s-14.166 13 -17.499 22s-3.83301 19.333 -1.5 31s7.83301 23.167 16.5 34.5l77 96.5l79.5 98l76.5 100.5c24.667 34 47.334 68.667 68.001 104c5.33301 9.33301 12 22 20 38s15.5 33.167 22.5 51.5
s12.667 36.833 17 55.5s5.83301 35.5 4.5 50.5s-6.33301 27.167 -15 36.5s-22.667 14 -42 14c-8 0 -18.667 -1.5 -32 -4.5s-28.833 -10.667 -46.5 -23s-37.167 -31.333 -58.5 -57s-44 -61.167 -68 -106.5c-7.33301 -13.333 -17.833 -21.333 -31.5 -24
s-26.667 -1.33398 -39 3.99902s-21.833 13.666 -28.5 24.999s-6.66699 24.666 0 39.999c18 42 39 79 63 111s49.333 58.833 76 80.5s54.334 37.834 83.001 48.501s57 15.667 85 15c44.667 -1.33301 82.5 -11.166 113.5 -29.499s50.833 -46.5 59.5 -84.5
c7.33301 -31.333 7 -64.5 -1 -99.5s-20.167 -70 -36.5 -105s-34.833 -68.833 -55.5 -101.5l-58 -88c-25.333 -36.667 -52.333 -73.167 -81 -109.5l-97 -122.5c60.667 1.33301 121.334 1.33301 182.001 0s123.334 -2.33301 188.001 -3c14.667 0 26 -5.33301 34 -16
s12 -22.334 12 -35.001s-4.5 -24.334 -13.5 -35.001s-22.833 -16.334 -41.5 -17.001c-79.333 -3.33301 -158.833 -4.16602 -238.5 -2.49902s-160.834 1.16699 -243.501 -1.5z" />
    <glyph glyph-name="three" unicode="3" horiz-adv-x="619" 
d="M271 -3c-6 0 -18.834 1.50195 -38.501 4.50195s-42 9.16699 -67 18.5s-50.5 22.833 -76.5 40.5s-48.333 41.167 -67 70.5c-7.33301 11.333 -9.16602 23.833 -5.49902 37.5s10.167 25 19.5 34s20.166 14.5 32.499 16.5s23.5 -3 33.5 -15
c8.66699 -10 19.167 -20.833 31.5 -32.5s25.833 -22.5 40.5 -32.5s29.834 -18.333 45.501 -25s31.5 -10 47.5 -10c26.667 -0.666992 51.834 2.16602 75.501 8.49902s44.167 16.333 61.5 30s31 31 41 52s15 46.167 15 75.5c0 22.667 -3.16699 41.667 -9.5 57
s-14.833 27.666 -25.5 36.999s-23 15.833 -37 19.5s-28.333 5.5 -43 5.5c-21.333 0 -42.666 -2.66699 -63.999 -8s-40.333 -11 -57 -17c-11.333 -4 -21.333 -5 -30 -3s-15.834 6 -21.501 12s-10 13.333 -13 22s-4.5 17.334 -4.5 26.001c0 10.667 2 20.667 6 30
s10.667 15.666 20 18.999h-1c16 5.33301 32.667 12.833 50 22.5s34.166 20.834 50.499 33.501s31.666 26.334 45.999 41.001s26.166 30 35.499 46c13.333 22.667 20 43 20 61s-6.33301 32.833 -19 44.5s-28.667 17.5 -48 17.5c-9.33301 0 -20 -1.66699 -32 -5
s-23.667 -8 -35 -14c-21.333 -12.667 -41.166 -26.167 -59.499 -40.5s-32.166 -29.5 -41.499 -45.5c-7.33301 -12 -17 -17.5 -29 -16.5s-23 5.66699 -33 14s-17.333 19.166 -22 32.499s-3.33398 26 3.99902 38c6.66699 10.667 14.834 21.667 24.501 33s19.834 22 30.501 32
s21.5 19 32.5 27s21.5 14.667 31.5 20c23.333 12 46 21.333 68 28s42.667 10 62 10c25.333 0 48.666 -4.5 69.999 -13.5s39.833 -21.167 55.5 -36.5s27.834 -33.333 36.501 -54s12.667 -42.334 12 -65.001c-0.666992 -18 -3.33398 -36.167 -8.00098 -54.5
s-10.667 -35.5 -18 -51.5s-15.833 -30.667 -25.5 -44s-19.5 -24.333 -29.5 -33c30.667 -5.33301 56.667 -15.833 78 -31.5s38.666 -34.5 51.999 -56.5s22.833 -45.667 28.5 -71s8.16699 -50 7.5 -74c-3.33301 -92 -31.166 -159.5 -83.499 -202.5
s-125.833 -64.5 -220.5 -64.5z" />
    <glyph glyph-name="four" unicode="4" horiz-adv-x="630" 
d="M50 806c1.33301 16 7.33594 28.3311 18.0029 36.998s22.667 13 36 13c15.333 0 29.166 -4.66699 41.499 -14s18.166 -22.666 17.499 -39.999l-7 -122l-11 -210l131 12l132 12l11 311v-1c0 17.333 5.83301 30 17.5 38s24.167 12 37.5 12
c15.333 0 29.166 -4.33301 41.499 -13s18.5 -19.667 18.5 -33c0 -9.33301 -0.166992 -23.5 -0.5 -42.5s-0.666016 -41.833 -0.999023 -68.5s-1 -56.167 -2 -88.5s-2.16699 -66.833 -3.5 -103.5h15c18.667 0.666992 32 -4.16602 40 -14.499s12 -22.5 12 -36.5
c0 -14.667 -4.33301 -28.334 -13 -41.001s-20 -19.667 -34 -21l-25 -2c-2 -56.667 -3.5 -109.334 -4.5 -158.001s-1.5 -91.667 -1.5 -129v-32c0 -9.33301 0.333008 -17.666 1 -24.999c-0.666992 -18 -8 -32.667 -22 -44s-29 -17 -45 -17c-14.667 0 -28 4.16699 -40 12.5
s-18 21.166 -18 38.499l13 342c-8.66699 -1.33301 -17.5 -2.16602 -26.5 -2.49902s-17.5 -0.833008 -25.5 -1.5l-124 -12.5c-42.667 -4.33301 -81.334 -8.83301 -116.001 -13.5c-14 -2 -26.833 -2.83301 -38.5 -2.5s-21.5 3 -29.5 8s-14 12.833 -18 23.5
s-5.33301 25.334 -4 44.001z" />
    <glyph glyph-name="five" unicode="5" horiz-adv-x="629" 
d="M154 733l-1 -30.999c-1.33301 -38.667 -2.83301 -72.834 -4.5 -102.501s-1.83398 -53.5 -0.500977 -71.5c50.667 24.667 101.334 37 152.001 37c36 0 70.5 -5.5 103.5 -16.5s62.833 -27 89.5 -48s48.5 -46.667 65.5 -77s27.5 -65.166 31.5 -104.499
c3.33301 -34 -0.666992 -68.333 -12 -103s-27.833 -66.834 -49.5 -96.501s-47.667 -55.167 -78 -76.5s-62.833 -35.333 -97.5 -42c-64.667 -12.667 -124.834 -7.16699 -180.501 16.5s-100.5 65.5 -134.5 125.5c-9.33301 15.333 -10.5 29.833 -3.5 43.5
s16.833 24.334 29.5 32.001s25.834 10.667 39.501 9s22.834 -9.83398 27.501 -24.501c4.66699 -15.333 11.834 -28.833 21.501 -40.5s21 -21.334 34 -29.001s27.333 -13.5 43 -17.5s31.5 -6 47.5 -6c12 0 24.667 1.33301 38 4c21.333 4 42 12.167 62 24.5
s37.667 27.5 53 45.5s27.166 37.667 35.499 59s11.166 43 8.49902 65c-2.66699 23.333 -9.33398 43.833 -20.001 61.5s-24.167 32.334 -40.5 44.001s-34.666 20.5 -54.999 26.5s-41.5 9 -63.5 9c-28.667 0 -56.667 -5 -84 -15s-51.666 -25 -72.999 -45
c-10.667 -8.66699 -23.667 -13 -39 -13s-30.166 4.33301 -44.499 13s-21.5 22.334 -21.5 41.001c0 14 0.166992 30.167 0.5 48.5s1.16602 38.166 2.49902 59.499c1.33301 23.333 2.33301 49 3 77s1 55 1 81v42c0 14 -0.666992 27.667 -2 41c-1.33301 16.667 1 29.667 7 39
s13.667 16 23 20s19.5 6.5 30.5 7.5s21.5 1.5 31.5 1.5l393 2c17.333 0 30.166 -5.5 38.499 -16.5s12.5 -23.5 12.5 -37.5c0 -7.33301 -1.16699 -14.833 -3.5 -22.5s-5.5 -14.5 -9.5 -20.5s-8.66699 -10.833 -14 -14.5s-11 -5.5 -17 -5.5
c-22.667 0.666992 -43.667 1.16699 -63 1.5l-57.5 1c-19 0.333008 -38.333 0.5 -58 0.5h-62.5z" />
    <glyph glyph-name="six" unicode="6" horiz-adv-x="645" 
d="M313 -1c-50 -8.66699 -93 -5.83301 -129 8.5s-65.667 36.5 -89 66.5s-40.666 66.333 -51.999 109s-17 88.334 -17 137.001c0 28.667 3.5 60 10.5 94s17.167 68.333 30.5 103s29.5 68.834 48.5 102.501s40.667 65.167 65 94.5s51 55.166 80 77.499s59.833 39.5 92.5 51.5
c8.66699 2.66699 17.667 3 27 1s17.5 -5.83301 24.5 -11.5s12.833 -12.5 17.5 -20.5s7 -16.333 7 -25c0 -19.333 -10.667 -34.333 -32 -45h1c-36 -18 -69.333 -41.5 -100 -70.5s-57.5 -61.667 -80.5 -98s-41.333 -74.833 -55 -115.5s-21.834 -81.334 -24.501 -122.001
c23.333 26.667 49 51.5 77 74.5s57.667 41.5 89 55.5h-1c18 9.33301 37.5 16.5 58.5 21.5s42.167 7.5 63.5 7.5c32 0 62.5 -7.5 91.5 -22.5s51.833 -40.5 68.5 -76.5c18.667 -41.333 23.667 -83.666 15 -126.999s-26.667 -83.833 -54 -121.5s-61.5 -69.834 -102.5 -96.501
s-84.5 -44 -130.5 -52zM343 358.001c-19.333 -8.66699 -37.8379 -19.666 -55.5049 -32.999s-34.5 -27.833 -50.5 -43.5s-30.833 -32.167 -44.5 -49.5l-38.5 -51c7.33301 -12.667 15.333 -24.334 24 -35.001s18.5 -19.667 29.5 -27s23.167 -12.5 36.5 -15.5
s28 -2.83301 44 0.5c22.667 4 47.334 13.167 74.001 27.5s50.334 32.166 71.001 53.499s35.834 45.5 45.501 72.5s8.83398 55.833 -2.49902 86.5c-4.66699 12.667 -12.167 21.334 -22.5 26.001s-21.833 7 -34.5 7s-25.667 -2 -39 -6s-25.666 -8.33301 -36.999 -13z" />
    <glyph glyph-name="seven" unicode="7" horiz-adv-x="603" 
d="M486 848c24 2 43.833 -2.66992 59.5 -14.0029s23.5 -27.666 23.5 -48.999c0 -6 -1.16699 -13 -3.5 -21s-5.83301 -15.667 -10.5 -23c-15.333 -26 -33.5 -58.833 -54.5 -98.5l-67 -128.5l-72 -141.5l-68 -139l-56 -120.5c-16.333 -36 -28.5 -64.333 -36.5 -85
c-5.33301 -12 -13 -20.833 -23 -26.5s-20 -8.5 -30 -8.5s-19.833 2.16699 -29.5 6.5s-18 10 -25 17s-11.833 15.333 -14.5 25s-2 20.167 2 31.5l331 653l-339 -10c-16.667 0 -30 5.83301 -40 17.5s-15 25.167 -15 40.5s3.66699 28.333 11 39s17.666 16 30.999 16
c6.66699 -0.666992 13.834 -1 21.501 -1h27.5c23.333 0 50.833 0.333008 82.5 1s64.5 1.83398 98.5 3.50098s68 3.83398 102 6.50098s65.333 5.66699 94 9z" />
    <glyph glyph-name="eight" unicode="8" horiz-adv-x="621" 
d="M126 536c-32 52.667 -47.998 100 -47.998 142c0 28 6.16699 52.833 18.5 74.5s28.666 39.667 48.999 54s43.5 25 69.5 32s52.667 10.5 80 10.5s54 -3.83301 80 -11.5s49.333 -18.667 70 -33s37.167 -32.333 49.5 -54s18.5 -46.5 18.5 -74.5
c0 -20 -3.66699 -41.333 -11 -64s-19 -46.667 -35 -72c-8 -13.333 -17.833 -26.333 -29.5 -39s-24.167 -24 -37.5 -34c27.333 -15.333 51.833 -32.833 73.5 -52.5s40.167 -40.334 55.5 -62.001s27 -43.334 35 -65.001s12.333 -42.167 13 -61.5
c0.666992 -43.333 -5.5 -79.833 -18.5 -109.5s-31.833 -53.667 -56.5 -72s-54.334 -31.666 -89.001 -39.999s-73 -12.5 -115 -12.5c-41.333 0 -79.5 4.5 -114.5 13.5s-65 23.333 -90 43s-44.167 44.834 -57.5 75.501s-18.333 67.334 -15 110.001
c2 26 7.83301 50.167 17.5 72.5s22.167 43 37.5 62s32.833 36.667 52.5 53s40.167 31.5 61.5 45.5c-12 9.33301 -23.5 19.666 -34.5 30.999s-20.833 24 -29.5 38zM465.002 239c-3.33301 23.333 -18.502 49.335 -45.502 78.002s-66.833 54.334 -119.5 77.001
c-44 -16.667 -81.667 -38.334 -113 -65.001s-49.666 -57 -54.999 -91c-4.66699 -24 -2.83398 -44.667 5.49902 -62s20.833 -31.833 37.5 -43.5s35.834 -20.334 57.501 -26.001s43.5 -8.5 65.5 -8.5c22.667 0 44.667 2.66699 66 8s40 13.666 56 24.999s28.333 25.833 37 43.5
s11.334 39.167 8.00098 64.5zM192 691.002c-5.33301 -16 -5.33203 -32 0.000976562 -48s13.666 -31.5 24.999 -46.5s24.333 -28.667 39 -41s28.667 -22.833 42 -31.5c12 7.33301 24.167 16 36.5 26s23.333 21 33 33s17.667 25.167 24 39.5s9.5 29.5 9.5 45.5
c0 24 -10.167 42 -30.5 54s-44.833 18.667 -73.5 20c-7.33301 0.666992 -16.333 0 -27 -2s-21.334 -5 -32.001 -9s-20.167 -9.33301 -28.5 -16s-14.166 -14.667 -17.499 -24z" />
    <glyph glyph-name="nine" unicode="9" horiz-adv-x="651" 
d="M591 41c-1.33301 -14 -8.49805 -25.5 -21.498 -34.5s-27.833 -13.5 -44.5 -13.5c-15.333 0 -29 4.33301 -41 13s-17.667 22.334 -17 41.001c0.666992 22 2.16699 48.667 4.5 80s4.66602 64.333 6.99902 99l7 102.5c2.33301 33.667 3.5 63.834 3.5 90.501
c-29.333 -20 -58.166 -37.667 -86.499 -53s-56.833 -26.833 -85.5 -34.5s-57.5 -10.834 -86.5 -9.50098s-58.833 8.66602 -89.5 21.999c-18.667 8 -35 18.5 -49 31.5s-25.667 27.333 -35 43s-16.333 32.167 -21 49.5s-7 34.666 -7 51.999c0 44.667 9.33301 88 28 130
s46 78.667 82 110c10 8 22.5 16.667 37.5 26s32.667 17.833 53 25.5s42.833 14 67.5 19s51.667 7.5 81 7.5c15.333 0 31.166 -0.666992 47.499 -2s33.5 -4 51.5 -8c4.66699 11.333 12.5 19.833 23.5 25.5s22.167 8.5 33.5 8.5c13.333 0 25.666 -3.33301 36.999 -10
s17.666 -16.334 18.999 -29.001c4.66699 -30.667 7.83398 -68.667 9.50098 -114s2.5 -94 2.5 -146c0 -85.333 -1.5 -170.666 -4.5 -255.999s-5.16699 -173.666 -6.5 -264.999v-1zM189.002 447c4.66699 -2.66699 10.499 -4.49707 17.499 -5.49707s14.5 -1.5 22.5 -1.5
c23.333 0 49.666 4.16699 78.999 12.5s56.833 19.833 82.5 34.5s47.334 31.667 65.001 51s26.167 39.666 25.5 60.999c0.666992 15.333 0.666992 33 0 53s-1.66699 39.333 -3 58c-19.333 4 -38.666 7.33301 -57.999 10s-37.666 4 -54.999 4
c-24.667 0 -49.334 -3.33301 -74.001 -10s-48 -18.667 -70 -36c-10 -8 -19.667 -18 -29 -30s-17.333 -24.833 -24 -38.5s-12 -27.834 -16 -42.501s-6 -28.667 -6 -42c0 -16 3.33301 -30.833 10 -44.5s17.667 -24.834 33 -33.501z" />
    <glyph glyph-name="colon" unicode=":" horiz-adv-x="243" 
d="M185 471c7.33301 -10 10.0029 -20.4971 8.00293 -31.4971s-6.83301 -20.833 -14.5 -29.5s-17 -15.834 -28 -21.501s-22.167 -8.5 -33.5 -8.5s-21.833 2.66699 -31.5 8s-17.167 13.666 -22.5 24.999c-6 12.667 -8.33301 24.5 -7 35.5s5.33301 20.5 12 28.5
s15.167 14.167 25.5 18.5s21.166 6.5 32.499 6.5s22.166 -2.33301 32.499 -7s19.166 -12.334 26.499 -23.001v-1zM183.003 244.003c7.33301 -10 10.0039 -20.499 8.00391 -31.499s-6.83301 -20.833 -14.5 -29.5s-17 -15.834 -28 -21.501s-22.167 -8.5 -33.5 -8.5
c-10.667 0 -20.834 2.5 -30.501 7.5s-17.5 13.167 -23.5 24.5c-6 12.667 -8.33301 24.5 -7 35.5s5.33301 20.5 12 28.5s15.167 14.167 25.5 18.5s21.166 6.5 32.499 6.5s22.166 -2.16699 32.499 -6.5s19.166 -11.833 26.499 -22.5v-1z" />
    <glyph glyph-name="semicolon" unicode=";" horiz-adv-x="233" 
d="M163 -121c-5.33301 -12 -12.332 -20.5 -20.999 -25.5s-18.334 -7.5 -29.001 -7.5c-11.333 0 -22.166 2.83301 -32.499 8.5s-18.833 13 -25.5 22s-10.5 19.167 -11.5 30.5s2.5 22.666 10.5 33.999c7.33301 9.33301 13.833 19.666 19.5 30.999s8.5 23.666 8.5 36.999
c0 10.667 -2.66699 21.834 -8 33.501s-14.333 24.167 -27 37.5c-7.33301 8 -10.5 17 -9.5 27s4.5 19.333 10.5 28s14 15.834 24 21.501s20.667 8.5 32 8.5c17.333 0 32 -7.33301 44 -22c32 -41.333 48 -86 48 -134c0 -20.667 -2.83301 -41.667 -8.5 -63
s-13.834 -43.666 -24.501 -66.999zM161.001 294c7.33301 -10 10.0029 -20.3301 8.00293 -30.9971s-6.83301 -20.334 -14.5 -29.001s-17.167 -15.834 -28.5 -21.501s-22.666 -8.5 -33.999 -8.5c-10.667 0 -20.834 2.5 -30.501 7.5s-17.167 13.167 -22.5 24.5
c-6 12.667 -8.33301 24.5 -7 35.5s5.33301 20.5 12 28.5s15.167 14.167 25.5 18.5s21.166 6.5 32.499 6.5s22.166 -2.33301 32.499 -7s19.166 -12.334 26.499 -23.001v-1z" />
    <glyph glyph-name="less" unicode="&#x3c;" horiz-adv-x="498" 
d="M79 318c-9.33301 4.66699 -17.332 12.3369 -23.999 23.0039s-10 21.667 -10 33c0 10 2.66699 19.667 8 29s12 16.666 20 21.999l125.5 65.5l125.5 65.5l-1 -1c20.667 7.33301 37.167 6.66602 49.5 -2.00098s20.666 -20 24.999 -34s5.16602 -28 2.49902 -42
s-9 -22.667 -19 -26l-132 -70l141 -56c9.33301 -4 15.833 -10.167 19.5 -18.5s5.5 -17.166 5.5 -26.499s-1.66699 -18.833 -5 -28.5s-8.16602 -17.834 -14.499 -24.501s-14 -11.334 -23 -14.001s-18.833 -1.33398 -29.5 3.99902v-1z" />
    <glyph glyph-name="equal" unicode="=" horiz-adv-x="677" 
d="M154 427l1 -0.000976562c-17.333 -0.666992 -30 4.33301 -38 15s-12 23.334 -12 38.001c0 15.333 4.5 29.833 13.5 43.5s20.167 21.167 33.5 22.5c15.333 0.666992 32.5 1 51.5 1h60.5c38 0 78.667 0.333008 122 1s87 2.66699 131 6
c21.333 1.33301 37.166 -4.83398 47.499 -18.501s15.5 -29.167 15.5 -46.5c0 -14.667 -4.16699 -28.167 -12.5 -40.5s-21.166 -19.166 -38.499 -20.499zM148 237.999l1.00098 0.000976562c-17.333 -0.666992 -30 4.33301 -38 15s-12 23 -12 37c0 8 1.16699 15.833 3.5 23.5
s5.66602 14.667 9.99902 21s9.33301 11.5 15 15.5s11.834 6 18.501 6c15.333 0.666992 32.5 1 51.5 1h60.5c38 0 78.667 0.333008 122 1s87 3 131 7c21.333 1.33301 37.166 -4.83398 47.499 -18.501s15.5 -29.167 15.5 -46.5c0 -15.333 -4 -29 -12 -41
s-20.667 -18.667 -38 -20z" />
    <glyph glyph-name="greater" unicode="&#x3e;" horiz-adv-x="472" 
d="M123 216l0.998047 0.998047c-11.333 -5.33301 -21.5 -6.66602 -30.5 -3.99902s-16.667 7.33398 -23 14.001s-11.166 14.834 -14.499 24.501s-5 19.167 -5 28.5s2 18.166 6 26.499s10 14.5 18 18.5l142 56l-132 70c-11.333 6 -17.833 16.667 -19.5 32s0.5 29.833 6.5 43.5
s15.167 24.167 27.5 31.5s26.833 6.33301 43.5 -3l-1 1l251 -131c8.66699 -5.33301 15.5 -12.666 20.5 -21.999s7.5 -19 7.5 -29c0 -11.333 -3.16699 -22.333 -9.5 -33s-14.166 -18.334 -23.499 -23.001z" />
    <glyph glyph-name="question" unicode="?" horiz-adv-x="647" 
d="M298 202c3.33301 -22 -2.00098 -39.3311 -16.001 -51.998s-29.333 -19 -46 -19c-12.667 0 -24 3.16699 -34 9.5s-17.333 16.833 -22 31.5v1c-2 7.33301 -4.16699 18.666 -6.5 33.999s-4.66602 32.833 -6.99902 52.5l-7 61.5l-6.5 60c-0.666992 12 0.333008 23.667 3 35
s7.5 21.333 14.5 30s16.167 15.167 27.5 19.5s25 5.16602 41 2.49902h-1c10 -1.33301 23.333 -1 40 1s34.334 5.5 53.001 10.5s37.5 11.667 56.5 20s36.167 18.5 51.5 30.5s27.833 25.667 37.5 41s14.5 32.666 14.5 51.999c0 18.667 -5 35.167 -15 49.5
s-23.333 26.5 -40 36.5s-35.5 17.833 -56.5 23.5s-42.5 8.83398 -64.5 9.50098c-21.333 0 -42 -3.16699 -62 -9.5s-38.333 -15.166 -55 -26.499s-30.667 -24.833 -42 -40.5s-18.666 -33.167 -21.999 -52.5c-2.66699 -11.333 -7.66699 -19.666 -15 -24.999s-16 -8 -26 -8
c-8.66699 0 -17.5 2 -26.5 6s-17 9.5 -24 16.5s-12 15.167 -15 24.5s-2.83301 19 0.5 29c9.33301 25.333 22.666 50.166 39.999 74.499s38.666 46 63.999 65s54.666 33.833 87.999 44.5s71 15 113 13c32 -2 64 -8 96 -18s60.833 -24.333 86.5 -43s46.5 -41.5 62.5 -68.5
s24 -58.167 24 -93.5s-5.33301 -66.666 -16 -93.999s-24.667 -51 -42 -71s-37.333 -36.833 -60 -50.5s-46.167 -24.834 -70.5 -33.501s-48.666 -15.334 -72.999 -20.001s-46.833 -7.66699 -67.5 -9c1.33301 -29.333 4 -53.833 8 -73.5s7.66699 -36.5 11 -50.5l6 -27v1z
M324.999 72.002c7.33301 -10 10.0029 -20.4971 8.00293 -31.4971s-6.83301 -20.833 -14.5 -29.5s-17 -15.834 -28 -21.501s-22.167 -8.5 -33.5 -8.5s-21.833 2.66699 -31.5 8s-17.167 13.666 -22.5 24.999c-6 12.667 -8.33301 24.5 -7 35.5s5.33301 20.5 12 28.5
s15.167 14.167 25.5 18.5s21.166 6.5 32.499 6.5s22.166 -2.33301 32.499 -7s19.166 -12.334 26.499 -23.001v-1z" />
    <glyph glyph-name="at" unicode="@" horiz-adv-x="923" 
d="M661 -16c-66 -21.333 -129.005 -32.498 -189.005 -33.498s-115.167 6.66699 -165.5 23s-95 40.666 -134 72.999s-70.167 71.166 -93.5 116.499s-38 96.166 -44 152.499s-1.33301 116.833 14 181.5c12 52 32.667 100.667 62 146s66 84.333 110 117s93.5 56.667 148.5 72
s114.833 18 179.5 8c42.667 -6.66699 83.5 -22 122.5 -46s73.5 -53.5 103.5 -88.5s53.833 -74.333 71.5 -118s26.5 -88.167 26.5 -133.5c0 -24 -2 -46.333 -6 -67c-4.66699 -21.333 -12.5 -42.166 -23.5 -62.499s-24.167 -38.333 -39.5 -54s-32.666 -28 -51.999 -37
s-39.333 -12.167 -60 -9.5c-16 1.33301 -32.333 7.16602 -49 17.499s-32.667 25.5 -48 45.5c-18.667 -34 -44.834 -61.667 -78.501 -83s-70.5 -32 -110.5 -32c-16.667 0 -33.334 2.33301 -50.001 7c-24 6 -44.833 15.833 -62.5 29.5s-32.5 29.834 -44.5 48.501
s-20.833 38.834 -26.5 60.501s-8.5 44.167 -8.5 67.5c0 26 3.66699 51.667 11 77c8 26.667 19.667 50.667 35 72s33 39.333 53 54s41.833 25.834 65.5 33.501s48.167 11.5 73.5 11.5c23.333 0 47 -3.66699 71 -11s46.667 -18 68 -32c30 0 52.167 -6.83301 66.5 -20.5
s21.5 -36.5 21.5 -68.5c0 -12 -2 -28.333 -6 -49c-0.666992 -5.33301 -1.16699 -10.666 -1.5 -15.999s-0.5 -11 -0.5 -17c0 -21.333 3.33301 -39.833 10 -55.5s15.334 -23.834 26.001 -24.501c7.33301 -0.666992 14.833 3.66602 22.5 12.999s15.167 25.333 22.5 48v-1
c4.66699 18 7 37 7 57c0 29.333 -5.83301 58.666 -17.5 87.999s-27.667 56.166 -48 80.499s-44 45.333 -71 63s-55.833 29.5 -86.5 35.5c-10.667 2 -21 3.66699 -31 5s-19.333 2 -28 2c-37.333 0 -72.666 -6.83301 -105.999 -20.5s-63.666 -32.334 -90.999 -56.001
s-51.166 -51.5 -71.499 -83.5s-35.5 -66 -45.5 -102c-3.33301 -15.333 -6.16602 -30.666 -8.49902 -45.999s-3.5 -30.666 -3.5 -45.999c0 -44.667 8.33301 -86.334 25 -125.001s39.167 -72.167 67.5 -100.5s61.333 -50.666 99 -66.999s77.834 -24.5 120.501 -24.5
c52 0 104.333 13.333 157 40c12 6.66699 24.333 10 37 10c18 0 33 -5.66699 45 -17s18 -24.666 18 -39.999c0 -12.667 -4.5 -25.334 -13.5 -38.001s-24.167 -22.667 -45.5 -30zM386.995 288.002c24.667 -6.66699 47.001 -4.17188 67.001 7.49512s36.5 28 49.5 49
s22.5 44.333 28.5 70s8 49.5 6 71.5c-19.333 12.667 -36.333 21.334 -51 26.001s-28.667 7 -42 7c-26.667 0 -49 -8 -67 -24s-31.667 -34.667 -41 -56c-4.66699 -9.33301 -7.83398 -19.166 -9.50098 -29.499s-2.5 -20.166 -2.5 -29.499c0 -21.333 5 -40.666 15 -57.999
s25.667 -28.666 47 -33.999z" />
    <glyph glyph-name="A" unicode="A" horiz-adv-x="756" 
d="M714 83c4 -11.333 4.83203 -21.665 2.49902 -30.998s-7 -17.5 -14 -24.5s-15.167 -12.333 -24.5 -16s-19 -5.5 -29 -5.5c-11.333 0 -22 2.83301 -32 8.5s-17.333 15.167 -22 28.5v-1c-7.33301 22 -18.333 52.333 -33 91l-53 139l-151.5 -21
c-47.667 -6.66699 -98.167 -14.334 -151.5 -23.001l-41 -112.5l-28 -77.5v1c-4 -13.333 -11 -22.833 -21 -28.5s-20.667 -8.5 -32 -8.5c-10 0 -19.667 1.83301 -29 5.5s-17.5 9 -24.5 16s-11.833 15.167 -14.5 24.5s-2 19.666 2 30.999l287 732c6 16 14.5 27.333 25.5 34
s22.5 10 34.5 10c13.333 0 25.333 -3.66699 36 -11s18.334 -16.333 23.001 -27zM281.999 423.001l-25.998 -66c33.333 4.66699 66.166 9.5 98.499 14.5s69.166 11.167 110.499 18.5l-28 72.5l-24.5 63.5l-22.5 58.5l-23 57.5z" />
    <glyph glyph-name="B" unicode="B" horiz-adv-x="683" 
d="M32 802c0.666992 16 6.66504 28.665 17.998 37.998s23.666 14 36.999 14c11.333 0 22 -2.5 32 -7.5s17 -12.167 21 -21.5c23.333 4.66699 45.833 8.33398 67.5 11.001s42.167 4 61.5 4c67.333 0 122 -14.5 164 -43.5s65 -74.5 69 -136.5
c0.666992 -11.333 -1 -23.666 -5 -36.999s-9.83301 -27 -17.5 -41s-17 -27.667 -28 -41s-23.167 -26 -36.5 -38c24 -2 48.167 -6.33301 72.5 -13s46.833 -17.334 67.5 -32.001s38.334 -33.5 53.001 -56.5s24.667 -51.5 30 -85.5c1.33301 -5.33301 2 -10.833 2 -16.5v-17.5
c0 -45.333 -12 -85.666 -36 -120.999s-55 -65 -93 -89s-80.333 -42.333 -127 -55s-92.334 -19 -137.001 -19c-14.667 0 -29.167 0.5 -43.5 1.5s-28.166 3.16699 -41.499 6.5c-6 -7.33301 -13.667 -13 -23 -17s-18.666 -6 -27.999 -6c-14 0 -26.667 3.83301 -38 11.5
s-17.666 20.167 -18.999 37.5zM525.998 298.998c-2 15.333 -7.99805 28.6689 -17.998 40.002s-22.833 20.5 -38.5 27.5s-33.334 12.167 -53.001 15.5s-40.167 5 -61.5 5c-36 0 -71.5 -3.83301 -106.5 -11.5s-65.167 -18.5 -90.5 -32.5
c1.33301 -46.667 2.66602 -89 3.99902 -127s3.33301 -72.333 6 -103c10.667 -2.66699 21.667 -4.33398 33 -5.00098s23.333 -1 36 -1c34 0 68.667 4.16699 104 12.5s67.333 20.666 96 36.999s51.5 36.333 68.5 60s23.833 51.167 20.5 82.5zM376 660.001
c0.666992 10.667 -2.5 19.833 -9.5 27.5s-16.667 14 -29 19s-26.5 8.66699 -42.5 11s-32.333 3.5 -49 3.5c-17.333 0 -34.333 -1 -51 -3s-32 -5.33301 -46 -10l2 -93c0.666992 -25.333 1 -48.166 1 -68.499s0.666992 -44.833 2 -73.5c16.667 5.33301 37.5 13.833 62.5 25.5
s49.167 25.667 72.5 42s43.333 34.666 60 54.999s25.667 41.5 27 63.5v1z" />
    <glyph glyph-name="C" unicode="C" horiz-adv-x="664" 
d="M612 172c-18 -24 -36.499 -46.3281 -55.499 -66.9951s-39.167 -38.667 -60.5 -54s-44.833 -27.333 -70.5 -36s-53.834 -13 -84.501 -13c-6.66699 0 -12.667 0.166992 -18 0.5s-11 0.833008 -17 1.5c-52 4.66699 -96.167 17.667 -132.5 39s-65.666 48.166 -87.999 80.499
s-38.666 69 -48.999 110s-15.5 83.833 -15.5 128.5c0 15.333 0.5 30.5 1.5 45.5s2.16699 30.167 3.5 45.5c6.66699 51.333 19.167 101.666 37.5 150.999s42.833 92.666 73.5 129.999s67.667 66.833 111 88.5s93.666 30.5 150.999 26.5c22.667 -2 44.834 -6.5 66.501 -13.5
s41.667 -16.167 60 -27.5s34.666 -24.333 48.999 -39s25.5 -30.334 33.5 -47.001c5.33301 -11.333 7.33301 -22.333 6 -33s-5 -20 -11 -28s-13.5 -14.5 -22.5 -19.5s-18.5 -7.5 -28.5 -7.5c-16.667 0 -31.667 7.66699 -45 23c-17.333 22 -35.833 40 -55.5 54
s-42.167 21.667 -67.5 23c-35.333 2 -66.5 -5.5 -93.5 -22.5s-50.333 -39.667 -70 -68s-35.5 -60.333 -47.5 -96s-21 -71.167 -27 -106.5c-4 -25.333 -6 -51.333 -6 -78c0 -28.667 2.83301 -56.667 8.5 -84s15.5 -52.333 29.5 -75s32.5 -41.667 55.5 -57
s51.833 -25 86.5 -29c22 -2.66699 42.167 -1.16699 60.5 4.5s35.5 14.5 51.5 26.5s31.167 26.333 45.5 43s28.5 35 42.5 55v-1c12.667 17.333 27.667 26 45 26c10 0 19.667 -3.16699 29 -9.5s16.666 -14.5 21.999 -24.5s8 -20.833 8 -32.5s-4 -22.834 -12 -33.501z" />
    <glyph glyph-name="D" unicode="D" horiz-adv-x="707" 
d="M33 802c0.666992 17.333 6.16602 30.332 16.499 38.999s22.5 13 36.5 13c8 0 16 -1.16699 24 -3.5s14.667 -5.83301 20 -10.5c32 6 65.667 9 101 9c56.667 0 111.334 -8.83301 164.001 -26.5s99 -43.667 139 -78s71.167 -77.166 93.5 -128.499s31.5 -111 27.5 -179
c-4.66699 -74.667 -21.834 -140.334 -51.501 -197.001s-67.667 -103.667 -114 -141s-98.833 -65.166 -157.5 -83.499s-119.667 -26.5 -183 -24.5c-8.66699 -4.66699 -18.667 -7 -30 -7c-14.667 0 -28.167 4 -40.5 12s-19.166 20 -20.499 36zM531.999 425.999
c0.666992 6 1.00098 11.499 1.00098 16.499v15.5c0 46.667 -7.66699 87.167 -23 121.5s-36 62.833 -62 85.5s-56.167 39.667 -90.5 51s-70.5 17 -108.5 17c-32 0 -64.667 -3.66699 -98 -11c2 -32 3.66699 -68.833 5 -110.5s3 -84.5 5 -128.5
c1.33301 -36.667 2.5 -73.167 3.5 -109.5s2.16699 -71.166 3.5 -104.499s2.66602 -64.333 3.99902 -93s3 -54 5 -76c47.333 -0.666992 91.833 7 133.5 23s78.167 38.667 109.5 68s56.833 64 76.5 104s31.5 83.667 35.5 131z" />
    <glyph glyph-name="E" unicode="E" horiz-adv-x="648" 
d="M38 768c0.666992 13.333 3.99609 24.3281 9.99609 32.9951s13.5 15.5 22.5 20.5s18.833 8.5 29.5 10.5s21 3 31 3l391 15c18.667 0.666992 32 -4.33301 40 -15s12 -23.667 12 -39s-4.16699 -29.333 -12.5 -42s-18.833 -19.667 -31.5 -21
c-15.333 -1.33301 -38.5 -2.66602 -69.5 -3.99902s-67.5 -2.66602 -109.5 -3.99902l-191 -7v-229c50 3.33301 100.333 6.33301 151 9s101 5.66699 151 9c16 -0.666992 28.667 -6.33398 38 -17.001s14 -23 14 -37c0 -15.333 -4 -29.5 -12 -42.5s-18.667 -20.167 -32 -21.5
c-23.333 -2 -59.833 -4.83301 -109.5 -8.5s-116.167 -7.5 -199.5 -11.5c0 -49.333 0.333008 -96 1 -140s1.66699 -81.333 3 -112l395 16c18.667 0.666992 31.834 -4.66602 39.501 -15.999s11.5 -24.666 11.5 -39.999s-4 -29.166 -12 -41.499s-18.333 -19.166 -31 -20.499
c-13.333 -1.33301 -34.666 -2.5 -63.999 -3.5s-63.666 -2.33301 -102.999 -4s-81.666 -3.16699 -126.999 -4.5l-136 -4h-4h-29c-10 0 -19.5 1.33301 -28.5 4s-16.5 7.5 -22.5 14.5s-9.33301 17.5 -10 31.5z" />
    <glyph glyph-name="F" unicode="F" horiz-adv-x="602" 
d="M38 768c0 13.333 3.00098 24.335 9.00098 33.002s13.5 15.5 22.5 20.5s18.833 8.5 29.5 10.5s21 3 31 3l392 15c18 0.666992 31.167 -4.33301 39.5 -15s12.5 -23.667 12.5 -39s-4.33301 -29.333 -13 -42s-19 -19.667 -31 -21
c-15.333 -1.33301 -38.5 -2.66602 -69.5 -3.99902s-67.5 -2.66602 -109.5 -3.99902l-191 -7v-229c50 3.33301 100.333 6.33301 151 9s101 5.66699 151 9c15.333 -0.666992 27.666 -6.33398 36.999 -17.001s14 -23 14 -37c0 -15.333 -4 -29.5 -12 -42.5
s-18.667 -20.167 -32 -21.5c-22.667 -2 -59 -4.83301 -109 -8.5s-116.667 -7.5 -200 -11.5c-0.666992 -15.333 -1 -31.833 -1 -49.5v-54.5c0 -42.667 0.333008 -84.334 1 -125.001s1.66699 -73.334 3 -98.001c-0.666992 -17.333 -6.83398 -30.5 -18.501 -39.5
s-24.5 -13.5 -38.5 -13.5c-15.333 0 -29.666 4.66699 -42.999 14s-20 21.666 -20 36.999z" />
    <glyph glyph-name="G" unicode="G" horiz-adv-x="741" 
d="M703 401c-6.66699 -78 -21.9971 -142.665 -45.9971 -193.998s-52.5 -91.833 -85.5 -121.5s-68.167 -50.334 -105.5 -62.001s-72.666 -17.167 -105.999 -16.5c-56.667 1.33301 -104.834 13.166 -144.501 35.499s-71.834 51.5 -96.501 87.5s-42.667 77.167 -54 123.5
s-17 94.166 -17 143.499c0 7.33301 0.166992 14.833 0.5 22.5s0.833008 15.167 1.5 22.5c3.33301 51.333 12.333 102 27 152s36 94.5 64 133.5s63 70.333 105 94s91.667 34.834 149 33.501c22.667 -0.666992 44.834 -4 66.501 -10s42.167 -14.167 61.5 -24.5
s36.666 -22.5 51.999 -36.5s27.666 -29 36.999 -45c6 -11.333 8.5 -22.5 7.5 -33.5s-4.33301 -20.667 -10 -29s-13 -15.166 -22 -20.499s-18.5 -8 -28.5 -8c-7.33301 0 -14.666 1.66699 -21.999 5s-14.333 8.66602 -21 15.999c-19.333 22.667 -39 40.167 -59 52.5
s-43.667 18.5 -71 18.5c-35.333 0 -65.833 -9 -91.5 -27s-47.167 -41.333 -64.5 -70s-31 -61 -41 -97s-16.667 -71.667 -20 -107c-0.666992 -6.66699 -1.16699 -13.834 -1.5 -21.501s-0.5 -14.5 -0.5 -20.5c0 -31.333 3.16699 -62.666 9.5 -93.999s17 -59.833 32 -85.5
s35.167 -47.167 60.5 -64.5s57 -27.666 95 -30.999c25.333 -2 50 2.33301 74 13s45.667 26.834 65 48.501s35.5 47.667 48.5 78s21.5 63.833 25.5 100.5c-24.667 -2.66699 -48.834 -4.5 -72.501 -5.5s-46.167 -1.5 -67.5 -1.5h-33c-10.667 0 -20.334 0.666992 -29.001 2
c-15.333 2 -27.5 9.66699 -36.5 23s-13.5 26.666 -13.5 39.999c0 12 2.83301 22.667 8.5 32s15.167 14.666 28.5 15.999c8.66699 1.33301 19 2 31 2h41c28 0 58.667 0.5 92 1.5s65.666 5.16699 96.999 12.5h-1c28.667 6.66699 50.334 3 65.001 -11s20 -38 16 -72z" />
    <glyph glyph-name="H" unicode="H" horiz-adv-x="707" 
d="M525 356l-356.999 -8.00195l4 -89.5c1.33301 -29 2.83301 -56.167 4.5 -81.5l4.5 -68.5c1.33301 -20.333 3 -36.833 5 -49.5c2 -20.667 -4.16699 -36.5 -18.5 -47.5s-29.833 -16.5 -46.5 -16.5c-14.667 0 -28.167 4 -40.5 12s-19.166 20.667 -20.499 38l-27 763
c1.33301 16.667 7.16602 29.334 17.499 38.001s22.166 13 35.499 13c15.333 0 29.666 -4.16699 42.999 -12.5s20.666 -19.166 21.999 -32.499c1.33301 -15.333 2.66602 -43.833 3.99902 -85.5s3 -90.167 5 -145.5l5 -117c12 0 24 0.333008 36 1s24.333 1 37 1
c22.667 0.666992 46.334 1.16699 71.001 1.5s49.334 0.833008 74.001 1.5s48.834 1.5 72.501 2.5s45.834 2.5 66.501 4.5l-12 320c-0.666992 18 4.16602 31 14.499 39s23.166 12 38.499 12s29.666 -4.33301 42.999 -13s20.666 -19 21.999 -31
c1.33301 -17.333 2.83301 -47.166 4.5 -89.499l5.5 -144.5c1.33301 -47.333 2.83301 -97 4.5 -149s3.5 -102 5.5 -150s4.16699 -91.667 6.5 -131s4.83301 -70 7.5 -92c1.33301 -10 0.333008 -19 -3 -27s-8.16602 -14.833 -14.499 -20.5s-13.666 -9.83398 -21.999 -12.501
s-16.833 -4 -25.5 -4c-14 0 -27.167 4 -39.5 12s-19.166 20.333 -20.499 37z" />
    <glyph glyph-name="I" unicode="I" horiz-adv-x="580" 
d="M74 -4c-17.333 0 -29.498 5.16895 -36.498 15.502s-10.5 22.166 -10.5 35.499c0 6.66699 1.33301 13.834 4 21.501s6.16699 14.5 10.5 20.5s9.5 11 15.5 15s12 6.33301 18 7c18.667 0.666992 41.834 1 69.501 1h89.5l-22 627l-146 -4c-18 0 -30.5 5 -37.5 15
s-10.5 21.667 -10.5 35c0 7.33301 1.33301 14.833 4 22.5s6.16699 14.5 10.5 20.5s9.5 10.833 15.5 14.5s12.333 5.5 19 5.5c4 0 17.667 0.166992 41 0.5s51.166 0.666016 83.499 0.999023s66.666 0.833008 102.999 1.5s69.333 1.16699 99 1.5s53.667 0.5 72 0.5
s25.833 0 22.5 0c19.333 1.33301 34.166 -4.16699 44.499 -16.5s15.5 -26.166 15.5 -41.499c0 -14 -4.5 -26.667 -13.5 -38s-22.167 -17.333 -39.5 -18l-165 1c0.666992 -20 1.16699 -42.5 1.5 -67.5s1.16602 -52.167 2.49902 -81.5l4 -129
c1.33301 -44.667 2.83301 -88.5 4.5 -131.5s3.33398 -83.5 5.00098 -121.5s3.5 -70.667 5.5 -98c26 0 50.667 0.5 74 1.5s46.333 2.5 69 4.5c19.333 1.33301 34.333 -4.33398 45 -17.001s16 -27 16 -43c0 -14 -4.5 -26.833 -13.5 -38.5s-22.5 -17.834 -40.5 -18.501z" />
    <glyph glyph-name="J" unicode="J" horiz-adv-x="745" 
d="M467 730l4.00195 -107.994c1.33301 -36.667 2.66602 -69.667 3.99902 -99c1.33301 -26.667 2.33301 -52.667 3 -78l2 -76c0.666992 -9.33301 1 -19.5 1 -30.5v-29.5c0 -43.333 -2.33301 -84.333 -7 -123s-14.167 -72.5 -28.5 -101.5s-34.833 -51.833 -61.5 -68.5
s-62 -25 -106 -25h-15c-5.33301 0 -10.333 0.333008 -15 1c-20 2.66699 -41.167 8.83398 -63.5 18.501s-43.666 22.5 -63.999 38.5s-38.333 35 -54 57s-26.5 47 -32.5 75c-2 8.66699 -1.16699 16.834 2.5 24.501s8.66699 14.334 15 20.001s13.833 10.167 22.5 13.5
s17 5 25 5c10.667 0 20.5 -3 29.5 -9s15.167 -15.333 18.5 -28c2.66699 -9.33301 7.83398 -20 15.501 -32s17 -23.333 28 -34s23.667 -19.834 38 -27.501s29.5 -11.834 45.5 -12.501c21.333 -1.33301 38.166 4.66699 50.499 18s21.666 30.166 27.999 50.499
s10.333 42.666 12 66.999s2.5 47.166 2.5 68.499v55c0 25.333 -0.166992 49 -0.5 71s-0.833008 46.5 -1.5 73.5s-2 58.333 -4 94s-4.33301 80.167 -7 133.5c-37.333 -0.666992 -74.5 -1.5 -111.5 -2.5s-74.167 -1.83301 -111.5 -2.5c-18 0 -30.5 5.5 -37.5 16.5
s-10.5 23.167 -10.5 36.5c0 15.333 4.5 29.666 13.5 42.999s20.167 20.666 33.5 21.999c13.333 0.666992 31.666 1 54.999 1h72h101.5c36.333 0 72.333 0.166992 108 0.5s69.667 1 102 2s60.5 2.16699 84.5 3.5c18 -0.666992 32.5 -7.33398 43.5 -20.001
s16.5 -26.667 16.5 -42c0 -14 -4.33301 -26.833 -13 -38.5s-22 -17.834 -40 -18.501z" />
    <glyph glyph-name="K" unicode="K" horiz-adv-x="686" 
d="M167 349c0.666992 -62.667 1.50586 -119.997 2.50586 -171.997s2.83301 -91.667 5.5 -119c1.33301 -20.667 -5.16699 -36.334 -19.5 -47.001s-30.166 -16 -47.499 -16c-14.667 0 -27.834 4.16699 -39.501 12.5s-17.834 21.166 -18.501 38.499l-4 763
c0 18 5.33301 30.833 16 38.5s23.667 11.5 39 11.5c14.667 0 28.667 -4.16699 42 -12.5s20.666 -19.166 21.999 -32.499c1.33301 -18.667 2 -49.5 2 -92.5v-171.5l81 70l74 64.5l69.5 61l58.5 52c17.333 15.667 31 28.5 41 38.5v-1c6 7.33301 12.667 12.333 20 15
s14.666 4 21.999 4c11.333 0 22.166 -3.16699 32.499 -9.5s18.5 -14.333 24.5 -24s9 -20.5 9 -32.5s-4.33301 -23.333 -13 -34l-350 -305l111 -96l111.5 -96l98 -82.5c29.667 -24.333 53.5 -42.833 71.5 -55.5h-1c15.333 -10 23 -24 23 -42
c0 -10.667 -3.16699 -21.334 -9.5 -32.001s-14.333 -19.334 -24 -26.001s-20.334 -10.667 -32.001 -12s-22.834 2 -33.501 10z" />
    <glyph glyph-name="L" unicode="L" horiz-adv-x="769" 
d="M153 -1c-8.66699 -1.33301 -17.501 -1.83203 -26.501 -1.49902s-17.333 2 -25 5s-14.167 8 -19.5 15s-8.33301 16.5 -9 28.5l-28 762c1.33301 16.667 7.16602 29.334 17.499 38.001s22.166 13 35.499 13c15.333 0 29.666 -4.33301 42.999 -13
s20.666 -19.334 21.999 -32.001c0.666992 -8 1.33398 -19.667 2.00098 -35s1.33398 -33 2.00098 -53s1.33398 -42 2.00098 -66s1.66699 -49 3 -75c1.33301 -40 2.83301 -81.5 4.5 -124.5s3.16699 -84.833 4.5 -125.5s2.83301 -79.167 4.5 -115.5s3.5 -67.833 5.5 -94.5
c12.667 1.33301 25.334 3.16602 38.001 5.49902s25.334 4.16602 38.001 5.49902l102 13c36 4.66699 71.167 9.5 105.5 14.5s66.5 10.167 96.5 15.5s55 10.333 75 15c11.333 2.66699 21.5 2.33398 30.5 -0.999023s16.5 -8.33301 22.5 -15s10.667 -14.5 14 -23.5
s5 -17.833 5 -26.5c0 -13.333 -3.5 -25.5 -10.5 -36.5s-18.167 -17.833 -33.5 -20.5z" />
    <glyph glyph-name="M" unicode="M" horiz-adv-x="951" 
d="M748 605l-222.008 -378.997c-12 -19.333 -24 -32.5 -36 -39.5s-23.667 -10.5 -35 -10.5c-16.667 0 -30.167 5 -40.5 15s-18.166 18.667 -23.499 26l-221 372v-25c1.33301 -47.333 2.83301 -96.333 4.5 -147s3.5 -99 5.5 -145s4.16699 -87.833 6.5 -125.5
s4.83301 -66.834 7.5 -87.501c1.33301 -10 0.333008 -19 -3 -27s-8.16602 -14.833 -14.499 -20.5s-13.666 -9.83398 -21.999 -12.501s-16.833 -4 -25.5 -4c-14.667 0 -28 4 -40 12s-18.667 20.667 -20 38l-28 763c0 11.333 4.33301 21.5 13 30.5s19 15.5 31 19.5
s24.167 5.33301 36.5 4s21.5 -6.33301 27.5 -15c11.333 -16 27.166 -40.833 47.499 -74.5l66.5 -113.5l50 -85.5l49.5 -85l48 -79.5l44.5 -69l47 74l50.5 83l50.5 86l48 83l33 57l29 49.5c8.66699 15 16.5 28 23.5 39l16.5 25.5c6.66699 8.66699 15.834 13.5 27.501 14.5
s23.334 -0.666992 35.001 -5s21.834 -10.666 30.501 -18.999s13.667 -16.833 15 -25.5l3 -42.5c1.33301 -19 2.5 -41.5 3.5 -67.5s2 -54.833 3 -86.5s2.16699 -64.5 3.5 -98.5l4 -136.5c1.33301 -46.333 3 -90.333 5 -132s4 -79.334 6 -113.001s4 -60.167 6 -79.5
c1.33301 -10 0.333008 -19 -3 -27s-8.16602 -14.833 -14.499 -20.5s-13.666 -9.83398 -21.999 -12.501s-16.5 -4 -24.5 -4c-14.667 0 -28.167 4 -40.5 12s-19.166 20.667 -20.499 38z" />
    <glyph glyph-name="N" unicode="N" horiz-adv-x="711" 
d="M164 604c0 -4 -0.164062 -8.00195 -0.49707 -12.002s-0.5 -8 -0.5 -12v1c-1.33301 -50.667 -2.33301 -104 -3 -160s-1 -109.333 -1 -160c0 -44 0.5 -83.667 1.5 -119s2.83301 -63 5.5 -83c2 -20.667 -4.16699 -36.5 -18.5 -47.5s-29.833 -16.5 -46.5 -16.5
c-14.667 0 -28 4 -40 12s-18.667 20.667 -20 38l3 744c0 22 5.83301 38.167 17.5 48.5s25.5 15.5 41.5 15.5c9.33301 0 19.166 -2.33301 29.499 -7s19.166 -11 26.499 -19c6.66699 -7.33301 15.667 -19.333 27 -36l39.5 -59.5l49.5 -77l57 -89.5l55.5 -88l50 -79l48.5 -74.5
l50 -75.5l-10 277l-10 277c1.33301 16 7.16602 28.333 17.499 37s22.5 13 36.5 13c15.333 0 29.666 -4.16699 42.999 -12.5s20.666 -18.833 21.999 -31.5c0.666992 -10 1.5 -24.5 2.5 -43.5s1.83301 -41.167 2.5 -66.5s1.5 -53.166 2.5 -83.499s1.83301 -61.5 2.5 -93.5
c1.33301 -44 2.83301 -89 4.5 -135l5 -131.5c1.66699 -41.667 3.33398 -79.167 5.00098 -112.5s3.16699 -59.666 4.5 -78.999c0.666992 -8.66699 -0.666016 -17.167 -3.99902 -25.5s-8 -15.666 -14 -21.999s-13.167 -11.5 -21.5 -15.5s-16.833 -6 -25.5 -6
c-8 0 -15.833 1.66699 -23.5 5s-14.5 8.66602 -20.5 15.999z" />
    <glyph glyph-name="O" unicode="O" horiz-adv-x="731" 
d="M289 0c-54.667 6 -99.501 22.832 -134.501 50.499s-62.167 61.5 -81.5 101.5s-32 84.167 -38 132.5s-7.66699 96.166 -5 143.499c2.66699 52 12.334 103.667 29.001 155s40.167 97 70.5 137s67.5 71.667 111.5 95s95 32.666 153 27.999h-1
c42.667 -3.33301 80.834 -13.666 114.501 -30.999s62.5 -39 86.5 -65s43.333 -55.167 58 -87.5s24.667 -65.166 30 -98.499c4.66699 -27.333 7 -57.666 7 -90.999c0 -56 -8 -112 -24 -168s-39.333 -106.5 -70 -151.5s-68.667 -81.667 -114 -110s-97.333 -42.5 -156 -42.5
c-6.66699 0 -12.834 0.166992 -18.501 0.5s-11.5 0.833008 -17.5 1.5zM300.999 111.999c4 -0.666992 8.16797 -1.16504 12.501 -1.49805s8.16602 -0.5 11.499 -0.5c39.333 0 74.5 11.667 105.5 35s57.333 52.833 79 88.5s38.167 74.167 49.5 115.5s17 80 17 116
c0 12 -1 24.667 -3 38c-3.33301 25.333 -10 50.833 -20 76.5s-23.167 49 -39.5 70s-36 38.667 -59 53s-48.833 22.833 -77.5 25.5c-40 0 -74.167 -11.5 -102.5 -34.5s-51.5 -50.833 -69.5 -83.5s-31.667 -66.167 -41 -100.5s-15 -62.833 -17 -85.5
c-3.33301 -24.667 -3.33301 -54 0 -88s11 -66.833 23 -98.5s28.667 -59.334 50 -83.001s48.333 -37.834 81 -42.501z" />
    <glyph glyph-name="P" unicode="P" horiz-adv-x="710" 
d="M161 796c72.667 35.333 141.669 52.666 207.002 51.999c43.333 -0.666992 83.5 -7.83398 120.5 -21.501s68.833 -33.5 95.5 -59.5s47 -58 61 -96s19.667 -81.667 17 -131c-4.66699 -49.333 -17.167 -92 -37.5 -128s-46 -65.667 -77 -89s-65.5 -41 -103.5 -53
s-76.667 -19 -116 -21c-27.333 -1.33301 -54.666 1.5 -81.999 8.5s-53.666 17.167 -78.999 30.5v-17c0 -22 0.5 -44 1.5 -66s2.83301 -44 5.5 -66c1.33301 -13.333 2.5 -27.333 3.5 -42s2.16699 -29.334 3.5 -44.001c1.33301 -19.333 -4.5 -34.166 -17.5 -44.499
s-27.167 -15.5 -42.5 -15.5c-14.667 0 -27.834 4.33301 -39.501 13s-18.167 21.667 -19.5 39c-1.33301 14.667 -2.33301 41.667 -3 81s-1.66699 84.666 -3 135.999c-1.33301 46.667 -2.5 96.334 -3.5 149.001s-2.33301 103.334 -4 152.001s-3.5 93.167 -5.5 133.5
s-4.33301 71.5 -7 93.5c-1.33301 10 -0.333008 19 3 27s8.16602 14.833 14.499 20.5s13.666 9.83398 21.999 12.501s16.833 4 25.5 4c14 0 27.167 -4 39.5 -12s19.166 -20.333 20.499 -37v-9zM549.002 539c2 30.667 -1.83301 58.0039 -11.5 82.0039
s-23.167 44.167 -40.5 60.5s-37.833 28.666 -61.5 36.999s-48.5 12.5 -74.5 12.5c-17.333 0 -35.166 -1.83301 -53.499 -5.5s-36.166 -8.83398 -53.499 -15.501s-33.833 -14.5 -49.5 -23.5s-29.167 -18.5 -40.5 -28.5c-0.666992 -7.33301 -0.833984 -17 -0.500977 -29
s0.5 -24.667 0.5 -38c0 -26.667 0.166992 -53.667 0.5 -81s1.16602 -53.333 2.49902 -78c21.333 -20.667 46.833 -36.5 76.5 -47.5s59.167 -16.5 88.5 -16.5c26.667 0 52.667 3.83301 78 11.5s48 18.667 68 33s36.333 32.166 49 53.499s20 45.666 22 72.999z" />
    <glyph glyph-name="Q" unicode="Q" horiz-adv-x="747" 
d="M536 80c-32 -26.667 -65.498 -47.002 -100.498 -61.002s-71.5 -21 -109.5 -21c-7.33301 0 -13.833 0.166992 -19.5 0.5s-11.5 0.833008 -17.5 1.5c-50 5.33301 -91.667 19.833 -125 43.5s-60 53 -80 88s-34 74 -42 117s-12 86.5 -12 130.5v25.5
c0 8.33301 0.333008 16.5 1 24.5c4 50 14.167 100.5 30.5 151.5s39.5 96.667 69.5 137s66.833 72.5 110.5 96.5s94.5 33.667 152.5 29h-1c42.667 -3.33301 80.834 -13.666 114.501 -30.999s62.5 -39 86.5 -65s43.333 -55.167 58 -87.5s24.667 -65.166 30 -98.499
c4.66699 -27.333 7 -57.333 7 -90c0 -52.667 -6.5 -103.334 -19.5 -152.001s-32.5 -97.334 -58.5 -146.001c11.333 -10.667 24.166 -22.167 38.499 -34.5l38.5 -32.5l-1 1c7.33301 -6 12.666 -12.667 15.999 -20s5 -14.666 5 -21.999
c0 -11.333 -3.16699 -22.166 -9.5 -32.499s-14.5 -18.666 -24.5 -24.999s-20.833 -9.83301 -32.5 -10.5s-22.834 3.66602 -33.501 12.999zM301.002 111.998c4 -0.666992 8.16602 -1.16797 12.499 -1.50098s8.5 -0.5 12.5 -0.5c24.667 0 47 4.33301 67 13
s39.667 21.667 59 39l-112 116c-16 14 -22.5 27.833 -19.5 41.5s10.167 24.834 21.5 33.501s24.5 14 39.5 16s26.5 -1 34.5 -9l16 -15.5l21.5 -20.5l29.5 -28.5l40 -39.5c8 15.333 15.667 32.833 23 52.5s13.5 40.5 18.5 62.5s8.33301 44.167 10 66.5
s1.16699 44.166 -1.5 65.499c-8.66699 63.333 -28.834 115.333 -60.501 156s-76.834 63.667 -135.501 69c-26.667 1.33301 -50.667 -3.16699 -72 -13.5s-40.166 -24.333 -56.499 -42s-30.5 -37.667 -42.5 -60s-22.167 -45 -30.5 -68s-14.833 -45.167 -19.5 -66.5
s-7.66699 -39.333 -9 -54c-2 -15.333 -2.5 -33.333 -1.5 -54s3.33301 -42 7 -64s9.33398 -43.833 17.001 -65.5s17.5 -41.5 29.5 -59.5s26.333 -33.167 43 -45.5s36.334 -20.166 59.001 -23.499z" />
    <glyph glyph-name="R" unicode="R" horiz-adv-x="713" 
d="M599 -12c-9.33301 0 -17.8281 1.82812 -25.4951 5.49512s-14.167 9.5 -19.5 17.5c-44.667 50 -85.667 92.333 -123 127s-72 63.334 -104 86.001s-61.833 40.834 -89.5 54.501s-54.5 24.5 -80.5 32.5c-0.666992 -7.33301 -1 -15.666 -1 -24.999v-24
c0 -20.667 0.5 -40.834 1.5 -60.501s2.16699 -40.167 3.5 -61.5c1.33301 -13.333 2.33301 -27.666 3 -42.999l2 -44c0.666992 -18.667 -5.33301 -33 -18 -43s-26.667 -15 -42 -15c-14.667 0 -28 4.16699 -40 12.5s-18.333 21.833 -19 40.5c-0.666992 14.667 -1 42 -1 82v139
v147.5c0 51.667 -0.333008 101.5 -1 149.5s-1.33398 92 -2.00098 132s-2 71.333 -4 94c0.666992 18 7.66699 33 21 45s28 18 44 18c14 0 27.167 -4 39.5 -12s19.166 -20.333 20.499 -37v-9c36 16.667 71.333 29.5 106 38.5s68.667 12.833 102 11.5
c44 -1.33301 84.667 -8.16602 122 -20.499s69.166 -30.666 95.499 -54.999s46.166 -54.666 59.499 -90.999s18 -79.166 14 -128.499c-2.66699 -33.333 -10.667 -63.333 -24 -90s-30.833 -50.167 -52.5 -70.5s-47.167 -37.5 -76.5 -51.5s-61 -24.667 -95 -32
c42 -30.667 84.833 -64.834 128.5 -102.501s82.5 -79.5 116.5 -125.5c8 -10.667 11.333 -21.5 10 -32.5s-5.5 -20.833 -12.5 -29.5s-15.833 -15.834 -26.5 -21.501s-21.334 -8.5 -32.001 -8.5zM288.005 409.995c25.333 0 53.332 2.83301 83.999 8.5s59.167 15 85.5 28
s48.5 30.333 66.5 52s27 48.834 27 81.501c0 26 -5.16699 48.333 -15.5 67s-24.333 34.167 -42 46.5s-37.834 21.5 -60.501 27.5s-46 9 -70 9c-16.667 0 -34.167 -1.83301 -52.5 -5.5s-36.333 -8.66699 -54 -15s-34.5 -13.833 -50.5 -22.5s-30 -18 -42 -28
c-1.33301 -14.667 -2.16602 -36.334 -2.49902 -65.001s-0.5 -59 -0.5 -91c0 -14 -0.166992 -26 -0.5 -36s-0.166016 -20.667 0.500977 -32c16 -8 35.167 -14.167 57.5 -18.5s45.5 -6.5 69.5 -6.5z" />
    <glyph glyph-name="S" unicode="S" horiz-adv-x="672" 
d="M308 -7c-26 0.666992 -52.835 5.5 -80.502 14.5s-54.167 22.333 -79.5 40s-48.666 39.667 -69.999 66s-39 57.5 -53 93.5c-4.66699 10.667 -5.66699 20.834 -3 30.501s7.33398 18 14.001 25s14.667 12.5 24 16.5s18.333 6 27 6s16.834 -2.83301 24.501 -8.5
s13.167 -12.167 16.5 -19.5c6.66699 -21.333 16.334 -40.833 29.001 -58.5s27.5 -33.167 44.5 -46.5s35.833 -24.166 56.5 -32.499s42 -13.5 64 -15.5c20 0 41.5 2 64.5 6s44.333 10 64 18s35.5 18.333 47.5 31s16.667 28.334 14 47.001
c-5.33301 20.667 -15.166 38.667 -29.499 54s-31.333 29 -51 41s-40.834 22.333 -63.501 31s-45 16.667 -67 24l-44 15.5c-14 5 -27 10.5 -39 16.5c-26 12 -50.167 25.5 -72.5 40.5s-41.666 31.833 -57.999 50.5s-29 38.667 -38 60s-13.5 44.666 -13.5 69.999
c0 34.667 10.667 72.667 32 114c11.333 21.333 25.666 39.833 42.999 55.5s36.666 28.5 57.999 38.5s44 17.5 68 22.5s48.333 7.5 73 7.5c30.667 0 61 -3.66699 91 -11s57.667 -18 83 -32s47.333 -31 66 -51s31.667 -42.667 39 -68c4 -12.667 4.83301 -23.667 2.5 -33
s-6.5 -17 -12.5 -23s-13.167 -10.5 -21.5 -13.5s-16.5 -4.5 -24.5 -4.5c-9.33301 0 -18 2.66699 -26 8s-14.333 11.666 -19 18.999c-6.66699 15.333 -16.167 29.333 -28.5 42s-26.5 23.5 -42.5 32.5s-33.5 16 -52.5 21s-37.833 7.5 -56.5 7.5
c-30 0 -58.333 -6.66699 -85 -20s-48.667 -35 -66 -65h1c-8.66699 -15.333 -13 -29.666 -13 -42.999c0 -18.667 5.83301 -35.667 17.5 -51s26 -29 43 -41s35 -22.333 54 -31s36.167 -15.334 51.5 -20.001c18.667 -6 39.5 -13.167 62.5 -21.5s46.5 -17.833 70.5 -28.5
s47.333 -23.167 70 -37.5s42.667 -30.833 60 -49.5s31.166 -39.834 41.499 -63.501s14.833 -50.167 13.5 -79.5c-1.33301 -40.667 -12.333 -74 -33 -100s-46.667 -46.5 -78 -61.5s-65.5 -25 -102.5 -30s-72.833 -6.83301 -107.5 -5.5z" />
    <glyph glyph-name="T" unicode="T" horiz-adv-x="689" 
d="M605 846c17.333 -0.666992 29.499 -5.99902 36.499 -15.999s10.5 -21.333 10.5 -34c0 -7.33301 -1.33301 -14.833 -4 -22.5s-6.33398 -14.667 -11.001 -21s-10.167 -11.333 -16.5 -15s-13.166 -5.5 -20.499 -5.5h-70c-13.333 0.666992 -27.666 1 -42.999 1h-48h-16h-13
h-12.5h-16.5c0 -36.667 0.333008 -71.667 1 -105s1 -68 1 -104l2 -141c0.666992 -48.667 1.5 -94.5 2.5 -137.5s1.83301 -81.167 2.5 -114.5s1.33398 -57 2.00098 -71c0.666992 -11.333 -1 -21 -5 -29s-9.16699 -14.5 -15.5 -19.5s-13.333 -8.5 -21 -10.5
s-15.167 -3 -22.5 -3c-14.667 0 -28 3.83301 -40 11.5s-18.667 20.167 -20 37.5l-3 685c-11.333 -0.666992 -22.833 -1.16699 -34.5 -1.5s-23.834 -1.16602 -36.501 -2.49902c-23.333 -1.33301 -45.833 -2.5 -67.5 -3.5s-39.167 -1.5 -52.5 -1.5c-19.333 0 -33.5 6 -42.5 18
s-13.5 25.333 -13.5 40c0 13.333 4.83301 25.666 14.5 36.999s23.167 17.666 40.5 18.999z" />
    <glyph glyph-name="U" unicode="U" horiz-adv-x="740" 
d="M372 -8c-61.333 -2 -113.169 9.49707 -155.502 34.4971s-76.666 62.167 -102.999 111.5s-45.333 110.166 -57 182.499s-17.5 155.166 -17.5 248.499c0 36.667 0.833008 75 2.5 115s4.16699 81.333 7.5 124c1.33301 13.333 9 24.333 23 33s28.333 13 43 13
c15.333 0 28.666 -4.5 39.999 -13.5s15.333 -24.5 12 -46.5v1c-3.33301 -27.333 -6.5 -60.5 -9.5 -99.5s-4.5 -80.5 -4.5 -124.5c0 -36 1.33301 -72.5 4 -109.5s7 -72.833 13 -107.5s14.5 -67.167 25.5 -97.5s24.5 -56.5 40.5 -78.5s35.333 -39.167 58 -51.5
s49 -17.5 79 -15.5c38.667 2 70.834 12.667 96.501 32s46 44.833 61 76.5s25.5 68.334 31.5 110.001s9 85.834 9 132.501c0 52 -3 106.333 -9 163s-13 111 -21 163c-0.666992 8.66699 1 16.834 5 24.501s9.33301 14.167 16 19.5s14.167 9.66602 22.5 12.999s16.5 5 24.5 5
c13.333 0 25 -3.5 35 -10.5s16 -18.5 18 -34.5l17 -166.5c6 -59.667 9 -118.5 9 -176.5c0 -59.333 -4.16699 -116.666 -12.5 -171.999s-24.166 -104.666 -47.499 -147.999s-55.5 -78.666 -96.5 -105.999s-94.167 -42 -159.5 -44z" />
    <glyph glyph-name="V" unicode="V" horiz-adv-x="801" 
d="M463 32c-5.33301 -10 -13.3311 -17.499 -23.998 -22.499s-21.667 -7.5 -33 -7.5c-12 0 -23.333 2.5 -34 7.5s-18.667 12.5 -24 22.5l-315 739v-1c-6 12 -7.83301 22.667 -5.5 32s7 17.166 14 23.499s15.333 11.333 25 15s19.167 5.5 28.5 5.5c18 0 32 -7 42 -21
c7.33301 -13.333 19.833 -41 37.5 -83l60.5 -147l47.5 -116l45 -108l41 -94.5c13 -29 24.833 -53.5 35.5 -73.5l31 74.5l35 90l37.5 98l37.5 98.5l34 89l29.5 78l24 60c7 16.667 12.5 29 16.5 37c9.33301 13.333 23.666 20 42.999 20c9.33301 0 18.833 -1.66699 28.5 -5
s18 -8.33301 25 -15s11.667 -14.5 14 -23.5s1.16602 -19.167 -3.50098 -30.5z" />
    <glyph glyph-name="W" unicode="W" horiz-adv-x="960" 
d="M471 460l-140.002 -422c-4.66699 -11.333 -12.334 -20.166 -23.001 -26.499s-22 -9.5 -34 -9.5c-14 0 -27.833 3.83301 -41.5 11.5s-21.834 18.5 -24.501 32.5v-1l-89.5 371.5l-89.5 371.5c-2.66699 10 -2.66699 19 0 27s7 14.5 13 19.5s13 8.83301 21 11.5
s16.333 4 25 4c12.667 0 24.334 -2.83301 35.001 -8.5s17.667 -13.834 21 -24.501c2.66699 -9.33301 6.33398 -23.5 11.001 -42.5l16 -66l20 -82.5l23 -93l32.5 -137l32.5 -130l132 408c2.66699 14.667 9.83398 25.834 21.501 33.501s24.167 11.5 37.5 11.5
s26 -3.66699 38 -11s19.667 -18.666 23 -33.999c2 -10.667 5.83301 -25.5 11.5 -44.5l20 -65.5l25.5 -80l29 -88c6 -17.333 10.667 -31.333 14 -42s6.5 -20.334 9.5 -29.001s6 -17.834 9 -27.501l11.5 -36.5l67 272l23.5 95.5l20.5 83l16 65l10 39.5
c3.33301 10.667 10.333 18.834 21 24.501s22 8.5 34 8.5c8.66699 0 17.167 -1.33301 25.5 -4s15.5 -6.5 21.5 -11.5s10.333 -11.5 13 -19.5s2.66699 -17 0 -27l-181 -743l1 1c-3.33301 -14 -11.666 -24.833 -24.999 -32.5s-27.333 -11.5 -42 -11.5
c-12 0 -23.333 3.16699 -34 9.5s-18 15.166 -22 26.499z" />
    <glyph glyph-name="X" unicode="X" horiz-adv-x="727" 
d="M431 422l76 -103.499l69 -94l57 -77c16.667 -22.333 29.667 -39.166 39 -50.499c8.66699 -11.333 12.5 -22.833 11.5 -34.5s-4.66699 -22.167 -11 -31.5s-14.833 -17 -25.5 -23s-21.334 -9 -32.001 -9c-8 0 -15.667 1.83301 -23 5.5s-13.666 9.16699 -18.999 16.5v-1
l-55.5 76.5l-53 72.5l-53 73l-54.5 77l-108 -149.5l-108 -149.5v1c-10.667 -14.667 -24.667 -22 -42 -22c-10.667 0 -21.334 3 -32.001 9s-19.167 13.833 -25.5 23.5s-10 20.167 -11 31.5s2.83301 22.666 11.5 33.999l38.5 50.5l56 75l68.5 93.5l77 106l-122.5 171
l-122.5 170c-10.667 14.667 -13 28.5 -7 41.5s15.167 23.5 27.5 31.5s25.833 12.167 40.5 12.5s25.667 -4.83398 33 -15.501l2 -3c5.33301 -8 14.833 -21.167 28.5 -39.5l50 -67.5l66.5 -90.5l79 -107.5l166 229l56 77c8 11.333 19.667 17 35 17s29.333 -3.83301 42 -11.5
s21.834 -18.167 27.501 -31.5s3.16699 -27.333 -7.5 -42z" />
    <glyph glyph-name="Y" unicode="Y" horiz-adv-x="654" 
d="M382 458c-1.33301 -24.667 -2.00195 -50 -2.00195 -76v-82c0 -40 0.166992 -81.333 0.5 -124s0.833008 -86 1.5 -130c-0.666992 -17.333 -7.16699 -31.166 -19.5 -41.499s-25.166 -15.5 -38.499 -15.5c-14 0 -27.167 4.5 -39.5 13.5s-19.166 22.5 -20.499 40.5
c-0.666992 69.333 -1 127.5 -1 174.5s-0.166992 85.667 -0.5 116s-0.5 53.666 -0.5 69.999v35.5v13v2l-233 313c-10 14.667 -12.5 28.167 -7.5 40.5s13.5 22.166 25.5 29.499s25 11.166 39 11.499s25 -4.16699 33 -13.5c15.333 -17.333 29.5 -35.166 42.5 -53.499
l40.5 -56.5l56.5 -74l62.5 -81c34 40.667 66.667 81.834 98 123.501l98 131.5c8.66699 12 20.5 18.167 35.5 18.5s28.5 -3.16699 40.5 -10.5s20.5 -17.333 25.5 -30s2.16699 -26 -8.5 -40z" />
    <glyph glyph-name="Z" unicode="Z" horiz-adv-x="735" 
d="M651 6c-107.333 -3.33301 -196.5 -5.66699 -267.5 -7s-127.833 -2.16602 -170.5 -2.49902s-73.167 -0.333008 -91.5 0s-28.833 0.5 -31.5 0.5c-17.333 1.33301 -31 7.83301 -41 19.5s-15 24.834 -15 39.501s4.66699 28 14 40l478 637l-437 -12
c-18 -0.666992 -31 4.33301 -39 15s-12 22.667 -12 36s4.16699 26.166 12.5 38.499s19.166 18.833 32.499 19.5c88 3.33301 174.833 5.83301 260.5 7.5s173.834 5.16699 264.501 10.5c16.667 0.666992 30.334 -3 41.001 -11s18.167 -18.167 22.5 -30.5
s5.33301 -25.666 3 -39.999s-7.83301 -27.166 -16.5 -38.499h1c-10 -12 -21.667 -27 -35 -45l-43.5 -59.5l-50.5 -70l-55 -77.5l-81.5 -116l-74.5 -104.5l-64.5 -87c-19.667 -25.667 -36.834 -46.5 -51.501 -62.5c30 0 65 0.333008 105 1s80.333 1.66699 121 3
s79.167 2.83301 115.5 4.5s66.166 3.5 89.499 5.5c10.667 0.666992 20.167 -0.833008 28.5 -4.5s15.333 -8.33398 21 -14.001s9.83398 -12.334 12.501 -20.001s4 -15.167 4 -22.5c0 -13.333 -4 -25.333 -12 -36s-20.333 -16.334 -37 -17.001z" />
    <glyph glyph-name="bracketleft" unicode="[" horiz-adv-x="342" 
d="M27 864c0.666992 13.333 3.8291 24.167 9.49609 32.5s13 15 22 20s18.833 8.66699 29.5 11s21 3.5 31 3.5c20 1.33301 40.333 2.5 61 3.5s41 2.16699 61 3.5c18 0.666992 31 -4.33301 39 -15s12 -23.667 12 -39s-3.66699 -29.333 -11 -42s-18.666 -19.667 -33.999 -21
l-98 -7c0 -17.333 0.166992 -41.833 0.5 -73.5s0.833008 -69.5 1.5 -113.5c0.666992 -102.667 1.83398 -202.167 3.50098 -298.5s2.83398 -195.5 3.50098 -297.5c15.333 0 30.166 0.166992 44.499 0.5s28.833 0.5 43.5 0.5c18.667 0 31.834 -5.33301 39.501 -16
s11.5 -23.667 11.5 -39s-4.16699 -29.5 -12.5 -42.5s-19.166 -19.5 -32.499 -19.5l-121 -1h-31.5c-11 0 -21.167 1.5 -30.5 4.5s-17 7.83301 -23 14.5s-9.33301 17 -10 31z" />
    <glyph glyph-name="backslash" unicode="\" horiz-adv-x="439" 
d="M403 48c3.33301 -11.333 3.50098 -21.498 0.500977 -30.498s-8 -16.833 -15 -23.5s-15.333 -11.834 -25 -15.501s-19.167 -5.5 -28.5 -5.5c-12 0 -22.833 3.83301 -32.5 11.5s-16.5 18.167 -20.5 31.5c-6.66699 22 -16.834 53.333 -30.501 94l-46 135l-53.5 153.5
l-53 150.5l-28.5 78.5l-24.5 71l-19 55.5c-5.33301 15.333 -9 26.666 -11 33.999c-2.66699 8.66699 -2.16699 17.167 1.5 25.5s9 15.833 16 22.5s15.167 12 24.5 16s18.333 6 27 6c9.33301 0 18 -2.33301 26 -7s14 -12.667 18 -24z" />
    <glyph glyph-name="bracketright" unicode="]" horiz-adv-x="342" 
d="M298 -11c-0.666992 -13.333 -4 -24.3301 -10 -32.9971s-13.5 -15.5 -22.5 -20.5s-18.833 -8.5 -29.5 -10.5s-21 -3 -31 -3l-60.5 -4l-60.5 -4c-18 -0.666992 -31.167 4.5 -39.5 15.5s-12.5 23.833 -12.5 38.5c0 15.333 4.16699 29.5 12.5 42.5s19.166 20.167 32.499 21.5
l99 6c0 18 -0.166992 42.833 -0.5 74.5s-0.833008 69.5 -1.5 113.5l-2 150l-2 147.5l-2 147.5l-2 151c-14.667 0 -29.167 -0.333008 -43.5 -1s-29.166 -1 -44.499 -1c-18 -0.666992 -30.833 4.66602 -38.5 15.999s-11.5 24.333 -11.5 39c0 15.333 4 29.166 12 41.499
s18.667 19.166 32 20.499l122 1h31.5c11 0 21 -1.5 30 -4.5s16.667 -7.83301 23 -14.5s9.5 -17 9.5 -31z" />
    <glyph glyph-name="asciicircum" unicode="^" horiz-adv-x="328" 
d="M122 531l-1 -0.999023c4 8 10.167 14.167 18.5 18.5s16.833 6.66602 25.5 6.99902s16.834 -1.5 24.501 -5.5s13.5 -10.333 17.5 -19l61 -104c6 -11.333 5.66699 -21.833 -1 -31.5s-15.5 -17 -26.5 -22s-22.167 -7 -33.5 -6s-19 6.16699 -23 15.5l-18 27l-16 -31
c-2 -8 -9 -12.833 -21 -14.5s-24 -0.5 -36 3.5s-21.833 10.833 -29.5 20.5s-7.83398 22.167 -0.500977 37.5z" />
    <glyph glyph-name="underscore" unicode="_" horiz-adv-x="534" 
d="M71 -26l1 -0.000976562c-18 -0.666992 -30.833 4.33301 -38.5 15s-11.5 23.334 -11.5 38.001c0 15.333 4.5 29.833 13.5 43.5s20.167 21.167 33.5 22.5c15.333 0.666992 32.5 1 51.5 1h60.5c38 0 78.667 0.333008 122 1s87 2.66699 131 6
c21.333 1.33301 37.166 -4.83398 47.499 -18.501s15.5 -29.167 15.5 -46.5c0 -14.667 -4.16699 -28.167 -12.5 -40.5s-21.166 -19.166 -38.499 -20.499z" />
    <glyph glyph-name="grave" unicode="`" horiz-adv-x="250" 
d="M30 744c-9.33301 11.333 -11.832 23.498 -7.49902 36.498s12.166 23.833 23.499 32.5s24.5 13.334 39.5 14.001s28.5 -5.66602 40.5 -18.999l72 -80c11.333 -13.333 15 -26.5 11 -39.5s-11.667 -23.667 -23 -32s-24 -13.5 -38 -15.5s-25.333 1.66699 -34 11z" />
    <glyph glyph-name="a" unicode="a" horiz-adv-x="665" 
d="M190 21c-27.333 8.66699 -50.501 21.1689 -69.501 37.502s-34.833 35.5 -47.5 57.5s-21.834 45.667 -27.501 71s-8.5 51.333 -8.5 78c0 35.333 4.66699 70.666 14 105.999s22.666 65.666 39.999 90.999c20 30.667 41.667 57 65 79s48.833 38.833 76.5 50.5
s57.834 17.834 90.501 18.501s68.667 -5 108 -17c4 14.667 11.5 25.167 22.5 31.5s22.5 9.5 34.5 9.5c14 0 26.667 -4.33301 38 -13s18.333 -21.334 21 -38.001c3.33301 -25.333 6.66602 -54.333 9.99902 -87l10 -100c2.66699 -31.333 5.83398 -62.666 9.50098 -93.999
l10.5 -90c3.33301 -28.667 6.83301 -55.5 10.5 -80.5s7.5 -46.5 11.5 -64.5v1c2.66699 -10.667 2.66699 -20.667 0 -30s-6.83398 -17.333 -12.501 -24s-12.5 -11.834 -20.5 -15.501s-16 -5.5 -24 -5.5c-12.667 0 -24.167 4 -34.5 12s-17.166 20.667 -20.499 38l-9 35
c-25.333 -22 -56.666 -39.167 -93.999 -51.5s-75.666 -18.5 -114.999 -18.5c-15.333 0 -30.5 0.833008 -45.5 2.5s-29.5 5.16699 -43.5 10.5zM227.999 128.002c6.66699 -2 13.833 -3.66504 21.5 -4.99805s15.834 -2 24.501 -2c19.333 0 39.333 2.33301 60 7
s40.167 11.5 58.5 20.5s34.166 20 47.499 33s22.666 27.5 27.999 43.5c-4.66699 42 -8.66699 83.333 -12 124c-1.33301 16 -2.16602 31 -2.49902 45s-1.5 28.667 -3.5 44c-13.333 17.333 -30.5 30.333 -51.5 39s-42.833 13 -65.5 13c-28 0 -55.167 -6.83301 -81.5 -20.5
s-47.5 -33.167 -63.5 -58.5c-11.333 -19.333 -20.333 -41.833 -27 -67.5s-10 -51.834 -10 -78.501c0 -30.667 5.83301 -58.834 17.5 -84.501s31.5 -43.167 59.5 -52.5z" />
    <glyph glyph-name="b" unicode="b" 
d="M193 39c0 -9.33301 -2.00195 -17.5 -6.00195 -24.5s-9.16699 -13 -15.5 -18s-13.5 -8.66699 -21.5 -11s-15.667 -3.5 -23 -3.5c-15.333 0 -28.666 4.16699 -39.999 12.5s-17 21.5 -17 39.5c0 22.667 -0.833008 54.667 -2.5 96s-4 87.333 -7 138
s-6.33301 103.167 -10 157.5l-10.5 153.5l-8.5 130.5c-2.33301 37 -3.83301 62.5 -4.5 76.5c-0.666992 6.66699 0.833008 13 4.5 19s8.5 11.333 14.5 16s12.833 8.16699 20.5 10.5s15.5 3.5 23.5 3.5c13.333 0 25.333 -3.5 36 -10.5s16 -19.167 16 -36.5l3 -87
c1.33301 -29.333 2.5 -57.833 3.5 -85.5s3.16699 -56.167 6.5 -85.5c32 22.667 64.167 39.5 96.5 50.5s64.5 16.5 96.5 16.5s62.5 -5.66699 91.5 -17s55 -27.5 78 -48.5s42.5 -46.333 58.5 -76s27 -62.5 33 -98.5c1.33301 -10 2.5 -20.5 3.5 -31.5s1.5 -22.167 1.5 -33.5
c0 -35.333 -4.16699 -69 -12.5 -101s-21.666 -60.667 -39.999 -86s-42 -46.666 -71 -63.999s-63.833 -28.333 -104.5 -33c-34 -3.33301 -66.667 -0.833008 -98 7.5s-63 21.166 -95 38.499v-15zM496.998 341c-4 22.667 -10.833 42.665 -20.5 59.998s-21.5 31.833 -35.5 43.5
s-29.5 20.334 -46.5 26.001s-34.833 8.5 -53.5 8.5c-30 0 -60.167 -7.5 -90.5 -22.5s-56.833 -37.5 -79.5 -67.5c0 -30 0.666992 -60 2 -90s4 -61 8 -93c8 -14 18.5 -26.333 31.5 -37s27.167 -19.834 42.5 -27.501s31.5 -13.5 48.5 -17.5s33.5 -6 49.5 -6
c7.33301 0 14.833 0.5 22.5 1.5s14.167 2.16699 19.5 3.5c18 6 33.667 14.833 47 26.5s24.333 25.334 33 41.001s15.167 32.334 19.5 50.001s6.5 35.167 6.5 52.5c0 8 -0.333008 16 -1 24s-1.66699 16 -3 24z" />
    <glyph glyph-name="c" unicode="c" horiz-adv-x="609" 
d="M508 101c-26.667 -30 -59.332 -54.501 -97.999 -73.501s-79 -28.5 -121 -28.5c-32 0 -61.5 5 -88.5 15s-51 23.833 -72 41.5s-39 39 -54 64s-26.5 52.5 -34.5 82.5c-4 16 -7.16699 32.5 -9.5 49.5s-3.5 33.833 -3.5 50.5c0 50.667 10 100.5 30 149.5s49 90.5 87 124.5
c19.333 17.333 41.166 29.833 65.499 37.5s48.833 11.5 73.5 11.5c22.667 0 45.167 -3 67.5 -9s43.5 -14.833 63.5 -26.5s38 -25.5 54 -41.5s29 -34 39 -54c5.33301 -11.333 7.33301 -22.166 6 -32.499s-4.83301 -19.5 -10.5 -27.5s-13 -14.333 -22 -19s-18.5 -7 -28.5 -7
c-8 0 -16 1.83301 -24 5.5s-14.667 9.16699 -20 16.5c-22.667 28 -45.167 48 -67.5 60s-42.166 18 -59.499 18c-22.667 0 -39.667 -4.66699 -51 -14c-28.667 -20.667 -50.167 -47.334 -64.5 -80.001s-21.5 -67 -21.5 -103c0 -12 0.666992 -24.167 2 -36.5
s3.66602 -23.833 6.99902 -34.5c10.667 -40 28 -70.833 52 -92.5s53 -32.5 87 -32.5c15.333 0 31.666 2 48.999 6h-2c23.333 8.66699 44.833 22 64.5 40s38.834 39.667 57.501 65v-1c12 18 26.667 27 44 27c10 0 19.333 -3.16699 28 -9.5s15.5 -14.5 20.5 -24.5
s7.5 -20.833 7.5 -32.5s-3.33301 -22.5 -10 -32.5c-16 -21.333 -30.333 -38.666 -43 -51.999z" />
    <glyph glyph-name="d" unicode="d" horiz-adv-x="644" 
d="M472 49c-29.333 -20.667 -59.501 -34.8291 -90.501 -42.4961s-63.5 -12.167 -97.5 -13.5c-46.667 0 -86.167 6.83301 -118.5 20.5s-58.666 33 -78.999 58s-35 55 -44 90s-13.167 73.167 -12.5 114.5c0.666992 43.333 8.83398 82.666 24.501 117.999
s36.167 65.5 61.5 90.5s54.833 44.167 88.5 57.5s68.834 20 105.501 20c24 0 48.667 -3 74 -9s50.666 -15.667 75.999 -29v16c0 13.333 -0.333008 27.333 -1 42s-1.5 31.334 -2.5 50.001s-2.33301 40.167 -4 64.5s-3.83398 53.5 -6.50098 87.5
c-0.666992 18 4.16602 30.833 14.499 38.5s22.833 11.5 37.5 11.5s28.667 -4.16699 42 -12.5s20.666 -18.5 21.999 -30.5c1.33301 -16.667 2.83301 -45.834 4.5 -87.501l5.5 -141.5c1.33301 -46 2.83301 -94.667 4.5 -146s3.5 -100.833 5.5 -148.5
s4.16699 -90.834 6.5 -129.501s4.83301 -68.667 7.5 -90c1.33301 -10 0.333008 -18.833 -3 -26.5s-8.16602 -14.334 -14.499 -20.001s-13.666 -9.83398 -21.999 -12.501s-16.5 -4 -24.5 -4c-14 0 -27 4 -39 12s-18.667 20.333 -20 37zM141.999 277.005
c-1.33301 -20.667 -0.167969 -41.002 3.49902 -61.002s10 -38.167 19 -54.5s20.667 -30.333 35 -42s32.166 -19.167 53.499 -22.5c18 -1.33301 38 0 60 4s43.5 10.333 64.5 19s39.667 20 56 34s27.833 30.333 34.5 49c1.33301 24.667 1 49.5 -1 74.5
s-3.66699 50.167 -5 75.5l-2 29c-21.333 20.667 -44.666 36.334 -69.999 47.001s-50 16 -74 16c-21.333 0 -42.166 -3.66699 -62.499 -11s-38.5 -18.166 -54.5 -32.499s-29 -32 -39 -53s-16 -44.833 -18 -71.5z" />
    <glyph glyph-name="e" unicode="e" horiz-adv-x="628" 
d="M295 -5c-44 -2.66699 -82.333 2.83496 -115 16.502s-60 32.334 -82 56.001s-38.833 50.834 -50.5 81.501s-18.167 62 -19.5 94c-2 48 2.5 92.833 13.5 134.5s27.667 78.5 50 110.5s50.166 57.833 83.499 77.5s71.333 31.5 114 35.5c29.333 2.66699 58.666 -1 87.999 -11
s56.333 -25.333 81 -46s45.5 -45.834 62.5 -75.501s28.167 -62.834 33.5 -99.501c2 -14 -1.83301 -27.167 -11.5 -39.5s-25.167 -22.166 -46.5 -29.499c-34.667 -10.667 -72.667 -19.334 -114 -26.001s-82.333 -12.667 -123 -18l-59 -8.5
c-16.667 -2.33301 -34.667 -5.16602 -54 -8.49902c5.33301 -44 20.833 -77.667 46.5 -101s59.5 -33.333 101.5 -30c12.667 1.33301 27.167 3.66602 43.5 6.99902s33 8.33301 50 15s33 15.167 48 25.5s27.5 23.166 37.5 38.499c6 9.33301 13.5 16.166 22.5 20.499
s17.833 6.5 26.5 6.5c10 0 19.5 -2.5 28.5 -7.5s16.333 -11.667 22 -20s9 -18 10 -29s-1.5 -22.5 -7.5 -34.5c-13.333 -22 -31.166 -41.167 -53.499 -57.5s-46.666 -30 -72.999 -41s-53 -19.5 -80 -25.5s-51.5 -9.66699 -73.5 -11zM296 489.002
c-40 -7.33301 -73.167 -23.168 -99.5 -47.501s-42.166 -54.5 -47.499 -90.5c12 0 31 1.83301 57 5.5s53.5 8 82.5 13s56.667 10.333 83 16s45.833 10.167 58.5 13.5c-6.66699 16 -15.334 29.833 -26.001 41.5s-22.167 21.334 -34.5 29.001s-25 13 -38 16
s-24.833 4.16699 -35.5 3.5z" />
    <glyph glyph-name="f" unicode="f" horiz-adv-x="633" 
d="M206 331c1.33301 -48 3.16309 -96.335 5.49609 -145.002s3.5 -97.334 3.5 -146.001c0 -18.667 -5.66699 -32 -17 -40s-24.333 -12 -39 -12c-15.333 0 -29.666 4.33301 -42.999 13s-20 19.667 -20 33c-0.666992 29.333 -1.16699 56.833 -1.5 82.5
s-0.833008 50.334 -1.5 74.001l-2 70l-2 70.5h-31c-17.333 0 -29.666 5 -36.999 15s-11 22 -11 36c0 15.333 4.33301 29.666 13 42.999s19.667 20.666 33 21.999h30c-0.666992 13.333 -0.833984 27.166 -0.500977 41.499s0.5 28.166 0.5 41.499v37
c0 12.667 0.333008 25.334 1 38.001c1.33301 38.667 8.5 72.834 21.5 102.501s30.5 54.334 52.5 74.001s47.833 34.167 77.5 43.5s61.834 13 96.501 11c20.667 -1.33301 42.667 -4.16602 66 -8.49902s46 -13 68 -26s42.833 -31.5 62.5 -55.5s36.167 -56 49.5 -96
c4 -11.333 4.83301 -21.333 2.5 -30s-6.5 -16 -12.5 -22s-13.333 -10.667 -22 -14s-17.334 -5 -26.001 -5c-10 0 -19.167 2.16699 -27.5 6.5s-14.166 11.833 -17.499 22.5v-1c-10 28.667 -22.5 51.334 -37.5 68.001s-30.333 29 -46 37s-30.834 12.833 -45.501 14.5
s-27 2.5 -37 2.5c-22 -0.666992 -40.167 -7 -54.5 -19s-25.666 -26.5 -33.999 -43.5s-14.166 -34.667 -17.499 -53s-5 -34.5 -5 -48.5l3 -117h52c34 0 68.333 0.333008 103 1s68 2.66699 100 6c20 1.33301 35.167 -4.66699 45.5 -18s15.5 -28.666 15.5 -45.999
c0 -14.667 -4.16699 -28 -12.5 -40s-21.166 -18.333 -38.499 -19z" />
    <glyph glyph-name="g" unicode="g" horiz-adv-x="609" 
d="M379 22c-15.333 -7.33301 -29.9971 -12.4961 -43.9971 -15.4961s-31.333 -4.5 -52 -4.5c-56 0 -106 17 -150 51s-75 83.667 -93 149c-4 14 -6.83301 27.667 -8.5 41s-2.5 26.666 -2.5 39.999c0 40 7.16699 78.667 21.5 116s33.666 70.166 57.999 98.499
s52.833 51.166 85.5 68.499s67.667 26 105 26c20 0 40 -2.66699 60 -8s40.333 -13.666 61 -24.999c2 15.333 8.5 26.166 19.5 32.499s23.167 9.5 36.5 9.5c15.333 0 29.666 -4.33301 42.999 -13s20 -19.667 20 -33c0.666992 -40 1.16699 -77.333 1.5 -112
s1.16602 -68.334 2.49902 -101.001c0.666992 -42.667 1.33398 -83.167 2.00098 -121.5s1 -77.5 1 -117.5c0 -16.667 -0.166992 -33.334 -0.5 -50.001s-0.5 -33.667 -0.5 -51c-0.666992 -42 -7.66699 -77.833 -21 -107.5s-31.333 -53.834 -54 -72.501s-49 -32.167 -79 -40.5
s-61.333 -11.833 -94 -10.5c-20.667 0.666992 -42.5 3.33398 -65.5 8.00098s-45.667 13.5 -68 26.5s-43.166 31.5 -62.499 55.5s-36 56 -50 96c-4 10.667 -4.66699 20.5 -2 29.5s7 16.5 13 22.5s13.167 10.667 21.5 14s16.833 5 25.5 5c10 0 19.333 -2.16699 28 -6.5
s14.667 -11.833 18 -22.5v1c10 -29.333 22.5 -52.166 37.5 -68.499s30.333 -28.5 46 -36.5s30.834 -12.833 45.501 -14.5s27 -2.5 37 -2.5c22 0.666992 40.167 7 54.5 19s25.666 26.5 33.999 43.5s14.166 34.667 17.499 53s5 34.5 5 48.5v6
c-8.66699 -5.33301 -17.334 -10.333 -26.001 -15s-17.667 -8.66699 -27 -12v1zM340.003 121.004c16.667 6 32.668 15 48.001 27s30 26 44 42c0 28.667 -0.166992 60.834 -0.5 96.501s-1.83301 75.5 -4.5 119.5c-20.667 23.333 -41.334 40 -62.001 50s-41 15 -61 15
c-22 0 -43 -5.33301 -63 -16s-37.5 -24.834 -52.5 -42.501s-26.833 -37.834 -35.5 -60.501s-13 -46.334 -13 -71.001c0 -8 0.333008 -15.833 1 -23.5s2 -15.167 4 -22.5c11.333 -39.333 29.333 -69.666 54 -90.999s53.667 -32 87 -32c9.33301 0 18.333 0.833008 27 2.5
s17.667 3.83398 27 6.50098z" />
    <glyph glyph-name="h" unicode="h" horiz-adv-x="644" 
d="M24 788l0.00585938 -1c-2.66699 19.333 1.5 33 12.5 41s24.167 12 39.5 12c13.333 0 26.166 -3.66699 38.499 -11s19.166 -17 20.499 -29c2 -17.333 4.66699 -46.833 8 -88.5s7.33301 -95.5 12 -161.5c30 18.667 61 34.167 93 46.5s64 18.166 96 17.499
c44.667 -0.666992 82 -9.33398 112 -26.001s54.333 -38.667 73 -66s32.334 -58.666 41.001 -93.999s14 -71.666 16 -108.999c2 -33.333 3 -67.333 3 -102c0 -36 -0.833008 -69 -2.5 -99s-3.16699 -54.667 -4.5 -74c-2.66699 -16 -9.83398 -28 -21.501 -36
s-24.5 -12 -38.5 -12c-8.66699 0 -17.167 1.66699 -25.5 5s-15.5 8 -21.5 14s-10.333 13.667 -13 23s-3 20 -1 32c5.33301 34 9.16602 72.5 11.499 115.5s1.83301 84.833 -1.5 125.5c-1.33301 24.667 -4.83301 48.5 -10.5 71.5s-14.167 43.167 -25.5 60.5
s-25.833 30.833 -43.5 40.5s-38.834 13.5 -63.501 11.5c-14.667 -1.33301 -29.667 -4.83301 -45 -10.5s-30.333 -13 -45 -22s-28.334 -19 -41.001 -30s-23.334 -22.167 -32.001 -33.5c2.66699 -36 5.5 -71.167 8.5 -105.5l8.5 -96.5
c2.66699 -30 5.33398 -57.167 8.00098 -81.5s5 -43.833 7 -58.5c2 -10 1.33301 -19 -2 -27s-8 -14.833 -14 -20.5s-13.167 -10 -21.5 -13s-16.833 -4.5 -25.5 -4.5c-13.333 0 -25.333 4 -36 12s-17.334 19.667 -20.001 35z" />
    <glyph glyph-name="i" unicode="i" horiz-adv-x="196" 
d="M146 741c6.66699 -10 9.1709 -20.335 7.50391 -31.002s-6.33398 -20.167 -14.001 -28.5s-17 -15.333 -28 -21s-22.167 -8.5 -33.5 -8.5c-10.667 0 -20.667 2.5 -30 7.5s-16.666 13.167 -21.999 24.5c-6 12.667 -8.33301 24.334 -7 35.001s5.16602 19.834 11.499 27.501
s14.666 13.667 24.999 18s21.166 6.5 32.499 6.5c10.667 0 21.167 -2.16699 31.5 -6.5s19.166 -11.833 26.499 -22.5v-1zM30.0039 577.998c1.33301 16 7.16699 28.332 17.5 36.999s22.166 13 35.499 13c14.667 0 28.667 -4.16699 42 -12.5s20.666 -18.833 21.999 -31.5
c1.33301 -15.333 2.33301 -37.833 3 -67.5s1.66699 -62.167 3 -97.5c0.666992 -31.333 1.66699 -64.166 3 -98.499s2.83301 -67.833 4.5 -100.5s3.5 -63.667 5.5 -93s4.33301 -54.333 7 -75c1.33301 -10 0.333008 -19 -3 -27s-8.16602 -14.667 -14.499 -20
s-13.666 -9.33301 -21.999 -12s-16.5 -4 -24.5 -4c-14 0 -27 4 -39 12s-18.667 20.333 -20 37z" />
    <glyph glyph-name="j" unicode="j" horiz-adv-x="227" 
d="M-45 -241c-19.333 1.33301 -38.499 4.8291 -57.499 10.4961s-36.667 14.334 -53 26.001s-31 26.667 -44 45s-22.833 40.5 -29.5 66.5c-2 8.66699 -1.5 16.667 1.5 24s7.83301 13.833 14.5 19.5s14.334 10.167 23.001 13.5s17 5 25 5
c10.667 0 20.334 -2.83301 29.001 -8.5s14.667 -14.834 18 -27.501c4 -17.333 13.333 -30.833 28 -40.5s38 -14.5 70 -14.5c21.333 0 37.833 6.16699 49.5 18.5s20.334 27.333 26.001 45s9.16699 36.167 10.5 55.5s2 36 2 50c0 52 -0.166992 98 -0.5 138s-1 79.5 -2 118.5
s-2.5 79.833 -4.5 122.5s-4.66699 92.667 -8 150c-0.666992 18.667 4.16602 32.167 14.499 40.5s22.5 12.5 36.5 12.5c15.333 0 29.5 -4.5 42.5 -13.5s19.5 -20.5 19.5 -34.5c0.666992 -50 1.83398 -96.667 3.50098 -140s3.5 -85.666 5.5 -126.999
c0.666992 -21.333 1.5 -42.666 2.5 -63.999s1.83301 -44.166 2.5 -68.499s1.16699 -50.666 1.5 -78.999s0.5 -59.833 0.5 -94.5c-0.666992 -39.333 -6.33398 -74.833 -17.001 -106.5s-25.834 -58.5 -45.501 -80.5s-43.334 -38.333 -71.001 -49s-58.834 -15 -93.501 -13z
M170.001 744.996c6.66699 -10 9.16797 -20.3311 7.50098 -30.998s-6.16699 -20.334 -13.5 -29.001s-16.5 -15.834 -27.5 -21.501s-22.167 -8.5 -33.5 -8.5c-10.667 0 -20.834 2.5 -30.501 7.5s-17.167 13.167 -22.5 24.5c-6 12.667 -8.16699 24.334 -6.5 35.001
s5.66699 20 12 28s14.5 14.167 24.5 18.5s20.667 6.5 32 6.5s22 -2.33301 32 -7s18.667 -12.334 26 -23.001z" />
    <glyph glyph-name="k" unicode="k" horiz-adv-x="654" 
d="M504 13l-177.501 165.501c-53 47 -105.167 84.5 -156.5 112.5c0.666992 -50.667 1.33398 -96.667 2.00098 -138s2 -73.333 4 -96c1.33301 -20 -5 -35.333 -19 -46s-29.333 -16 -46 -16c-14.667 0 -27.834 4 -39.501 12s-17.834 20.667 -18.501 38l-1 751
c-0.666992 17.333 4.5 29.833 15.5 37.5s23.833 11.5 38.5 11.5s28.834 -4.33301 42.501 -13s20.5 -19.334 20.5 -32.001c0 -11.333 0.166992 -29.666 0.5 -54.999s0.5 -55.333 0.5 -90v-50c0 -16 -0.166992 -32.167 -0.5 -48.5s-0.5 -33.333 -0.5 -51v-58.5
c37.333 21.333 79 48.5 125 81.5s92.333 68.5 139 106.5v-1c12.667 9.33301 26.334 12.666 41.001 9.99902s27.167 -8.66699 37.5 -18s16.833 -20.333 19.5 -33s-1.33301 -24 -12 -34c-39.333 -36 -81.5 -69.333 -126.5 -100l-130.5 -85c44 -30 83.5 -58.833 118.5 -86.5
s66.167 -53.5 93.5 -77.5s50.666 -45.833 69.999 -65.5l49 -51.5c12 -13.333 16.167 -27 12.5 -41s-11.167 -25.667 -22.5 -35s-24.666 -15 -39.999 -17s-28.333 2.33301 -39 13z" />
    <glyph glyph-name="l" unicode="l" horiz-adv-x="237" 
d="M39 795c1.33301 16 7.16992 28.334 17.5029 37.001s22.166 13 35.499 13c14.667 0 28.667 -4.16699 42 -12.5s20.666 -18.833 21.999 -31.5c1.33301 -16.667 2.66602 -45.834 3.99902 -87.501s3 -88.834 5 -141.501c2 -46 3.83301 -94.667 5.5 -146
s3.5 -100.666 5.5 -147.999s4 -90.5 6 -129.5s4.66699 -69.167 8 -90.5c2 -20 -4 -35.5 -18 -46.5s-29.333 -16.5 -46 -16.5c-14 0 -27 4 -39 12s-18.667 20.333 -20 37z" />
    <glyph glyph-name="m" unicode="m" horiz-adv-x="1055" 
d="M39 540l-0.00195312 -1.00098c-2 19.333 2.83301 33.333 14.5 42s25.167 13 40.5 13c12 0 23.667 -3.66699 35 -11s18.333 -16.666 21 -27.999l7 -46c27.333 24.667 56.666 44.5 87.999 59.5s63 22.167 95 21.5c40 0.666992 75.833 -8.33301 107.5 -27
s56.167 -43.334 73.5 -74.001c12 20 26.167 36.833 42.5 50.5s33.5 24.834 51.5 33.501s36.333 14.834 55 18.501s36.334 5.5 53.001 5.5c54.667 -1.33301 98.667 -15.5 132 -42.5s58.833 -64.667 76.5 -113s29.334 -105.833 35.001 -172.5s8.5 -140.334 8.5 -221.001
c0 -19.333 -6.5 -33.666 -19.5 -42.999s-27.167 -14 -42.5 -14s-28.833 4.66699 -40.5 14s-17.167 24 -16.5 44c2 36 3 71 3 105c0 44.667 -2 87.334 -6 128.001s-11.333 76.334 -22 107.001s-25.334 54.667 -44.001 72s-42.667 25.333 -72 24
c-15.333 -1.33301 -30.333 -5.83301 -45 -13.5s-28.167 -17.5 -40.5 -29.5s-22.833 -25.5 -31.5 -40.5s-14.667 -30.167 -18 -45.5c-4 -28 -6.83301 -55.5 -8.5 -82.5s-2.5 -53.167 -2.5 -78.5c0 -22 0.5 -43.833 1.5 -65.5s2.16699 -43.834 3.5 -66.501
c-0.666992 -17.333 -7 -31.333 -19 -42s-25.667 -16 -41 -16s-29 4.66699 -41 14s-18 23.666 -18 42.999c0.666992 12 1 25.333 1 40v45c0 14 -0.5 30.167 -1.5 48.5s-2.16699 37.666 -3.5 57.999s-3.16602 40.833 -5.49902 61.5s-4.83301 40.334 -7.5 59.001
c-7.33301 32.667 -21.666 58 -42.999 76s-44.333 26 -69 24c-14.667 -2 -29.334 -7.33301 -44.001 -16s-28.667 -18.834 -42 -30.501s-26 -24.167 -38 -37.5s-22.667 -26 -32 -38c0 -47.333 0.833008 -95.333 2.5 -144s6.83398 -98 15.501 -148
c3.33301 -20 -1.83398 -35.833 -15.501 -47.5s-29.167 -17.5 -46.5 -17.5c-13.333 0 -25.666 3.83301 -36.999 11.5s-18.333 19.5 -21 35.5z" />
    <glyph glyph-name="n" unicode="n" horiz-adv-x="606" 
d="M28 577l-0.00292969 -1.00195c-2.66699 18.667 1.83301 32.334 13.5 41.001s25.167 13 40.5 13c12.667 0 24.667 -3.5 36 -10.5s18.333 -16.167 21 -27.5l6 -46c27.333 24 57.166 43.833 89.499 59.5s64.5 23.167 96.5 22.5c38 -0.666992 69.833 -8.66699 95.5 -24
s46.834 -36.333 63.501 -63s29.334 -58.167 38.001 -94.5s15 -75.833 19 -118.5s6.5 -87.334 7.5 -134.001s1.83301 -93.667 2.5 -141c0 -19.333 -6.66699 -33.833 -20 -43.5s-27 -14.5 -41 -14.5c-14.667 0 -28.667 4.66699 -42 14s-20 24 -20 44
c1.33301 27.333 2.16602 58.166 2.49902 92.499s-0.666992 68.833 -3 103.5s-6.16602 68.5 -11.499 101.5s-12.666 61.833 -21.999 86.5s-21 43.834 -35 57.501s-31 18.834 -51 15.501c-14.667 -2 -29.167 -7.33301 -43.5 -16s-28 -18.667 -41 -30
s-25.333 -23.666 -37 -36.999s-22.167 -26 -31.5 -38c0 -54 0.833008 -108.667 2.5 -164s6.83398 -111.333 15.501 -168c2 -10 1.33301 -19 -2 -27s-8.33301 -14.833 -15 -20.5s-14.167 -10 -22.5 -13s-16.833 -4.5 -25.5 -4.5c-13.333 0 -25.5 3.83301 -36.5 11.5
s-17.833 19.167 -20.5 34.5z" />
    <glyph glyph-name="o" unicode="o" 
d="M618 295c-2 -42 -10.3291 -80.998 -24.9961 -116.998s-34.667 -67.333 -60 -94s-55.5 -47.667 -90.5 -63s-74.167 -23 -117.5 -23s-83.5 7.83301 -120.5 23.5s-68.5 38.667 -94.5 69s-45.833 67.333 -59.5 111s-18.5 93.167 -14.5 148.5
c2 33.333 9.83301 66.166 23.5 98.499s33.167 61.166 58.5 86.499s56.666 45.666 93.999 60.999s81 22.333 131 21c37.333 -1.33301 73.166 -9.5 107.499 -24.5s64.166 -36.333 89.499 -64s45.166 -61.167 59.499 -100.5s20.5 -83.666 18.5 -132.999zM152.004 333.002
c-4 -35.333 -1.33594 -67.668 7.99707 -97.001s23.5 -53.666 42.5 -72.999s41.5 -33.333 67.5 -42s53.667 -10 83 -4c22.667 4 42.834 11.167 60.501 21.5s32.834 23 45.501 38s22.667 32.167 30 51.5s12 39.666 14 60.999c2.66699 24.667 1 49.167 -5 73.5
s-15.833 46.333 -29.5 66s-31.167 35.834 -52.5 48.501s-45.666 19.667 -72.999 21c-14 0.666992 -31 -1 -51 -5s-39.667 -12 -59 -24s-36.5 -29 -51.5 -51s-24.833 -50.333 -29.5 -85z" />
    <glyph glyph-name="p" unicode="p" horiz-adv-x="650" 
d="M155 536c29.333 21.333 59.667 37.501 91 48.501s63.666 17.5 96.999 19.5c44.667 2 83.334 -4 116.001 -18s59.667 -34.167 81 -60.5s36.833 -58 46.5 -95s14.167 -77.833 13.5 -122.5c-1.33301 -44.667 -9 -84.834 -23 -120.501s-33.333 -66 -58 -91
s-54.167 -44.333 -88.5 -58s-72.166 -20.5 -113.499 -20.5c-24 0 -48.667 3.33301 -74 10s-50.333 16.334 -75 29.001v-15c0 -21.333 0.5 -42.833 1.5 -64.5s2.83301 -43.5 5.5 -65.5c1.33301 -12.667 2.5 -26.167 3.5 -40.5s2.16699 -29.166 3.5 -44.499
c1.33301 -18.667 -4.33398 -33 -17.001 -43s-26.667 -15 -42 -15c-14.667 0 -27.667 4.16699 -39 12.5s-17.666 21.166 -18.999 38.499c-1.33301 13.333 -2.5 37.166 -3.5 71.499l-3.5 120.5c-2 45.333 -4 94.166 -6 146.499l-6 152c-2 49 -4.33301 93.667 -7 134
s-5.33398 71.5 -8.00098 93.5c-2 20.667 4 36.334 18 47.001s29.333 16 46 16c14 0 27 -4 39 -12s18.667 -20.333 20 -37zM485.001 305.001c1.33301 20.667 0.500977 41.668 -2.49902 63.001s-9 41 -18 59s-21 33.333 -36 46s-33.5 20.667 -55.5 24
c-17.333 0.666992 -37 -1.33301 -59 -6s-43.5 -12.167 -64.5 -22.5s-39.667 -23 -56 -38s-27.833 -31.833 -34.5 -50.5c-1.33301 -25.333 -1 -50.5 1 -75.5l6 -75.5l2 -29c20.667 -20 43.667 -35.5 69 -46.5s50 -16.5 74 -16.5c22 0 43 3.66699 63 11s38 18.166 54 32.499
s29.167 32 39.5 53s16.166 44.833 17.499 71.5z" />
    <glyph glyph-name="q" unicode="q" horiz-adv-x="686" 
d="M474 570c1.33301 19.333 8.83301 33.665 22.5 42.998s28.5 14 44.5 14c15.333 0 28.833 -4.66699 40.5 -14s17.167 -23.666 16.5 -42.999c-1.33301 -15.333 -2.33301 -35 -3 -59s-1.33398 -51 -2.00098 -81s-1 -62.167 -1 -96.5v-105.5c0 -48 0.166992 -94.5 0.5 -139.5
s0.5 -86.5 0.5 -124.5l10 12c3.33301 4 6.66602 7.66699 9.99902 11c13.333 8.66699 25.5 12.667 36.5 12s20.5 -4 28.5 -10s14.167 -13.833 18.5 -23.5s6.5 -19.5 6.5 -29.5c0 -16.667 -6.33301 -29.667 -19 -39l-91 -107c-4 -4.66699 -11.667 -9 -23 -13
s-21.666 -6 -30.999 -6c-13.333 0 -25 3.66699 -35 11s-15.667 20.333 -17 39c-1.33301 30.667 -2.33301 59.834 -3 87.501l-2 83.5l-2 77c-31.333 -22.667 -62 -39.167 -92 -49.5s-60.333 -15.5 -91 -15.5c-32.667 0 -64 5.83301 -94 17.5s-56.667 28.5 -80 50.5
s-42.166 48.5 -56.499 79.5s-22.5 65.833 -24.5 104.5c-2 42 0.333008 82.167 7 120.5s19.334 72.833 38.001 103.5s43.667 55.667 75 75s70.666 31 117.999 35c6 0.666992 12.5 1.16699 19.5 1.5s13.167 0.5 18.5 0.5c55.333 0 107 -14 155 -42zM148 267.999
c2 -24 7.66699 -45.5 17 -64.5s21 -35 35 -48s29.833 -23 47.5 -30s36.167 -10.5 55.5 -10.5c29.333 0 59 7.66699 89 23s58 40.666 84 75.999c0 15.333 0.166992 29.833 0.5 43.5l1 41c0.333008 13.667 0.5 28.334 0.5 44.001v52.5c-8 18.667 -20.333 34.334 -37 47.001
s-35.167 22.5 -55.5 29.5s-41.666 11.167 -63.999 12.5s-42.833 -0.333984 -61.5 -5.00098c-24.667 -6 -44.834 -16.167 -60.501 -30.5s-27.667 -31.333 -36 -51s-13.5 -40.667 -15.5 -63s-2 -44.5 0 -66.5z" />
    <glyph glyph-name="r" unicode="r" horiz-adv-x="585" 
d="M28 576c-1.33301 17.333 3.5 30.667 14.5 40s24.167 14 39.5 14c12.667 0 24.667 -3.5 36 -10.5s18.333 -16.167 21 -27.5l6 -46c27.333 24 56.5 43.5 87.5 58.5s62.5 22.5 94.5 22.5c24 0.666992 48.167 -4 72.5 -14s46.666 -23.833 66.999 -41.5s38 -39 53 -64
s24.833 -52.167 29.5 -81.5c3.33301 -24.667 -2 -43 -16 -55s-29.333 -18 -46 -18c-14 0 -26.5 3.83301 -37.5 11.5s-17.833 18.167 -20.5 31.5c-5.33301 24 -12.333 43.667 -21 59s-18.167 27.166 -28.5 35.499s-21.166 13.833 -32.499 16.5s-22.333 3.66699 -33 3
c-14 -1.33301 -28.333 -6.16602 -43 -14.499s-28.667 -18.333 -42 -30s-26 -24.167 -38 -37.5s-22.667 -26 -32 -38c2.66699 -36 5.5 -70.833 8.5 -104.5l8.5 -93.5c2.66699 -28.667 5.33398 -54.667 8.00098 -78s5 -42.333 7 -57c2 -10 1.33301 -19 -2 -27
s-8 -14.833 -14 -20.5s-13.167 -10 -21.5 -13s-16.833 -4.5 -25.5 -4.5c-13.333 0 -25.333 3.83301 -36 11.5s-17.334 19.5 -20.001 35.5z" />
    <glyph glyph-name="s" unicode="s" horiz-adv-x="597" 
d="M202 1c-28 4 -52.3281 12.1641 -72.9951 24.4971s-38.167 27 -52.5 44s-25.5 35.167 -33.5 54.5s-13 38.666 -15 57.999c-2.66699 21.333 2 36.833 14 46.5s26 14.5 42 14.5c11.333 0 22.166 -2.66699 32.499 -8s17.5 -13.666 21.5 -24.999l5 -16
c2.66699 -8 6.16699 -16.667 10.5 -26s10 -18.333 17 -27s15.833 -16 26.5 -22s24 -10 40 -12c18.667 -2 40.167 -1.5 64.5 1.5s46.666 8.83301 66.999 17.5s37 19.834 50 33.501s18.167 30.167 15.5 49.5c-3.33301 14.667 -9.83301 26.334 -19.5 35.001
s-21.334 15.5 -35.001 20.5s-28.667 8.5 -45 10.5s-32.833 3.66699 -49.5 5c-17.333 1.33301 -34.833 3 -52.5 5s-34.834 5.66699 -51.501 11c-34 11.333 -61.667 27.333 -83 48s-36.666 42.667 -45.999 66c-2.66699 8 -4.83398 16.5 -6.50098 25.5s-2.5 17.833 -2.5 26.5
c0 40 15.333 74.333 46 103h-1c20.667 19.333 45.5 33.333 74.5 42s58.5 13 88.5 13c8.66699 0 17.5 -0.333008 26.5 -1s17.167 -1.66699 24.5 -3c32 -6.66699 63.333 -17.5 94 -32.5s59 -35.5 85 -61.5c13.333 -13.333 18.666 -26.5 15.999 -39.5
s-9.16699 -23.833 -19.5 -32.5s-22.666 -14 -36.999 -16s-26.5 1 -36.5 9c-22 18.667 -43.833 33.834 -65.5 45.501s-41.834 18.834 -60.501 21.501c-8 0.666992 -17 0.666992 -27 0s-20 -2 -30 -4s-19.5 -4.83301 -28.5 -8.5s-16.5 -8.16699 -22.5 -13.5
s-9.66699 -11.5 -11 -18.5s-0.666016 -14.5 2.00098 -22.5c5.33301 -13.333 16.5 -25.833 33.5 -37.5s37.833 -18.834 62.5 -21.501l31 -3h-1c22.667 -1.33301 46.5 -3.33301 71.5 -6s49 -7.5 72 -14.5s43.667 -17.167 62 -30.5s32.166 -31.333 41.499 -54
c10 -26 15 -51 15 -75c0 -33.333 -8.83301 -62.833 -26.5 -88.5s-40.5 -47 -68.5 -64s-59.333 -29.833 -94 -38.5s-69 -13 -103 -13c-10 0 -19.667 0.333008 -29 1s-18 1.66699 -26 3z" />
    <glyph glyph-name="t" unicode="t" horiz-adv-x="612" 
d="M195 610l-4.00098 184.002c-0.666992 17.333 4.33301 29.833 15 37.5s23 11.5 37 11.5c14.667 0 28.334 -4.5 41.001 -13.5s19.667 -20.167 21 -33.5l5 -186h220c17.333 -0.666992 29.333 -6 36 -16s10 -21 10 -33c0 -7.33301 -1.33301 -14.833 -4 -22.5
s-6.16699 -14.5 -10.5 -20.5s-9.66602 -11 -15.999 -15s-13.166 -5.66699 -20.499 -5l-214 1l2 -139c0.666992 -46.667 1.66699 -90.834 3 -132.501s2.83301 -79.334 4.5 -113.001s3.5 -60.167 5.5 -79.5c0 -21.333 -6.83301 -36.833 -20.5 -46.5
s-27.834 -14.5 -42.501 -14.5c-14 0 -27 3.83301 -39 11.5s-18.667 20.167 -20 37.5l-8 475h-143c-18.667 0 -32.334 5.83301 -41.001 17.5s-13 24.5 -13 38.5s4.33301 26.833 13 38.5s22 17.5 40 17.5h143z" />
    <glyph glyph-name="u" unicode="u" horiz-adv-x="663" 
d="M474 118c-14 -12.667 -29.6641 -25.332 -46.9971 -37.999s-35.666 -24 -54.999 -34s-39.5 -18.167 -60.5 -24.5s-41.833 -9.5 -62.5 -9.5c-24.667 0 -48.667 4.33301 -72 13c-25.333 10 -46.666 24.833 -63.999 44.5s-31.333 42.5 -42 68.5s-18.334 54.333 -23.001 85
s-7 62.334 -7 95.001c0 18.667 0.833008 38.334 2.5 59.001s4 41.334 7 62.001s6.5 40.5 10.5 59.5s8 36.5 12 52.5c4 11.333 11.333 20 22 26s21.667 9 33 9c8.66699 0 17.167 -1.33301 25.5 -4s15.333 -6.83398 21 -12.501s9.66699 -12.667 12 -21s1.5 -18.5 -2.5 -30.5
c-8 -26 -15 -57.333 -21 -94s-9 -74 -9 -112c0 -22 1.33301 -43.5 4 -64.5s7.16699 -39.833 13.5 -56.5s14.666 -30.667 24.999 -42s22.833 -18.666 37.5 -21.999c19.333 -3.33301 40.166 -0.833008 62.499 7.5s43.833 19.166 64.5 32.499s39.667 28.166 57 44.499
s31 31.5 41 45.5l-29 276v-1c-2 9.33301 -1.66699 17.333 1 24s6.66699 12.167 12 16.5s11.666 7.5 18.999 9.5s15 3 23 3c14 0 27.167 -3.5 39.5 -10.5s19.5 -16.167 21.5 -27.5l8 -68c3.33301 -28.667 6.66602 -60 9.99902 -94c2.66699 -27.333 5.66699 -55.333 9 -84
s6.83301 -56.834 10.5 -84.501l10.5 -80c3.33301 -25.667 7 -48.5 11 -68.5c2 -10.667 1.33301 -20.167 -2 -28.5s-8.16602 -15.5 -14.499 -21.5s-13.833 -10.5 -22.5 -13.5s-17.334 -4.5 -26.001 -4.5c-13.333 0 -25.5 3.66699 -36.5 11s-17.833 18.666 -20.5 33.999z" />
    <glyph glyph-name="v" unicode="v" horiz-adv-x="648" 
d="M379 24c-4 -9.33301 -10.9971 -16.667 -20.9971 -22s-20.333 -8 -31 -8c-11.333 0 -21.833 2.5 -31.5 7.5s-16.834 12.167 -21.501 21.5l-236 486c-5.33301 11.333 -6.83301 21.5 -4.5 30.5s6.83301 16.833 13.5 23.5s14.834 11.667 24.501 15s19.167 5 28.5 5
s17.666 -1.66699 24.999 -5s13 -8.33301 17 -15c7.33301 -13.333 17.333 -32.833 30 -58.5l42 -86.5l55 -116c16.667 -35.333 35.334 -72.333 56.001 -111l47.5 107.5l46.5 111.5h-1l43 103.5c13.333 31 24.666 55.167 33.999 72.5c4 6.66699 9.66699 11.667 17 15
s15.666 5 24.999 5s18.666 -1.83301 27.999 -5.5s17.333 -8.83398 24 -15.501s11 -14.667 13 -24s0.666992 -19.666 -4 -30.999z" />
    <glyph glyph-name="w" unicode="w" horiz-adv-x="864" 
d="M419 287l-43.0049 -130.501l-44 -129.5c-3.33301 -10.667 -11.833 -18.667 -25.5 -24s-27.167 -8 -40.5 -8s-25.166 2.16699 -35.499 6.5s-17.5 11.5 -21.5 21.5l-180 521c-3.33301 10.667 -3.5 20.334 -0.5 29.001s7.83301 16.167 14.5 22.5s14.5 11.166 23.5 14.499
s18.167 5 27.5 5s18 -1.83301 26 -5.5s14 -9.5 18 -17.5c6 -13.333 13.667 -33.833 23 -61.5l30 -92.5l38 -125c11.333 -38.667 25 -77.334 41 -116.001c19.333 54 36.833 105.167 52.5 153.5l40.5 129.5c4.66699 12 12.334 21.333 23.001 28s22 10 34 10
c10 0 20.333 -3.66699 31 -11s18.667 -15.666 24 -24.999c6.66699 -18.667 13.834 -40.167 21.501 -64.5l23.5 -74.5l12 -38l9.5 -31l10 -32c3.66699 -11.333 8.5 -25.333 14.5 -42c14 36 27.667 75.5 41 118.5l37 123.5l28.5 93c8.33301 26.667 15.5 47.334 21.5 62.001
c4 8 10 13.833 18 17.5s16.667 5.5 26 5.5s18.833 -1.66699 28.5 -5s17.834 -8 24.501 -14s11.334 -13.333 14.001 -22s2 -18.667 -2 -30v1l-176 -526c-4 -9.33301 -11.167 -16.333 -21.5 -21s-21.5 -7 -33.5 -7c-13.333 0 -26.833 2.66699 -40.5 8s-22.5 13.333 -26.5 24z
" />
    <glyph glyph-name="x" unicode="x" horiz-adv-x="637" 
d="M387 298l76 -79.999l54 -58.5l36.5 -40.5l24.5 -27c9.33301 -10 13.833 -20.833 13.5 -32.5s-3.66602 -22.334 -9.99902 -32.001s-14.833 -17.667 -25.5 -24s-21.334 -9.5 -32.001 -9.5c-16.667 0 -30.334 6.66699 -41.001 20l-174 196l-87 -97.5l-86 -98.5l1 1
c-12.667 -14.667 -27 -22 -43 -22c-10.667 0 -20.667 3 -30 9s-16.666 13.5 -21.999 22.5s-8 19 -8 30s4 21.5 12 31.5l67 75l57.5 64l63.5 72l-102 115l-101 116c-8.66699 14 -9.83398 26.833 -3.50098 38.5s15.833 20.667 28.5 27s26.334 9.33301 41.001 9
s25.667 -5.5 33 -15.5l60.5 -77c30.333 -38 69.833 -81 118.5 -129l60.5 69l53.5 61.5l42.5 50.5l28.5 34c9.33301 10 21.333 14 36 12s27.667 -7.16699 39 -15.5s19.5 -19 24.5 -32s2.5 -25.5 -7.5 -37.5z" />
    <glyph glyph-name="y" unicode="y" horiz-adv-x="660" 
d="M377 196l65.001 178.494l64 177.5v-1c5.33301 16.667 14.833 27.167 28.5 31.5s27.334 4.33301 41.001 0s25 -12.666 34 -24.999s11.5 -26.833 7.5 -43.5l-33 -89l-36.5 -99l-42.5 -117l-44 -123l-41 -117l-34 -99c-10 -29.333 -17.333 -52.666 -22 -69.999
c-4 -13.333 -11.333 -23.5 -22 -30.5s-21.667 -10.5 -33 -10.5c-9.33301 0 -18.5 1.83301 -27.5 5.5s-16.833 8.66699 -23.5 15s-11.334 14 -14.001 23s-2.33398 18.833 0.999023 29.5l80 220l-195 302c-47.333 72.667 -78.333 119.334 -93 140.001
c-10.667 15.333 -13.667 30.333 -9 45s13 26.334 25 35.001s25.5 12.834 40.5 12.501s27.5 -8.16602 37.5 -23.499z" />
    <glyph glyph-name="z" unicode="z" horiz-adv-x="582" 
d="M504 4c-90 -2 -161.829 -3.49609 -215.496 -4.49609s-94.834 -1.83301 -123.501 -2.5s-47.834 -0.833984 -57.501 -0.500977s-15.834 0.5 -18.501 0.5c-16.667 2 -30 8.5 -40 19.5s-15 23.833 -15 38.5c0 15.333 5.33301 28.666 16 39.999l86 96.5l81 92.5l81 92.5
l86 97.5c-51.333 -2 -102 -4.16699 -152 -6.5s-100.333 -4.5 -151 -6.5c-18 -0.666992 -31 4.16602 -39 14.499s-12 22.166 -12 35.499s4.16699 26 12.5 38s18.833 18.333 31.5 19l74 3c22.667 0.666992 47.5 1.5 74.5 2.5s54.667 2.16699 83 3.5s56.666 2.83301 84.999 4.5
s55.5 4.16699 81.5 7.5c8.66699 0.666992 17 -0.833008 25 -4.5s15 -8.83398 21 -15.501s10.667 -14.334 14 -23.001s5 -17.334 5 -26.001c0 -16.667 -5.66699 -32.667 -17 -48l-73.5 -88.5l-83.5 -97l-84.5 -96.5l-76.5 -86c46 0 93.667 0.833008 143 2.5
s97.333 4.83398 144 9.50098c9.33301 0.666992 18 -0.666016 26 -3.99902s14.833 -8 20.5 -14s10.167 -12.667 13.5 -20s5 -14.666 5 -21.999c0 -13.333 -4 -25 -12 -35s-20 -15.667 -36 -17h-2z" />
    <glyph glyph-name="braceleft" unicode="{" horiz-adv-x="384" 
d="M270 -136c-54 4.66699 -97.3359 24.335 -130.003 59.002s-49.667 84.334 -51 149.001c-0.666992 16 0.833008 33.167 4.5 51.5l11.5 57.5c4 20 7.66699 39.667 11 59s5 37 5 53s-2.33301 30.5 -7 43.5s-12.667 22.5 -24 28.5c-30 15.333 -45 37.333 -45 66
c0 11.333 2.83301 22.5 8.5 33.5s14.834 21.5 27.501 31.5v-1c16.667 13.333 27.834 31.666 33.501 54.999s8.5 47.333 8.5 72c0 25.333 -2 48.833 -6 70.5s-6.33301 35.834 -7 42.501c-1.33301 5.33301 -2.33301 10.666 -3 15.999s-1 11.666 -1 18.999
c0 21.333 4 42.333 12 63s19.333 39.167 34 55.5s32.334 29.5 53.001 39.5s43.667 15 69 15c12.667 0 23.667 -1 33 -3c11.333 -2 20.166 -8.33301 26.499 -19s9.5 -22.334 9.5 -35.001c0 -14 -3.66699 -26.5 -11 -37.5s-18 -15.833 -32 -14.5
c-10.667 0.666992 -21 -0.833008 -31 -4.5s-18.667 -9 -26 -16s-13.166 -15.167 -17.499 -24.5s-6.16602 -19.333 -5.49902 -30l7 -38c4 -21.333 7.5 -43 10.5 -65s4.5 -44.667 4.5 -68c0 -28.667 -3.66699 -56.167 -11 -82.5s-21 -50.5 -41 -72.5
c21.333 -19.333 35.666 -40 42.999 -62s11 -45.667 11 -71c0 -18.667 -1.83301 -38.167 -5.5 -58.5s-7.83398 -41.166 -12.501 -62.499c-4 -16 -7.33301 -31.833 -10 -47.5s-4.66699 -32.167 -6 -49.5c-0.666992 -10 -0.166992 -21.167 1.5 -33.5s5 -23.833 10 -34.5
s11.833 -19.167 20.5 -25.5s19 -8.83301 31 -7.5h-1c8 1.33301 15.5 0.333008 22.5 -3s12.833 -8 17.5 -14s8.33398 -12.833 11.001 -20.5s4 -15.5 4 -23.5c0 -15.333 -4.33301 -28.833 -13 -40.5s-23 -16.834 -43 -15.501h-1z" />
    <glyph glyph-name="bar" unicode="|" horiz-adv-x="743" 
d="M244 743c0 16.667 3.3291 32.4961 9.99609 47.4961s15.5 28 26.5 39s23.833 19.833 38.5 26.5s30.334 10 47.001 10c14.667 0 29.334 -2.83301 44.001 -8.5s28 -15.167 40 -28.5c9.33301 -12.667 17 -25.5 23 -38.5s9 -28.833 9 -47.5c0 -18 -6.16699 -37 -18.5 -57
s-28.166 -35.667 -47.499 -47l1 -13c9.33301 1.33301 18.333 2.5 27 3.5s17.667 1.83301 27 2.5c5.33301 0.666992 10.166 0 14.499 -2s6.5 -7.66699 6.5 -17v-62c1.33301 -9.33301 -0.5 -15 -5.5 -17s-10.167 -2.66699 -15.5 -2l-49 4l11 -176
c2 -31.333 3.66699 -53.666 5 -66.999s2 -21.666 2 -24.999c17.333 8 33.333 17.667 48 29s27.667 22.666 39 33.999c-6.66699 1.33301 -10.334 2 -11.001 2l-19 6c-7.33301 3.33301 -11.5 8.33301 -12.5 15s1.5 12.667 7.5 18l106 90
c5.33301 4.66699 10.833 6.33398 16.5 5.00098s9.83398 -5 12.501 -11l51 -107c4.66699 -9.33301 7.5 -16.833 8.5 -22.5s0.666992 -10.167 -1 -13.5s-4 -5.5 -7 -6.5s-6.16699 -1.5 -9.5 -1.5c-6 1.33301 -11.667 3 -17 5c-4.66699 1.33301 -9.16699 2.5 -13.5 3.5
s-8.16602 1.5 -11.499 1.5c-5.33301 -30.667 -19.833 -62.167 -43.5 -94.5s-58.5 -63.5 -104.5 -93.5l-28.5 -18.5c-9.66699 -6.33301 -18.667 -13.666 -27 -21.999s-16.166 -18.166 -23.499 -29.499s-13.666 -25 -18.999 -41c-1.33301 -4 -3.83301 -7.5 -7.5 -10.5
s-7.33398 -4.5 -11.001 -4.5s-7.16699 1.33301 -10.5 4s-5.66602 7.66699 -6.99902 15c-3.33301 19.333 -10 35.666 -20 48.999s-20.667 24.333 -32 33c-12.667 10 -26.667 18.333 -42 25c-37.333 14.667 -68.833 38.5 -94.5 71.5s-42.5 72.5 -50.5 118.5
c-8 -2 -16.5 -4 -25.5 -6s-16.667 -2.83301 -23 -2.5s-11 2.33301 -14 6s-2.83301 10.5 0.5 20.5l61 122c2.66699 6 7 9.5 13 10.5s11.333 -0.833008 16 -5.5l84 -71c16.667 -14 26.5 -25.5 29.5 -34.5s-1.16699 -14.5 -12.5 -16.5l-35 -6
c11.333 -12 24.833 -24.333 40.5 -37s32.834 -22 51.501 -28l6 78c2 32 3.83301 63.833 5.5 95.5s3.5 62.834 5.5 93.501l-53 -4c-8.66699 -0.666992 -14.334 1 -17.001 5s-4 8.66699 -4 14l2 71c0 2 0.666992 4 2 6c1.33301 1.33301 3.33301 2.5 6 3.5s7 0.833008 13 -0.5
s14.167 -2.5 24.5 -3.5s21.166 -1.83301 32.499 -2.5v13c-47.333 20.667 -71 55.667 -71 105zM326.996 742.996c0 -9.33301 3.33301 -17.5 10 -24.5s14.667 -10.5 24 -10.5s17.333 3.5 24 10.5s10 15.167 10 24.5c0 10 -3.33301 18.167 -10 24.5s-14.667 9.5 -24 9.5
s-17.333 -3.16699 -24 -9.5s-10 -14.5 -10 -24.5z" />
    <glyph glyph-name="braceright" unicode="}" horiz-adv-x="374" 
d="M109 -136c-20 -1.33301 -34.335 3.83594 -43.002 15.5029s-13 25.167 -13 40.5c0 8 1.33301 15.833 4 23.5s6.33398 14.5 11.001 20.5s10.5 10.667 17.5 14s14.5 4.33301 22.5 3h-1c12 -1.33301 22.167 1.16699 30.5 7.5s15 14.833 20 25.5s8.5 22.167 10.5 34.5
s2.66699 23.5 2 33.5c-0.666992 14.667 -2.66699 30.167 -6 46.5s-7 33.166 -11 50.499l-11.5 59.5c-3.66699 19.667 -5.5 40.167 -5.5 61.5c0 24.667 3.83301 48.167 11.5 70.5s22.167 43.166 43.5 62.499c-20.667 22 -34.667 46.167 -42 72.5s-11 53.833 -11 82.5
c0 23.333 1.66699 46 5 68l10 65l7 38c0.666992 10.667 -1 20.667 -5 30s-9.83301 17.5 -17.5 24.5s-16.334 12.333 -26.001 16s-19.834 5.16699 -30.501 4.5c-14.667 -1.33301 -25.5 3.5 -32.5 14.5s-10.5 23.5 -10.5 37.5c0 12.667 3 24.334 9 35.001s14.667 17 26 19
c10 2 21 3 33 3c28 0 53.167 -6 75.5 -18s41 -27.667 56 -47s25.5 -41.5 31.5 -66.5s6.33301 -50.5 1 -76.5c-1.33301 -6 -3.83301 -19.333 -7.5 -40s-5.5 -45 -5.5 -73c0 -24.667 3.33301 -49 10 -73s17.334 -41.667 32.001 -53c12.667 -10 21.834 -20.5 27.501 -31.5
s8.5 -22.167 8.5 -33.5c0 -27.333 -15.333 -49.333 -46 -66c-11.333 -5.33301 -19.166 -14.5 -23.499 -27.5s-6.5 -27.833 -6.5 -44.5c0 -16 1.66699 -33.667 5 -53s7.33301 -39 12 -59c3.33301 -20 6.83301 -39.167 10.5 -57.5s5.16699 -35.833 4.5 -52.5v1
c-1.33301 -64.667 -18.333 -114.334 -51 -149.001s-76 -54.334 -130 -59.001h-1z" />
    <glyph glyph-name="asciitilde" unicode="~" horiz-adv-x="672" 
d="M167 308c-3.33301 -11.333 -8.83594 -19.335 -16.5029 -24.002s-16.167 -7 -25.5 -7c-8.66699 0 -17.167 2.33301 -25.5 7s-15.5 10.667 -21.5 18s-10.167 15.333 -12.5 24s-1.83301 16.667 1.5 24c8 16 16.833 32.5 26.5 49.5s20.834 32.667 33.501 47
s27.334 26.5 44.001 36.5s36.334 16.667 59.001 20c35.333 4 65.833 -0.5 91.5 -13.5s51.5 -33.5 77.5 -61.5l20 -21c6 -6 11.667 -9.33301 17 -10c6.66699 -1.33301 13 -0.166016 19 3.50098s12 8.66699 18 15s11.667 13.666 17 21.999l16 24.5
c6 8.66699 15.333 13.667 28 15s25 0 37 -4s21.833 -10.667 29.5 -20s9.5 -20.333 5.5 -33c-6.66699 -21.333 -16.834 -40.5 -30.501 -57.5s-28.5 -31.5 -44.5 -43.5s-32.333 -21.167 -49 -27.5s-31.667 -9.5 -45 -9.5s-25.333 1.83301 -36 5.5s-20.667 8.83398 -30 15.501
s-18 14 -26 22l-24 25c-12.667 13.333 -25.167 25.5 -37.5 36.5s-25.5 14.833 -39.5 11.5h1c-8 -1.33301 -19.667 -8.16602 -35 -20.499s-29.666 -35.5 -42.999 -69.5z" />
    <glyph glyph-name="exclamdown" unicode="&#xa1;" horiz-adv-x="208" 
d="M149.003 777.001c7.33301 -9.99902 9.99609 -20.332 7.99609 -30.998c-1.99902 -10.666 -6.83203 -20.332 -14.499 -28.998c-7.66602 -8.66602 -17.165 -15.832 -28.498 -21.499c-11.333 -5.66602 -22.666 -8.49902 -33.999 -8.49902
c-10.666 0 -20.832 2.66699 -30.498 8s-17.165 13.666 -22.498 24.999c-6 12.666 -8.16699 24.332 -6.5 34.998s5.66699 19.999 12 27.998s14.666 14.165 24.999 18.498s21.166 6.5 32.499 6.5s22.166 -2.33301 32.499 -7s19.166 -12.333 26.499 -22.999v-1z
M31.0068 613.012c0 17.999 5.33301 30.8291 15.999 38.4951c10.666 7.66699 23.332 11.5 37.998 11.5s28.832 -4.16699 42.4971 -12.5c13.666 -8.33301 21.166 -18.832 22.499 -31.498c1.33301 -16.665 2.33301 -42.1631 3 -76.4941s1.66699 -73.1621 3 -116.493
l1.99902 -114.492c0.666992 -39.665 1.5 -77.9961 2.5 -114.993c1 -36.998 2.5 -71.4961 4.5 -103.494s4.33301 -58.6631 7 -79.9951c1.33301 -9.99902 0.166016 -18.998 -3.5 -26.9971c-3.66699 -7.99902 -8.66699 -14.832 -15 -20.499
c-6.33301 -5.66602 -13.666 -9.83203 -21.999 -12.499s-16.499 -4 -24.498 -4c-14.666 0 -27.999 4 -39.998 11.999c-11.999 8 -18.665 20.666 -19.998 37.998z" />
    <glyph glyph-name="cent" unicode="&#xa2;" horiz-adv-x="609" 
d="M244 116c-44 10 -83.4971 31.6689 -118.497 65.002s-59.833 77.666 -74.5 132.999c-4.66699 16.667 -8 33.5 -10 50.5s-3 34.167 -3 51.5c0 52 9.83301 103 29.5 153s49.167 92 88.5 126c9.33301 8 19.666 15 30.999 21s23 11.333 35 16l-2 71
c1.33301 16 7.16602 28.333 17.499 37s22.5 13 36.5 13c14.667 0 28.834 -4.16699 42.501 -12.5s21.167 -19.166 22.5 -32.499c0.666992 -7.33301 1.16699 -15.666 1.5 -24.999l1.5 -43c38.667 -7.33301 74.667 -22 108 -44s58.666 -50 75.999 -84
c5.33301 -11.333 7.33301 -22.333 6 -33s-5 -20 -11 -28s-13.5 -14.5 -22.5 -19.5s-18.5 -7.5 -28.5 -7.5c-18.667 0 -33.667 7.66699 -45 23c-13.333 17.333 -26.833 31.5 -40.5 42.5s-26.834 19.167 -39.501 24.5c0.666992 -17.333 1.5 -34.5 2.5 -51.5
s1.83301 -34.167 2.5 -51.5c1.33301 -46 2.83301 -93.167 4.5 -141.5s3.5 -93.5 5.5 -135.5c22.667 9.33301 43.667 22.833 63 40.5s38 39.167 56 64.5v-1c6 9.33301 13 16.166 21 20.499s16 6.5 24 6.5c10 0 19.333 -3.16699 28 -9.5s15.667 -14.5 21 -24.5
s8 -20.833 8 -32.5s-3.33301 -22.834 -10 -33.501c-9.33301 -15.333 -19.5 -30 -30.5 -44s-24.5 -27.167 -40.5 -39.5s-34.833 -24 -56.5 -35s-47.167 -21.167 -76.5 -30.5c1.33301 -12.667 2.33301 -24 3 -34s1.66699 -19.333 3 -28
c1.33301 -10.667 0.166016 -20 -3.50098 -28s-8.66699 -14.833 -15 -20.5s-13.666 -9.83398 -21.999 -12.501s-16.5 -4 -24.5 -4c-14.667 0 -28 4.16699 -40 12.5s-18.667 20.833 -20 37.5zM166.003 353.002c12.667 -54.667 37.333 -91.667 74 -111l-13 355
c-23.333 -21.333 -41 -47.333 -53 -78s-18 -62 -18 -94c0 -12.667 0.833008 -25 2.5 -37s4.16699 -23.667 7.5 -35z" />
    <glyph glyph-name="sterling" unicode="&#xa3;" horiz-adv-x="805" 
d="M218 -7c-22.667 -18.667 -45.8398 -27.3291 -69.5068 -25.9961s-44 9.5 -61 24.5s-28.667 34.833 -35 59.5s-3.83301 51 7.5 79c10.667 26 28 48 52 66s51.667 26.667 83 26c2.66699 18.667 5.5 37.334 8.5 56.001s5.5 38.667 7.5 60h-24
c-17.333 -0.666992 -29.666 4.16602 -36.999 14.499s-11 22.5 -11 36.5c0 15.333 4.5 29.666 13.5 42.999s20.167 20.666 33.5 21.999c6 0.666992 12 1 18 1h23c8.66699 58 19.334 110.333 32.001 157s28 86.667 46 120s39.333 60 64 80s53.667 32.333 87 37
c22 2 44.333 -0.166992 67 -6.5s43.167 -17.666 61.5 -33.999s33.5 -37.666 45.5 -63.999s18 -58.5 18 -96.5c0 -17.333 -5 -30 -15 -38s-21.667 -12 -35 -12c-15.333 0 -29.666 5.66699 -42.999 17s-20.333 24.333 -21 39c1.33301 19.333 -0.666992 34.666 -6 45.999
s-12 19.833 -20 25.5s-16 9.16699 -24 10.5s-14.333 2 -19 2c-16 -1.33301 -30.667 -10.5 -44 -27.5s-25.166 -38.833 -35.499 -65.5s-19.5 -56.667 -27.5 -90s-14.667 -66.666 -20 -99.999c33.333 0 67.833 0.333008 103.5 1s72.167 2.66699 109.5 6
c20 1.33301 35.333 -4.5 46 -17.5s16 -28.167 16 -45.5c0 -14.667 -4.16699 -28 -12.5 -40s-21.166 -18.667 -38.499 -20l-238 -1c-1.33301 -14 -3.16602 -28.5 -5.49902 -43.5s-4.16602 -28.5 -5.49902 -40.5c-2.66699 -19.333 -4.83398 -33.333 -6.50098 -42
s-2.16699 -16.667 -1.5 -24l33 -13l-1 1l49.5 -19.5c18.333 -7 37.5 -13.667 57.5 -20s40.167 -11.5 60.5 -15.5s39.5 -6 57.5 -6c20 0 37.667 3.16699 53 9.5s27.333 17.833 36 34.5c10 16.667 24.333 25 43 25c15.333 0 30 -5.66699 44 -17s21 -26.333 21 -45
c0 -6.66699 -1.33301 -13.834 -4 -21.501s-7.33398 -15.5 -14.001 -23.5c-24 -28 -51.167 -47.667 -81.5 -59s-62.5 -17 -96.5 -17c-23.333 0 -48 2.66699 -74 8s-51.667 12.166 -77 20.499s-50 17.166 -74 26.499s-45.333 18 -64 26
c-5.33301 -17.333 -12.666 -33.833 -21.999 -49.5s-20.666 -28.834 -33.999 -39.501zM150.994 77.0049c4 -3.33301 7.83105 -0.999023 11.498 7.00098s6.5 16.333 8.5 25c-9.33301 -3.33301 -16.166 -8.33301 -20.499 -15s-4.16602 -12.334 0.500977 -17.001z" />
    <glyph glyph-name="yen" unicode="&#xa5;" horiz-adv-x="670" 
d="M519 317c21.333 0 35.3281 -5.83105 41.9951 -17.498s10.334 -25.167 11.001 -40.5s-3.33301 -29.5 -12 -42.5s-22 -19.5 -40 -19.5l-126 -1c0 -10.667 0.166992 -19.834 0.5 -27.501s0.5 -15 0.5 -22s0.166992 -14.333 0.5 -22s0.5 -16.834 0.5 -27.501
c0 -9.33301 0.166992 -18.166 0.5 -26.499s0.5 -16.5 0.5 -24.5c0 -18.667 -6.16699 -32.834 -18.5 -42.501s-25.166 -14.5 -38.499 -14.5c-14 0 -27.167 4.5 -39.5 13.5s-19.166 22.5 -20.499 40.5c0 21.333 -0.166992 38.833 -0.5 52.5s-0.5 25.667 -0.5 36v30v34.5h-132
c-18 0 -30.833 5.16699 -38.5 15.5s-11.5 22.833 -11.5 37.5c0 15.333 4.5 29.833 13.5 43.5s20.167 21.167 33.5 22.5c14 0.666992 30.167 1 48.5 1h59.5h26v31h-126c-17.333 -0.666992 -29.833 4.33301 -37.5 15s-11.5 23 -11.5 37c0 8 1.16699 15.833 3.5 23.5
s5.5 14.5 9.5 20.5s8.83301 11 14.5 15s11.834 6.33301 18.501 7c14 0.666992 30 1 48 1h58h14l-224 301c-9.33301 15.333 -11.5 29.333 -6.5 42s13 22.5 24 29.5s23.167 10.667 36.5 11s23.666 -4.5 30.999 -14.5l42.5 -56l42.5 -57l29.5 -39.5l28 -37l29.5 -38l34 -42.5
l65 82l60 78l80 105c7.33301 10 17.833 14.833 31.5 14.5s26.334 -4.16602 38.001 -11.499s19.834 -17.166 24.501 -29.499s1.66699 -25.833 -9 -40.5l-222 -297c17.333 0.666992 35.333 1.66699 54 3s37.334 3 56.001 5c21.333 1.33301 37.166 -4.83398 47.499 -18.501
s15.5 -29.167 15.5 -46.5c0 -4.66699 -0.5 -10.334 -1.5 -17.001s-3 -13 -6 -19s-7.5 -11.167 -13.5 -15.5s-14.333 -6.5 -25 -6.5l-136 -4v-9v-22z" />
    <glyph glyph-name="dieresis" unicode="&#xa8;" horiz-adv-x="392" 
d="M178 718c7.33301 -10 10.0039 -20.499 8.00391 -31.499s-6.83301 -20.833 -14.5 -29.5s-17 -15.834 -28 -21.501s-22.167 -8.5 -33.5 -8.5c-10.667 0 -20.834 2.5 -30.501 7.5s-17.5 13.167 -23.5 24.5c-6 12.667 -8.33301 24.5 -7 35.5s5.33301 20.5 12 28.5
s15.167 14.167 25.5 18.5s21.166 6.5 32.499 6.5s22.166 -2.16699 32.499 -6.5s19.166 -11.833 26.499 -22.5v-1zM335.004 723.001c7.33301 -10 10.0029 -20.3301 8.00293 -30.9971s-6.83301 -20.334 -14.5 -29.001s-17.167 -15.834 -28.5 -21.501
s-22.666 -8.5 -33.999 -8.5c-10.667 0 -20.834 2.5 -30.501 7.5s-17.167 13.167 -22.5 24.5c-6 12.667 -8.33301 24.5 -7 35.5s5.33301 20.5 12 28.5s15.167 14.167 25.5 18.5s21.166 6.5 32.499 6.5s22.166 -2.33301 32.499 -7s19.166 -12.334 26.499 -23.001v-1z" />
    <glyph glyph-name="copyright" unicode="&#xa9;" horiz-adv-x="815" 
d="M452 198c-18 -6.66699 -37.666 -10 -58.999 -10c-45.333 0 -84.5 14.167 -117.5 42.5s-55.833 68.5 -68.5 120.5c-4 14.667 -6.16699 27.834 -6.5 39.501s-0.5 24.834 -0.5 39.501c-0.666992 44 5 80.5 17 109.5s30.667 55.833 56 80.5
c14.667 13.333 30.667 22.833 48 28.5s34.666 8.5 51.999 8.5c16.667 0 33.5 -2.16699 50.5 -6.5s33 -10.833 48 -19.5s28.333 -19 40 -31s21.167 -25.667 28.5 -41c5.33301 -11.333 5.66602 -23.166 0.999023 -35.499s-11.834 -22.666 -21.501 -30.999s-20.667 -13 -33 -14
s-22.833 4.5 -31.5 16.5c-7.33301 11.333 -15.5 21.666 -24.5 30.999s-18.5 16.666 -28.5 21.999s-20 8 -30 8s-19.333 -3.66699 -28 -11c-18.667 -15.333 -31.5 -35.333 -38.5 -60s-10.5 -48 -10.5 -70c0 -16 1.66699 -29.667 5 -41c6.66699 -30 20.834 -51.333 42.501 -64
s46.5 -15 74.5 -7c13.333 4 25 13.333 35 28l36 53c5.33301 7.33301 10.833 11.5 16.5 12.5s11.834 1.5 18.501 1.5c8.66699 0 16.834 -2.83301 24.501 -8.5s14 -12.834 19 -21.501s8 -17.834 9 -27.501s-1.5 -18.834 -7.5 -27.501l-6 -11v1
c-6 -9.33301 -12.833 -19.166 -20.5 -29.499s-16 -20.5 -25 -30.5s-18.833 -19 -29.5 -27s-22.334 -14 -35.001 -18zM327.001 5c-54.667 6 -101.332 23.001 -139.999 51.001s-70 62.667 -94 104s-41 86.666 -51 135.999s-14 98 -12 146c2.66699 56 14 109.333 34 160
s47.5 94.834 82.5 132.501s76.833 66.5 125.5 86.5s103 27.667 163 23c43.333 -3.33301 83.666 -14.333 120.999 -33s70 -43 98 -73s50.333 -65 67 -105s26 -83.333 28 -130c0 -6 0.166992 -12 0.5 -18s0.5 -12 0.5 -18c0 -69.333 -7.66699 -132.5 -23 -189.5
s-38.5 -105.833 -69.5 -146.5s-69.5 -72.334 -115.5 -95.001s-99.667 -34 -161 -34c-18 0 -36 1 -54 3zM339.003 117.001c14 -2 27.001 -3.00391 39.001 -3.00391c40.667 0 77.5 9.33301 110.5 28s61 44.334 84 77.001s40.333 71.167 52 115.5s16.834 91.833 15.501 142.5
c-1.33301 36.667 -8 70.334 -20 101.001s-28.167 57.334 -48.5 80.001s-44 40.5 -71 53.5s-55.5 20.167 -85.5 21.5c-40.667 1.33301 -77.334 -6.5 -110.001 -23.5s-60.667 -39.5 -84 -67.5s-41.666 -60 -54.999 -96s-20.666 -72.667 -21.999 -110
c-2.66699 -31.333 -1.33398 -64.666 3.99902 -99.999s15.666 -68.333 30.999 -99s36.166 -57 62.499 -79s58.833 -35.667 97.5 -41z" />
    <glyph glyph-name="guillemotleft" unicode="&#xab;" horiz-adv-x="799" 
d="M94 173c-9.33301 4.66699 -17.168 12.1699 -23.501 22.5029s-9.5 21.166 -9.5 32.499c0 10 2.5 19.833 7.5 29.5s11.833 17.167 20.5 22.5l125.5 65.5l125.5 65.5l-1 -1c12.667 6.66699 24 9 34 7s18.333 -6.5 25 -13.5s12 -15.5 16 -25.5s6 -20 6 -30s-2 -19 -6 -27
s-10 -13 -18 -15l-131 -70l141 -56c8.66699 -4 15 -10.167 19 -18.5s6 -17.166 6 -26.499s-1.66699 -18.833 -5 -28.5s-8.16602 -17.834 -14.499 -24.501s-14 -11.334 -23 -14.001s-19.167 -1.33398 -30.5 3.99902l1 -1zM421.998 193.003
c-9.33301 4.66699 -17.168 12.1699 -23.501 22.5029s-9.5 21.166 -9.5 32.499c0 10 2.5 19.833 7.5 29.5s11.833 17.167 20.5 22.5l125.5 65.5l125.5 65.5l-1 -1c12.667 6.66699 24 9 34 7s18.333 -6.5 25 -13.5s12 -15.5 16 -25.5s6 -20 6 -30s-2 -19 -6 -27
s-10 -13 -18 -15l-131 -70l141 -56c8.66699 -4 15 -10.167 19 -18.5s6 -17.166 6 -26.499s-1.66699 -18.833 -5 -28.5s-8.16602 -17.834 -14.499 -24.501s-14 -11.334 -23 -14.001s-19.167 -1.33398 -30.5 3.99902l1 -1z" />
    <glyph glyph-name="registered" unicode="&#xae;" horiz-adv-x="777" 
d="M327 5c-54.667 6 -101.335 23.0029 -140.002 51.0029s-70 62.667 -94 104s-41 86.666 -51 135.999s-14 98 -12 146c2 54.667 13 107.667 33 159s47.333 96.166 82 134.499s76.167 68.166 124.5 89.499s102.5 29 162.5 23h-1c42.667 -3.33301 82.834 -13.333 120.501 -30
s71 -39.5 100 -68.5s52.333 -64.167 70 -105.5s27.5 -88.333 29.5 -141c0 -73.333 -6.16699 -140.666 -18.5 -201.999s-33 -114 -62 -158s-67.167 -78.333 -114.5 -103s-105.666 -37.334 -174.999 -38.001c-18 0 -36 1 -54 3zM338.999 117.003
c52 -8 97.166 -2.66406 135.499 16.0029s69.833 45.5 94.5 80.5s42.834 75.667 54.501 122s16.834 93.5 15.501 141.5c-1.33301 36.667 -8 70.167 -20 100.5s-28 56.666 -48 78.999s-43.5 40.166 -70.5 53.499s-55.5 21 -85.5 23c-40.667 0 -77.5 -7.83301 -110.5 -23.5
s-61.333 -36.834 -85 -63.501s-42 -58 -55 -94s-19.5 -74.667 -19.5 -116c0 -32 2.33301 -65.5 7 -100.5s14 -67.667 28 -98s33.667 -56.5 59 -78.5s58.666 -36 99.999 -42zM475.998 215.006c-18.667 22 -34.6709 39.832 -48.0039 53.499s-25.666 24.834 -36.999 33.501
s-22.833 15.834 -34.5 21.501s-25.167 11.5 -40.5 17.5v-3c0 -7.33301 0.166992 -15 0.5 -23s0.833008 -16.333 1.5 -25c1.33301 -7.33301 2.33301 -15.833 3 -25.5l2 -28.5c0.666992 -13.333 -4.66602 -23.333 -15.999 -30s-23.333 -10 -36 -10c-12 0 -23 2.83301 -33 8.5
s-15.667 14.5 -17 26.5c-0.666992 8 -0.833984 22.333 -0.500977 43s0.5 44.667 0.5 72v90c0 36.667 -0.166992 72.167 -0.5 106.5s-1.5 60.166 -3.5 77.499c0 12.667 6 23 18 31s24.667 12 38 12c11.333 0 21.333 -2.16699 30 -6.5s14.334 -11.166 17.001 -20.499
c35.333 14.667 69.333 22 102 22c24 -0.666992 46.167 -4.66699 66.5 -12s37.833 -17.833 52.5 -31.5s25.667 -30.5 33 -50.5s10 -43 8 -69c-4 -31.333 -16.833 -58.5 -38.5 -81.5s-47.5 -39.167 -77.5 -48.5c18 -15.333 32.5 -29.166 43.5 -41.499
s24.167 -25.833 39.5 -40.5c8.66699 -8.66699 14.334 -17.334 17.001 -26.001s1.33398 -16.667 -3.99902 -24c-4.66699 -6 -10.667 -11.833 -18 -17.5s-15 -9.66699 -23 -12s-16 -2.83301 -24 -1.5s-15 5.66602 -21 12.999zM486.994 506.005
c0 12 -4.99707 23.834 -14.9971 35.501s-26.667 17.5 -50 17.5c-16.667 0.666992 -34.667 -2.5 -54 -9.5s-34.666 -15.167 -45.999 -24.5c-0.666992 -6.66699 -0.833984 -12.834 -0.500977 -18.501s0.833008 -13.167 1.5 -22.5c0 -5.33301 0.166992 -8.66602 0.5 -9.99902
s0.5 -5.33301 0.5 -12c7.33301 -3.33301 15.166 -5.5 23.499 -6.5s17.166 -1.5 26.499 -1.5c13.333 0 26.666 1.33301 39.999 4s25.5 6.16699 36.5 10.5s19.833 9.66602 26.5 15.999s10 13.5 10 21.5z" />
    <glyph glyph-name="macron" unicode="&#xaf;" horiz-adv-x="586" 
d="M87 646l1 -0.000976562c-18 -0.666992 -30.833 4.33301 -38.5 15s-11.5 23.334 -11.5 38.001c0 15.333 4.5 29.833 13.5 43.5s20.167 21.167 33.5 22.5c14.667 0.666992 31.667 1 51 1h61c38 0 78.667 0.333008 122 1s87 2.66699 131 6
c21.333 1.33301 37.166 -4.83398 47.499 -18.501s15.5 -29.167 15.5 -46.5c0 -14.667 -4.16699 -28.167 -12.5 -40.5s-21.166 -19.166 -38.499 -20.499z" />
    <glyph glyph-name="acute" unicode="&#xb4;" horiz-adv-x="254" 
d="M122 652c-8.66699 -9.33301 -19.999 -12.998 -33.999 -10.998s-26.667 7.16699 -38 15.5s-19 19 -23 32s-0.333008 26.167 11 39.5l72 80c12 13.333 25.5 19.666 40.5 18.999s28.167 -5.33398 39.5 -14.001s19.166 -19.5 23.499 -32.5s1.83301 -25.167 -7.5 -36.5z" />
    <glyph glyph-name="cedilla" unicode="&#xb8;" horiz-adv-x="306" 
d="M143 51l-0.00390625 -36.0039c16 -1.33301 31.833 -4.33301 47.5 -9s29.834 -11.5 42.501 -20.5s23 -20.167 31 -33.5s12 -29.333 12 -48c0 -23.333 -5.33301 -42.5 -16 -57.5s-23.167 -26.667 -37.5 -35s-29.166 -14 -44.499 -17s-27.333 -4.5 -36 -4.5
c-34 0.666992 -60.667 6.5 -80 17.5s-33.666 27.167 -42.999 48.5c-2.66699 6 -2 13 2 21s9.66699 15.333 17 22c9.33301 8 19.333 13.167 30 15.5s18.667 -1.83398 24 -12.501c6.66699 -12 15.667 -21 27 -27c6.66699 -3.33301 13.667 -5 21 -5s13.833 1.33301 19.5 4
s10.334 6.5 14.001 11.5s5.5 10.833 5.5 17.5s-2.66699 11.834 -8 15.501s-11.666 6.33398 -18.999 8.00098s-15.333 2.33398 -24 2.00098s-16.334 -0.833008 -23.001 -1.5c-8 -1.33301 -15.667 -0.666016 -23 2.00098s-13.833 7 -19.5 13s-10 13.333 -13 22
s-4.16699 18.334 -3.5 29.001l4 38l3 21z" />
    <glyph glyph-name="guillemotright" unicode="&#xbb;" horiz-adv-x="839" 
d="M139 71l-0.000976562 0.996094c-11.333 -5.33301 -21.333 -6.66602 -30 -3.99902s-16.167 7.33398 -22.5 14.001s-11.166 14.834 -14.499 24.501s-5 19.167 -5 28.5s2 18.166 6 26.499s10 14.5 18 18.5l142 56l-133 70c-11.333 4.66699 -18 14.834 -20 30.501
s0 30.667 6 45s15.333 25.333 28 33s27.667 6.16699 45 -4.5l-1 1l251 -131c8 -5.33301 14.667 -12.833 20 -22.5s8 -19.5 8 -29.5c0 -11.333 -3.33301 -22.166 -10 -32.499s-14.667 -17.833 -24 -22.5zM496.999 53.9961l-0.000976562 0.996094
c-11.333 -5.33301 -21.333 -6.66602 -30 -3.99902s-16.167 7.33398 -22.5 14.001s-11.166 14.834 -14.499 24.501s-5 19.167 -5 28.5s2 18.166 6 26.499s10 14.5 18 18.5l142 56l-133 70c-11.333 4.66699 -18 14.834 -20 30.501s0 30.667 6 45s15.333 25.333 28 33
s27.667 6.16699 45 -4.5l-1 1l251 -131c8 -5.33301 14.667 -12.833 20 -22.5s8 -19.5 8 -29.5c0 -11.333 -3.33301 -22.166 -10 -32.499s-14.667 -17.833 -24 -22.5z" />
    <glyph glyph-name="questiondown" unicode="&#xbf;" horiz-adv-x="647" 
d="M332.019 639.013c-3.33301 21.999 1.99902 39.332 15.998 51.9971c13.999 12.666 29.3311 18.999 45.9971 18.999c12.666 0 23.999 -3.16602 33.998 -9.49902s17.332 -16.832 21.998 -31.4971v-1c2 -7.33301 4.16699 -18.666 6.5 -33.999
s4.66602 -32.832 6.99902 -52.4971l7 -61.4961l6.5 -59.9961c0.666992 -11.999 -0.333008 -23.665 -3 -34.998s-7.5 -21.332 -14.499 -29.998c-7 -8.66602 -16.166 -15.166 -27.499 -19.499s-24.999 -5.16602 -40.998 -2.5h1c-9.99902 1.33301 -23.332 1 -39.998 -1
c-16.665 -1.99902 -34.3301 -5.49902 -52.9951 -10.499c-18.666 -5 -37.498 -11.666 -56.4971 -19.999s-36.165 -18.499 -51.498 -30.498c-15.332 -11.999 -27.8311 -25.665 -37.4971 -40.9971c-9.66602 -15.333 -14.499 -32.665 -14.499 -51.9971
c0 -18.665 5 -35.1641 14.999 -49.4971s23.3311 -26.499 39.9961 -36.498c16.666 -9.99902 35.498 -17.832 56.4971 -23.498c20.999 -5.66699 42.498 -8.83398 64.4971 -9.50098c21.332 0 41.9971 3.16699 61.9961 9.5s38.3311 15.166 54.9961 26.499
c16.666 11.333 30.665 24.832 41.998 40.498c11.333 15.665 18.666 33.1641 21.999 52.4961c2.66699 11.333 7.66699 19.666 15 24.999s15.999 7.99902 25.998 7.99902c8.66602 0 17.499 -2 26.498 -5.99902c8.99902 -4 16.999 -9.5 23.999 -16.499
c6.99902 -7 11.999 -15.166 14.999 -24.499c2.99902 -9.33301 2.83203 -18.999 -0.500977 -28.998c-9.33301 -25.332 -22.666 -50.1641 -39.999 -74.4951c-17.332 -24.332 -38.6641 -45.9971 -63.9961 -64.9961c-25.3311 -18.999 -54.6621 -33.832 -87.9932 -44.499
c-33.3311 -10.665 -70.9951 -14.998 -112.992 -12.999c-31.998 2 -63.9961 8 -95.9941 17.999s-60.8301 24.332 -86.4951 42.998c-25.665 18.665 -46.4971 41.4971 -62.4961 68.4951c-15.999 26.999 -23.998 58.1641 -23.998 93.4951s5.33301 66.6631 15.999 93.9951
c10.666 27.3311 24.665 50.9961 41.9971 70.9951s37.3311 36.8311 59.9961 50.4971s46.1641 24.832 70.4961 33.498s48.6641 15.332 72.9951 19.999c24.332 4.66602 46.8311 7.66602 67.4961 8.99902c-1.33301 29.3311 -3.99902 53.8291 -7.99805 73.4941
c-4 19.666 -7.66699 36.498 -11 50.4971l-5.99902 26.999v-1zM305.019 769.005c-7.33301 10 -9.99707 20.498 -7.99707 31.4971c2 11 6.83301 20.833 14.499 29.499s16.999 15.832 27.998 21.498c10.999 5.66699 22.165 8.5 33.498 8.5s21.832 -2.66699 31.498 -8
s17.166 -13.666 22.499 -24.999c5.99902 -12.666 8.33203 -24.499 6.99902 -35.498s-5.33301 -20.498 -11.999 -28.4971s-15.165 -14.165 -25.498 -18.498s-21.166 -6.5 -32.499 -6.5s-22.166 2.33301 -32.499 7s-19.166 12.333 -26.499 22.999v0.999023z" />
    <glyph glyph-name="Agrave" unicode="&#xc0;" horiz-adv-x="756" 
d="M714 83c4 -11.333 4.83203 -21.665 2.49902 -30.998s-7 -17.5 -14 -24.5s-15.167 -12.333 -24.5 -16s-19 -5.5 -29 -5.5c-11.333 0 -22 2.83301 -32 8.5s-17.333 15.167 -22 28.5v-1c-7.33301 22 -18.333 52.333 -33 91l-53 139l-151.5 -21
c-47.667 -6.66699 -98.167 -14.334 -151.5 -23.001l-41 -112.5l-28 -77.5v1c-4 -13.333 -11 -22.833 -21 -28.5s-20.667 -8.5 -32 -8.5c-10 0 -19.667 1.83301 -29 5.5s-17.5 9 -24.5 16s-11.833 15.167 -14.5 24.5s-2 19.666 2 30.999l287 732c6 16 14.5 27.333 25.5 34
s22.5 10 34.5 10c13.333 0 25.333 -3.66699 36 -11s18.334 -16.333 23.001 -27zM281.999 423.001l-25.998 -66c33.333 4.66699 66.166 9.5 98.499 14.5s69.166 11.167 110.499 18.5l-28 72.5l-24.5 63.5l-22.5 58.5l-23 57.5zM283.001 983.001
c-9.33301 11.333 -11.832 23.498 -7.49902 36.498s12.166 23.833 23.499 32.5s24.5 13.334 39.5 14.001s28.5 -5.66602 40.5 -18.999l72 -80c11.333 -13.333 15 -26.5 11 -39.5s-11.667 -23.667 -23 -32s-24 -13.5 -38 -15.5s-25.333 1.66699 -34 11z" />
    <glyph glyph-name="Aacute" unicode="&#xc1;" horiz-adv-x="756" 
d="M714 83c4 -11.333 4.83203 -21.665 2.49902 -30.998s-7 -17.5 -14 -24.5s-15.167 -12.333 -24.5 -16s-19 -5.5 -29 -5.5c-11.333 0 -22 2.83301 -32 8.5s-17.333 15.167 -22 28.5v-1c-7.33301 22 -18.333 52.333 -33 91l-53 139l-151.5 -21
c-47.667 -6.66699 -98.167 -14.334 -151.5 -23.001l-41 -112.5l-28 -77.5v1c-4 -13.333 -11 -22.833 -21 -28.5s-20.667 -8.5 -32 -8.5c-10 0 -19.667 1.83301 -29 5.5s-17.5 9 -24.5 16s-11.833 15.167 -14.5 24.5s-2 19.666 2 30.999l287 732c6 16 14.5 27.333 25.5 34
s22.5 10 34.5 10c13.333 0 25.333 -3.66699 36 -11s18.334 -16.333 23.001 -27zM281.999 423.001l-25.998 -66c33.333 4.66699 66.166 9.5 98.499 14.5s69.166 11.167 110.499 18.5l-28 72.5l-24.5 63.5l-22.5 58.5l-23 57.5zM373.001 891.001
c-8.66699 -9.33301 -19.999 -12.998 -33.999 -10.998s-26.667 7.16699 -38 15.5s-19 19 -23 32s-0.333008 26.167 11 39.5l72 80c12 13.333 25.5 19.666 40.5 18.999s28.167 -5.33398 39.5 -14.001s19.166 -19.5 23.499 -32.5s1.83301 -25.167 -7.5 -36.5z" />
    <glyph glyph-name="Acircumflex" unicode="&#xc2;" horiz-adv-x="756" 
d="M714 83c4 -11.333 4.83203 -21.665 2.49902 -30.998s-7 -17.5 -14 -24.5s-15.167 -12.333 -24.5 -16s-19 -5.5 -29 -5.5c-11.333 0 -22 2.83301 -32 8.5s-17.333 15.167 -22 28.5v-1c-7.33301 22 -18.333 52.333 -33 91l-53 139l-151.5 -21
c-47.667 -6.66699 -98.167 -14.334 -151.5 -23.001l-41 -112.5l-28 -77.5v1c-4 -13.333 -11 -22.833 -21 -28.5s-20.667 -8.5 -32 -8.5c-10 0 -19.667 1.83301 -29 5.5s-17.5 9 -24.5 16s-11.833 15.167 -14.5 24.5s-2 19.666 2 30.999l287 732c6 16 14.5 27.333 25.5 34
s22.5 10 34.5 10c13.333 0 25.333 -3.66699 36 -11s18.334 -16.333 23.001 -27zM281.999 423.001l-25.998 -66c33.333 4.66699 66.166 9.5 98.499 14.5s69.166 11.167 110.499 18.5l-28 72.5l-24.5 63.5l-22.5 58.5l-23 57.5zM342.001 1048l-1 -0.999023
c4 8 10.167 14.167 18.5 18.5s16.833 6.66602 25.5 6.99902s16.834 -1.5 24.501 -5.5s13.5 -10.333 17.5 -19l61 -104c6 -11.333 5.66699 -21.833 -1 -31.5s-15.5 -17 -26.5 -22s-22.167 -7 -33.5 -6s-19 6.16699 -23 15.5l-18 27l-16 -31c-2 -8 -9 -12.833 -21 -14.5
s-24 -0.5 -36 3.5s-21.833 10.833 -29.5 20.5s-7.83398 22.167 -0.500977 37.5z" />
    <glyph glyph-name="Atilde" unicode="&#xc3;" horiz-adv-x="756" 
d="M714 83c4 -11.333 4.83203 -21.665 2.49902 -30.998s-7 -17.5 -14 -24.5s-15.167 -12.333 -24.5 -16s-19 -5.5 -29 -5.5c-11.333 0 -22 2.83301 -32 8.5s-17.333 15.167 -22 28.5v-1c-7.33301 22 -18.333 52.333 -33 91l-53 139l-151.5 -21
c-47.667 -6.66699 -98.167 -14.334 -151.5 -23.001l-41 -112.5l-28 -77.5v1c-4 -13.333 -11 -22.833 -21 -28.5s-20.667 -8.5 -32 -8.5c-10 0 -19.667 1.83301 -29 5.5s-17.5 9 -24.5 16s-11.833 15.167 -14.5 24.5s-2 19.666 2 30.999l287 732c6 16 14.5 27.333 25.5 34
s22.5 10 34.5 10c13.333 0 25.333 -3.66699 36 -11s18.334 -16.333 23.001 -27zM281.999 423.001l-25.998 -66c33.333 4.66699 66.166 9.5 98.499 14.5s69.166 11.167 110.499 18.5l-28 72.5l-24.5 63.5l-22.5 58.5l-23 57.5zM213.001 904.001
c-3.33301 -11.333 -8.83594 -19.335 -16.5029 -24.002s-16.167 -7 -25.5 -7c-8.66699 0 -17.167 2.33301 -25.5 7s-15.5 10.667 -21.5 18s-10.167 15.333 -12.5 24s-1.83301 16.667 1.5 24c8 16 16.833 32.5 26.5 49.5s20.834 32.667 33.501 47s27.334 26.5 44.001 36.5
s36.334 16.667 59.001 20c35.333 4 65.833 -0.5 91.5 -13.5s51.5 -33.5 77.5 -61.5l20 -21c6 -6 11.667 -9.33301 17 -10c6.66699 -1.33301 13 -0.166016 19 3.50098s12 8.66699 18 15s11.667 13.666 17 21.999l16 24.5c6 8.66699 15.333 13.667 28 15s25 0 37 -4
s21.833 -10.667 29.5 -20s9.5 -20.333 5.5 -33c-6.66699 -21.333 -16.834 -40.5 -30.501 -57.5s-28.5 -31.5 -44.5 -43.5s-32.333 -21.167 -49 -27.5s-31.667 -9.5 -45 -9.5s-25.333 1.83301 -36 5.5s-20.667 8.83398 -30 15.501s-18 14 -26 22l-24 25
c-12.667 13.333 -25.167 25.5 -37.5 36.5s-25.5 14.833 -39.5 11.5h1c-8 -1.33301 -19.667 -8.16602 -35 -20.499s-29.666 -35.5 -42.999 -69.5z" />
    <glyph glyph-name="Adieresis" unicode="&#xc4;" horiz-adv-x="756" 
d="M714 83c4 -11.333 4.83203 -21.665 2.49902 -30.998s-7 -17.5 -14 -24.5s-15.167 -12.333 -24.5 -16s-19 -5.5 -29 -5.5c-11.333 0 -22 2.83301 -32 8.5s-17.333 15.167 -22 28.5v-1c-7.33301 22 -18.333 52.333 -33 91l-53 139l-151.5 -21
c-47.667 -6.66699 -98.167 -14.334 -151.5 -23.001l-41 -112.5l-28 -77.5v1c-4 -13.333 -11 -22.833 -21 -28.5s-20.667 -8.5 -32 -8.5c-10 0 -19.667 1.83301 -29 5.5s-17.5 9 -24.5 16s-11.833 15.167 -14.5 24.5s-2 19.666 2 30.999l287 732c6 16 14.5 27.333 25.5 34
s22.5 10 34.5 10c13.333 0 25.333 -3.66699 36 -11s18.334 -16.333 23.001 -27zM281.999 423.001l-25.998 -66c33.333 4.66699 66.166 9.5 98.499 14.5s69.166 11.167 110.499 18.5l-28 72.5l-24.5 63.5l-22.5 58.5l-23 57.5zM354.001 957.001
c7.33301 -10 10.0039 -20.499 8.00391 -31.499s-6.83301 -20.833 -14.5 -29.5s-17 -15.834 -28 -21.501s-22.167 -8.5 -33.5 -8.5c-10.667 0 -20.834 2.5 -30.501 7.5s-17.5 13.167 -23.5 24.5c-6 12.667 -8.33301 24.5 -7 35.5s5.33301 20.5 12 28.5
s15.167 14.167 25.5 18.5s21.166 6.5 32.499 6.5s22.166 -2.16699 32.499 -6.5s19.166 -11.833 26.499 -22.5v-1zM511.005 962.002c7.33301 -10 10.0029 -20.3301 8.00293 -30.9971s-6.83301 -20.334 -14.5 -29.001s-17.167 -15.834 -28.5 -21.501
s-22.666 -8.5 -33.999 -8.5c-10.667 0 -20.834 2.5 -30.501 7.5s-17.167 13.167 -22.5 24.5c-6 12.667 -8.33301 24.5 -7 35.5s5.33301 20.5 12 28.5s15.167 14.167 25.5 18.5s21.166 6.5 32.499 6.5s22.166 -2.33301 32.499 -7s19.166 -12.334 26.499 -23.001v-1z" />
    <glyph glyph-name="Aring" unicode="&#xc5;" horiz-adv-x="756" 
d="M714 83c4 -11.333 4.83203 -21.665 2.49902 -30.998s-7 -17.5 -14 -24.5s-15.167 -12.333 -24.5 -16s-19 -5.5 -29 -5.5c-11.333 0 -22 2.83301 -32 8.5s-17.333 15.167 -22 28.5v-1c-7.33301 22 -18.333 52.333 -33 91l-53 139l-151.5 -21
c-47.667 -6.66699 -98.167 -14.334 -151.5 -23.001l-41 -112.5l-28 -77.5v1c-4 -13.333 -11 -22.833 -21 -28.5s-20.667 -8.5 -32 -8.5c-10 0 -19.667 1.83301 -29 5.5s-17.5 9 -24.5 16s-11.833 15.167 -14.5 24.5s-2 19.666 2 30.999l287 732c6 16 14.5 27.333 25.5 34
s22.5 10 34.5 10c13.333 0 25.333 -3.66699 36 -11s18.334 -16.333 23.001 -27zM281.999 423.001l-25.998 -66c33.333 4.66699 66.166 9.5 98.499 14.5s69.166 11.167 110.499 18.5l-28 72.5l-24.5 63.5l-22.5 58.5l-23 57.5zM359.001 971.001
c6.66699 0 13.335 1.66699 20.002 5s9 7 7 11h1c-5.33301 6 -12 9 -20 9c-6.66699 0 -12.334 -1.83301 -17.001 -5.5s-5.33398 -8.16699 -2.00098 -13.5c2 -4 5.66699 -6 11 -6zM459.002 1028c4.66699 -7.33301 8 -14.668 10 -22.001s3 -14.333 3 -21
c0 -14 -3.33301 -26.833 -10 -38.5s-15.334 -21.834 -26.001 -30.501s-23 -15.5 -37 -20.5s-28 -7.5 -42 -7.5c-18 0 -34.833 4.16699 -50.5 12.5s-28.167 21.833 -37.5 40.5c-3.33301 7.33301 -5.66602 14.333 -6.99902 21s-2 13.334 -2 20.001
c0 14 3.16699 26.833 9.5 38.5s14.833 21.834 25.5 30.501s22.667 15.5 36 20.5s27 7.5 41 7.5c17.333 0 33.833 -4 49.5 -12s28.5 -21 38.5 -39h-1z" />
    <glyph glyph-name="AE" unicode="&#xc6;" horiz-adv-x="1180" 
d="M555 348l-175.002 -10.0049c-15.333 -24 -33.5 -50.667 -54.5 -80l-62.5 -89l-62.5 -90c-18.333 -26 -31.166 -45.667 -38.499 -59c-6 -12.667 -14 -21.5 -24 -26.5s-20.667 -7.5 -32 -7.5c-10 0 -19.667 2.16699 -29 6.5s-16.833 10.166 -22.5 17.499
s-9.16699 16 -10.5 26s1 20.667 7 32l486 716c8.66699 12 17.5 21.5 26.5 28.5s17.833 12 26.5 15s17 5 25 6s15.667 1.5 23 1.5h7l392 15c18 0.666992 31 -4.33301 39 -15s12 -23.667 12 -39s-4.16699 -29.333 -12.5 -42s-18.833 -19.667 -31.5 -21
c-14.667 -1.33301 -37.5 -2.66602 -68.5 -3.99902s-67.5 -2.66602 -109.5 -3.99902l-191 -7c0 -32 -0.166992 -68.5 -0.5 -109.5s-0.833008 -85.5 -1.5 -133.5c50 3.33301 100.333 6.33301 151 9s101 5.66699 151 9c15.333 -0.666992 27.666 -6.5 36.999 -17.5
s14 -23.167 14 -36.5c0 -15.333 -4 -29.5 -12 -42.5s-18.667 -20.167 -32 -21.5c-23.333 -2 -59.666 -4.83301 -108.999 -8.5s-115.666 -7.5 -198.999 -11.5c0 -46 0.5 -89.667 1.5 -131s2.16699 -77 3.5 -107l395 16c18.667 0.666992 32 -4.66602 40 -15.999
s12 -24.666 12 -39.999s-4.16699 -29.166 -12.5 -41.499s-18.5 -19.166 -30.5 -20.499c-13.333 -1.33301 -34.833 -2.5 -64.5 -3.5s-64 -2.33301 -103 -4s-81.333 -3.16699 -127 -4.5l-135.5 -4h-5h-29c-10 0 -19.5 1.33301 -28.5 4s-16.5 7.5 -22.5 14.5
s-9.33301 17.5 -10 31.5zM553.998 468.995v35.5c0 9 -0.166992 17.833 -0.5 26.5s-0.5 18 -0.5 28v40l-82 -133z" />
    <glyph glyph-name="Ccedilla" unicode="&#xc7;" horiz-adv-x="664" 
d="M612 172c-16 -21.333 -32.1689 -41.165 -48.502 -59.498s-33.666 -34.833 -51.999 -49.5s-38 -27 -59 -37s-43.833 -17 -68.5 -21c22 -8 41 -20 57 -36s24 -37.667 24 -65c0 -23.333 -5.16699 -42.833 -15.5 -58.5s-23 -28.334 -38 -38.001s-30.5 -16.5 -46.5 -20.5
s-30 -6.33301 -42 -7c-14.667 -1.33301 -30.167 0.333984 -46.5 5.00098s-31.666 10.667 -45.999 18s-26.833 15.833 -37.5 25.5s-18 19.5 -22 29.5c-5.33301 10.667 -4.83301 21.334 1.5 32.001s14.666 19 24.999 25s21 8.66699 32 8s18.5 -7 22.5 -19
c1.33301 -4.66699 4.5 -9 9.5 -13s10.833 -7.66699 17.5 -11s13.5 -5.83301 20.5 -7.5s13.167 -2.5 18.5 -2.5s11 1.16699 17 3.5s11.5 5 16.5 8s9 6.33301 12 10s4.5 7.5 4.5 11.5c0 6.66699 -3.16699 11.667 -9.5 15s-13.666 5.83301 -21.999 7.5s-16.666 2.5 -24.999 2.5
s-14.5 -0.333008 -18.5 -1h1c-6.66699 -1.33301 -14 -0.666016 -22 2.00098s-15.167 7 -21.5 13s-11.166 13.667 -14.499 23s-4 20 -2 32c1.33301 6.66699 2.16602 10.167 2.49902 10.5s0.833008 3.5 1.5 9.5c-40 11.333 -73.667 28.333 -101 51
s-49.666 49.167 -66.999 79.5s-29.833 63.833 -37.5 100.5s-11.5 74.667 -11.5 114c0 15.333 0.5 30.5 1.5 45.5s2.16699 30.167 3.5 45.5c6.66699 51.333 19.167 101.666 37.5 150.999s42.833 92.666 73.5 129.999s67.667 66.833 111 88.5s93.666 30.5 150.999 26.5
c22.667 -2 44.834 -6.5 66.501 -13.5s41.667 -16.167 60 -27.5s34.666 -24.333 48.999 -39s25.5 -30.334 33.5 -47.001c5.33301 -11.333 7.33301 -22.333 6 -33s-5 -20 -11 -28s-13.5 -14.5 -22.5 -19.5s-18.5 -7.5 -28.5 -7.5c-16.667 0 -31.667 7.66699 -45 23
c-17.333 22 -35.833 40 -55.5 54s-42.167 21.667 -67.5 23c-35.333 2 -66.5 -5.5 -93.5 -22.5s-50.333 -39.667 -70 -68s-35.5 -60.333 -47.5 -96s-21 -71.167 -27 -106.5c-4 -25.333 -6 -51.333 -6 -78c0 -28.667 2.83301 -56.667 8.5 -84s15.5 -52.333 29.5 -75
s32.5 -41.667 55.5 -57s51.833 -25 86.5 -29c22 -2.66699 42.167 -1.16699 60.5 4.5s35.5 14.5 51.5 26.5s31.167 26.333 45.5 43s28.5 35 42.5 55v-1c12.667 17.333 27.667 26 45 26c10 0 19.667 -3.16699 29 -9.5s16.666 -14.5 21.999 -24.5s8 -20.833 8 -32.5
s-4 -22.834 -12 -33.501z" />
    <glyph glyph-name="Egrave" unicode="&#xc8;" horiz-adv-x="648" 
d="M38 768c0.666992 13.333 3.99609 24.3281 9.99609 32.9951s13.5 15.5 22.5 20.5s18.833 8.5 29.5 10.5s21 3 31 3l391 15c18.667 0.666992 32 -4.33301 40 -15s12 -23.667 12 -39s-4.16699 -29.333 -12.5 -42s-18.833 -19.667 -31.5 -21
c-15.333 -1.33301 -38.5 -2.66602 -69.5 -3.99902s-67.5 -2.66602 -109.5 -3.99902l-191 -7v-229c50 3.33301 100.333 6.33301 151 9s101 5.66699 151 9c16 -0.666992 28.667 -6.33398 38 -17.001s14 -23 14 -37c0 -15.333 -4 -29.5 -12 -42.5s-18.667 -20.167 -32 -21.5
c-23.333 -2 -59.833 -4.83301 -109.5 -8.5s-116.167 -7.5 -199.5 -11.5c0 -49.333 0.333008 -96 1 -140s1.66699 -81.333 3 -112l395 16c18.667 0.666992 31.834 -4.66602 39.501 -15.999s11.5 -24.666 11.5 -39.999s-4 -29.166 -12 -41.499s-18.333 -19.166 -31 -20.499
c-13.333 -1.33301 -34.666 -2.5 -63.999 -3.5s-63.666 -2.33301 -102.999 -4s-81.666 -3.16699 -126.999 -4.5l-136 -4h-4h-29c-10 0 -19.5 1.33301 -28.5 4s-16.5 7.5 -22.5 14.5s-9.33301 17.5 -10 31.5zM228.996 982.995c-9.33301 11.333 -11.832 23.498 -7.49902 36.498
s12.166 23.833 23.499 32.5s24.5 13.334 39.5 14.001s28.5 -5.66602 40.5 -18.999l72 -80c11.333 -13.333 15 -26.5 11 -39.5s-11.667 -23.667 -23 -32s-24 -13.5 -38 -15.5s-25.333 1.66699 -34 11z" />
    <glyph glyph-name="Eacute" unicode="&#xc9;" horiz-adv-x="648" 
d="M38 768c0.666992 13.333 3.99609 24.3281 9.99609 32.9951s13.5 15.5 22.5 20.5s18.833 8.5 29.5 10.5s21 3 31 3l391 15c18.667 0.666992 32 -4.33301 40 -15s12 -23.667 12 -39s-4.16699 -29.333 -12.5 -42s-18.833 -19.667 -31.5 -21
c-15.333 -1.33301 -38.5 -2.66602 -69.5 -3.99902s-67.5 -2.66602 -109.5 -3.99902l-191 -7v-229c50 3.33301 100.333 6.33301 151 9s101 5.66699 151 9c16 -0.666992 28.667 -6.33398 38 -17.001s14 -23 14 -37c0 -15.333 -4 -29.5 -12 -42.5s-18.667 -20.167 -32 -21.5
c-23.333 -2 -59.833 -4.83301 -109.5 -8.5s-116.167 -7.5 -199.5 -11.5c0 -49.333 0.333008 -96 1 -140s1.66699 -81.333 3 -112l395 16c18.667 0.666992 31.834 -4.66602 39.501 -15.999s11.5 -24.666 11.5 -39.999s-4 -29.166 -12 -41.499s-18.333 -19.166 -31 -20.499
c-13.333 -1.33301 -34.666 -2.5 -63.999 -3.5s-63.666 -2.33301 -102.999 -4s-81.666 -3.16699 -126.999 -4.5l-136 -4h-4h-29c-10 0 -19.5 1.33301 -28.5 4s-16.5 7.5 -22.5 14.5s-9.33301 17.5 -10 31.5zM318.996 890.995
c-8.66699 -9.33301 -19.999 -12.998 -33.999 -10.998s-26.667 7.16699 -38 15.5s-19 19 -23 32s-0.333008 26.167 11 39.5l72 80c12 13.333 25.5 19.666 40.5 18.999s28.167 -5.33398 39.5 -14.001s19.166 -19.5 23.499 -32.5s1.83301 -25.167 -7.5 -36.5z" />
    <glyph glyph-name="Ecircumflex" unicode="&#xca;" horiz-adv-x="648" 
d="M38 768c0.666992 13.333 3.99609 24.3281 9.99609 32.9951s13.5 15.5 22.5 20.5s18.833 8.5 29.5 10.5s21 3 31 3l391 15c18.667 0.666992 32 -4.33301 40 -15s12 -23.667 12 -39s-4.16699 -29.333 -12.5 -42s-18.833 -19.667 -31.5 -21
c-15.333 -1.33301 -38.5 -2.66602 -69.5 -3.99902s-67.5 -2.66602 -109.5 -3.99902l-191 -7v-229c50 3.33301 100.333 6.33301 151 9s101 5.66699 151 9c16 -0.666992 28.667 -6.33398 38 -17.001s14 -23 14 -37c0 -15.333 -4 -29.5 -12 -42.5s-18.667 -20.167 -32 -21.5
c-23.333 -2 -59.833 -4.83301 -109.5 -8.5s-116.167 -7.5 -199.5 -11.5c0 -49.333 0.333008 -96 1 -140s1.66699 -81.333 3 -112l395 16c18.667 0.666992 31.834 -4.66602 39.501 -15.999s11.5 -24.666 11.5 -39.999s-4 -29.166 -12 -41.499s-18.333 -19.166 -31 -20.499
c-13.333 -1.33301 -34.666 -2.5 -63.999 -3.5s-63.666 -2.33301 -102.999 -4s-81.666 -3.16699 -126.999 -4.5l-136 -4h-4h-29c-10 0 -19.5 1.33301 -28.5 4s-16.5 7.5 -22.5 14.5s-9.33301 17.5 -10 31.5zM287.996 1048l-1 -0.999023c4 8 10.167 14.167 18.5 18.5
s16.833 6.66602 25.5 6.99902s16.834 -1.5 24.501 -5.5s13.5 -10.333 17.5 -19l61 -104c6 -11.333 5.66699 -21.833 -1 -31.5s-15.5 -17 -26.5 -22s-22.167 -7 -33.5 -6s-19 6.16699 -23 15.5l-18 27l-16 -31c-2 -8 -9 -12.833 -21 -14.5s-24 -0.5 -36 3.5
s-21.833 10.833 -29.5 20.5s-7.83398 22.167 -0.500977 37.5z" />
    <glyph glyph-name="Edieresis" unicode="&#xcb;" horiz-adv-x="648" 
d="M38 768c0.666992 13.333 3.99609 24.3281 9.99609 32.9951s13.5 15.5 22.5 20.5s18.833 8.5 29.5 10.5s21 3 31 3l391 15c18.667 0.666992 32 -4.33301 40 -15s12 -23.667 12 -39s-4.16699 -29.333 -12.5 -42s-18.833 -19.667 -31.5 -21
c-15.333 -1.33301 -38.5 -2.66602 -69.5 -3.99902s-67.5 -2.66602 -109.5 -3.99902l-191 -7v-229c50 3.33301 100.333 6.33301 151 9s101 5.66699 151 9c16 -0.666992 28.667 -6.33398 38 -17.001s14 -23 14 -37c0 -15.333 -4 -29.5 -12 -42.5s-18.667 -20.167 -32 -21.5
c-23.333 -2 -59.833 -4.83301 -109.5 -8.5s-116.167 -7.5 -199.5 -11.5c0 -49.333 0.333008 -96 1 -140s1.66699 -81.333 3 -112l395 16c18.667 0.666992 31.834 -4.66602 39.501 -15.999s11.5 -24.666 11.5 -39.999s-4 -29.166 -12 -41.499s-18.333 -19.166 -31 -20.499
c-13.333 -1.33301 -34.666 -2.5 -63.999 -3.5s-63.666 -2.33301 -102.999 -4s-81.666 -3.16699 -126.999 -4.5l-136 -4h-4h-29c-10 0 -19.5 1.33301 -28.5 4s-16.5 7.5 -22.5 14.5s-9.33301 17.5 -10 31.5zM299.996 956.995c7.33301 -10 10.0039 -20.499 8.00391 -31.499
s-6.83301 -20.833 -14.5 -29.5s-17 -15.834 -28 -21.501s-22.167 -8.5 -33.5 -8.5c-10.667 0 -20.834 2.5 -30.501 7.5s-17.5 13.167 -23.5 24.5c-6 12.667 -8.33301 24.5 -7 35.5s5.33301 20.5 12 28.5s15.167 14.167 25.5 18.5s21.166 6.5 32.499 6.5
s22.166 -2.16699 32.499 -6.5s19.166 -11.833 26.499 -22.5v-1zM457 961.996c7.33301 -10 10.0029 -20.3301 8.00293 -30.9971s-6.83301 -20.334 -14.5 -29.001s-17.167 -15.834 -28.5 -21.501s-22.666 -8.5 -33.999 -8.5c-10.667 0 -20.834 2.5 -30.501 7.5
s-17.167 13.167 -22.5 24.5c-6 12.667 -8.33301 24.5 -7 35.5s5.33301 20.5 12 28.5s15.167 14.167 25.5 18.5s21.166 6.5 32.499 6.5s22.166 -2.33301 32.499 -7s19.166 -12.334 26.499 -23.001v-1z" />
    <glyph glyph-name="Igrave" unicode="&#xcc;" horiz-adv-x="580" 
d="M74 -4c-17.333 0 -29.498 5.16895 -36.498 15.502s-10.5 22.166 -10.5 35.499c0 6.66699 1.33301 13.834 4 21.501s6.16699 14.5 10.5 20.5s9.5 11 15.5 15s12 6.33301 18 7c18.667 0.666992 41.834 1 69.501 1h89.5l-22 627l-146 -4c-18 0 -30.5 5 -37.5 15
s-10.5 21.667 -10.5 35c0 7.33301 1.33301 14.833 4 22.5s6.16699 14.5 10.5 20.5s9.5 10.833 15.5 14.5s12.333 5.5 19 5.5c4 0 17.667 0.166992 41 0.5s51.166 0.666016 83.499 0.999023s66.666 0.833008 102.999 1.5s69.333 1.16699 99 1.5s53.667 0.5 72 0.5
s25.833 0 22.5 0c19.333 1.33301 34.166 -4.16699 44.499 -16.5s15.5 -26.166 15.5 -41.499c0 -14 -4.5 -26.667 -13.5 -38s-22.167 -17.333 -39.5 -18l-165 1c0.666992 -20 1.16699 -42.5 1.5 -67.5s1.16602 -52.167 2.49902 -81.5l4 -129
c1.33301 -44.667 2.83301 -88.5 4.5 -131.5s3.33398 -83.5 5.00098 -121.5s3.5 -70.667 5.5 -98c26 0 50.667 0.5 74 1.5s46.333 2.5 69 4.5c19.333 1.33301 34.333 -4.33398 45 -17.001s16 -27 16 -43c0 -14 -4.5 -26.833 -13.5 -38.5s-22.5 -17.834 -40.5 -18.501z
M195.002 983.002c-9.33301 11.333 -11.832 23.498 -7.49902 36.498s12.166 23.833 23.499 32.5s24.5 13.334 39.5 14.001s28.5 -5.66602 40.5 -18.999l72 -80c11.333 -13.333 15 -26.5 11 -39.5s-11.667 -23.667 -23 -32s-24 -13.5 -38 -15.5s-25.333 1.66699 -34 11z" />
    <glyph glyph-name="Iacute" unicode="&#xcd;" horiz-adv-x="580" 
d="M74 -4c-17.333 0 -29.498 5.16895 -36.498 15.502s-10.5 22.166 -10.5 35.499c0 6.66699 1.33301 13.834 4 21.501s6.16699 14.5 10.5 20.5s9.5 11 15.5 15s12 6.33301 18 7c18.667 0.666992 41.834 1 69.501 1h89.5l-22 627l-146 -4c-18 0 -30.5 5 -37.5 15
s-10.5 21.667 -10.5 35c0 7.33301 1.33301 14.833 4 22.5s6.16699 14.5 10.5 20.5s9.5 10.833 15.5 14.5s12.333 5.5 19 5.5c4 0 17.667 0.166992 41 0.5s51.166 0.666016 83.499 0.999023s66.666 0.833008 102.999 1.5s69.333 1.16699 99 1.5s53.667 0.5 72 0.5
s25.833 0 22.5 0c19.333 1.33301 34.166 -4.16699 44.499 -16.5s15.5 -26.166 15.5 -41.499c0 -14 -4.5 -26.667 -13.5 -38s-22.167 -17.333 -39.5 -18l-165 1c0.666992 -20 1.16699 -42.5 1.5 -67.5s1.16602 -52.167 2.49902 -81.5l4 -129
c1.33301 -44.667 2.83301 -88.5 4.5 -131.5s3.33398 -83.5 5.00098 -121.5s3.5 -70.667 5.5 -98c26 0 50.667 0.5 74 1.5s46.333 2.5 69 4.5c19.333 1.33301 34.333 -4.33398 45 -17.001s16 -27 16 -43c0 -14 -4.5 -26.833 -13.5 -38.5s-22.5 -17.834 -40.5 -18.501z
M285.002 891.002c-8.66699 -9.33301 -19.999 -12.998 -33.999 -10.998s-26.667 7.16699 -38 15.5s-19 19 -23 32s-0.333008 26.167 11 39.5l72 80c12 13.333 25.5 19.666 40.5 18.999s28.167 -5.33398 39.5 -14.001s19.166 -19.5 23.499 -32.5s1.83301 -25.167 -7.5 -36.5z
" />
    <glyph glyph-name="Icircumflex" unicode="&#xce;" horiz-adv-x="580" 
d="M74 -4c-17.333 0 -29.498 5.16895 -36.498 15.502s-10.5 22.166 -10.5 35.499c0 6.66699 1.33301 13.834 4 21.501s6.16699 14.5 10.5 20.5s9.5 11 15.5 15s12 6.33301 18 7c18.667 0.666992 41.834 1 69.501 1h89.5l-22 627l-146 -4c-18 0 -30.5 5 -37.5 15
s-10.5 21.667 -10.5 35c0 7.33301 1.33301 14.833 4 22.5s6.16699 14.5 10.5 20.5s9.5 10.833 15.5 14.5s12.333 5.5 19 5.5c4 0 17.667 0.166992 41 0.5s51.166 0.666016 83.499 0.999023s66.666 0.833008 102.999 1.5s69.333 1.16699 99 1.5s53.667 0.5 72 0.5
s25.833 0 22.5 0c19.333 1.33301 34.166 -4.16699 44.499 -16.5s15.5 -26.166 15.5 -41.499c0 -14 -4.5 -26.667 -13.5 -38s-22.167 -17.333 -39.5 -18l-165 1c0.666992 -20 1.16699 -42.5 1.5 -67.5s1.16602 -52.167 2.49902 -81.5l4 -129
c1.33301 -44.667 2.83301 -88.5 4.5 -131.5s3.33398 -83.5 5.00098 -121.5s3.5 -70.667 5.5 -98c26 0 50.667 0.5 74 1.5s46.333 2.5 69 4.5c19.333 1.33301 34.333 -4.33398 45 -17.001s16 -27 16 -43c0 -14 -4.5 -26.833 -13.5 -38.5s-22.5 -17.834 -40.5 -18.501z
M254.002 1048l-1 -0.999023c4 8 10.167 14.167 18.5 18.5s16.833 6.66602 25.5 6.99902s16.834 -1.5 24.501 -5.5s13.5 -10.333 17.5 -19l61 -104c6 -11.333 5.66699 -21.833 -1 -31.5s-15.5 -17 -26.5 -22s-22.167 -7 -33.5 -6s-19 6.16699 -23 15.5l-18 27l-16 -31
c-2 -8 -9 -12.833 -21 -14.5s-24 -0.5 -36 3.5s-21.833 10.833 -29.5 20.5s-7.83398 22.167 -0.500977 37.5z" />
    <glyph glyph-name="Idieresis" unicode="&#xcf;" horiz-adv-x="580" 
d="M74 -4c-17.333 0 -29.498 5.16895 -36.498 15.502s-10.5 22.166 -10.5 35.499c0 6.66699 1.33301 13.834 4 21.501s6.16699 14.5 10.5 20.5s9.5 11 15.5 15s12 6.33301 18 7c18.667 0.666992 41.834 1 69.501 1h89.5l-22 627l-146 -4c-18 0 -30.5 5 -37.5 15
s-10.5 21.667 -10.5 35c0 7.33301 1.33301 14.833 4 22.5s6.16699 14.5 10.5 20.5s9.5 10.833 15.5 14.5s12.333 5.5 19 5.5c4 0 17.667 0.166992 41 0.5s51.166 0.666016 83.499 0.999023s66.666 0.833008 102.999 1.5s69.333 1.16699 99 1.5s53.667 0.5 72 0.5
s25.833 0 22.5 0c19.333 1.33301 34.166 -4.16699 44.499 -16.5s15.5 -26.166 15.5 -41.499c0 -14 -4.5 -26.667 -13.5 -38s-22.167 -17.333 -39.5 -18l-165 1c0.666992 -20 1.16699 -42.5 1.5 -67.5s1.16602 -52.167 2.49902 -81.5l4 -129
c1.33301 -44.667 2.83301 -88.5 4.5 -131.5s3.33398 -83.5 5.00098 -121.5s3.5 -70.667 5.5 -98c26 0 50.667 0.5 74 1.5s46.333 2.5 69 4.5c19.333 1.33301 34.333 -4.33398 45 -17.001s16 -27 16 -43c0 -14 -4.5 -26.833 -13.5 -38.5s-22.5 -17.834 -40.5 -18.501z
M266.002 957.002c7.33301 -10 10.0039 -20.499 8.00391 -31.499s-6.83301 -20.833 -14.5 -29.5s-17 -15.834 -28 -21.501s-22.167 -8.5 -33.5 -8.5c-10.667 0 -20.834 2.5 -30.501 7.5s-17.5 13.167 -23.5 24.5c-6 12.667 -8.33301 24.5 -7 35.5s5.33301 20.5 12 28.5
s15.167 14.167 25.5 18.5s21.166 6.5 32.499 6.5s22.166 -2.16699 32.499 -6.5s19.166 -11.833 26.499 -22.5v-1zM423.006 962.003c7.33301 -10 10.0029 -20.3301 8.00293 -30.9971s-6.83301 -20.334 -14.5 -29.001s-17.167 -15.834 -28.5 -21.501
s-22.666 -8.5 -33.999 -8.5c-10.667 0 -20.834 2.5 -30.501 7.5s-17.167 13.167 -22.5 24.5c-6 12.667 -8.33301 24.5 -7 35.5s5.33301 20.5 12 28.5s15.167 14.167 25.5 18.5s21.166 6.5 32.499 6.5s22.166 -2.33301 32.499 -7s19.166 -12.334 26.499 -23.001v-1z" />
    <glyph glyph-name="Eth" unicode="&#xd0;" horiz-adv-x="771" 
d="M107 379l-31.0049 0.00292969c-18 -0.666992 -30.833 4.83301 -38.5 16.5s-11.5 25.167 -11.5 40.5s4 29.166 12 41.499s18.667 19.166 32 20.499h35c-1.33301 50.667 -3.16602 101.167 -5.49902 151.5s-4.16602 101.166 -5.49902 152.499
c-0.666992 18.667 4.5 32 15.5 40s23.833 12 38.5 12c16.667 0 31.334 -4.66699 44.001 -14c15.333 3.33301 31.666 5.66602 48.999 6.99902s34.666 2 51.999 2c56.667 0 111.334 -8.83301 164.001 -26.5s99 -43.667 139 -78s71.167 -77.166 93.5 -128.499
s31.5 -111 27.5 -179c-5.33301 -74.667 -22.666 -140.334 -51.999 -197.001s-67.166 -103.667 -113.499 -141s-98.833 -65.166 -157.5 -83.499s-119.667 -26.5 -183 -24.5c-9.33301 -4.66699 -19.666 -7 -30.999 -7c-14 0 -27.333 4 -40 12s-19.667 20 -21 36z
M593.995 426.003c0.666992 6 1.00098 11.5 1.00098 16.5v15.5c0 46.667 -7.66699 87.167 -23 121.5s-36 62.833 -62 85.5s-56.167 39.667 -90.5 51s-70.833 17 -109.5 17c-32 0 -64.667 -3.66699 -98 -11c1.33301 -39.333 3 -76.333 5 -111s3.66699 -72 5 -112h2
c37.333 0 77 0.333008 119 1s84 2.66699 126 6c21.333 1.33301 37.166 -4.83398 47.499 -18.501s15.5 -29.167 15.5 -46.5c0 -14.667 -4.16699 -28.167 -12.5 -40.5s-21.166 -19.166 -38.499 -20.499l-255 -1c2.66699 -57.333 4.66699 -109.5 6 -156.5
s3.66602 -87.833 6.99902 -122.5c47.333 -0.666992 91.833 7 133.5 23s78.167 38.667 109.5 68s56.833 64 76.5 104s31.5 83.667 35.5 131z" />
    <glyph glyph-name="Ntilde" unicode="&#xd1;" horiz-adv-x="711" 
d="M164 604c0 -4 -0.164062 -8.00195 -0.49707 -12.002s-0.5 -8 -0.5 -12v1c-1.33301 -50.667 -2.33301 -104 -3 -160s-1 -109.333 -1 -160c0 -44 0.5 -83.667 1.5 -119s2.83301 -63 5.5 -83c2 -20.667 -4.16699 -36.5 -18.5 -47.5s-29.833 -16.5 -46.5 -16.5
c-14.667 0 -28 4 -40 12s-18.667 20.667 -20 38l3 744c0 22 5.83301 38.167 17.5 48.5s25.5 15.5 41.5 15.5c9.33301 0 19.166 -2.33301 29.499 -7s19.166 -11 26.499 -19c6.66699 -7.33301 15.667 -19.333 27 -36l39.5 -59.5l49.5 -77l57 -89.5l55.5 -88l50 -79l48.5 -74.5
l50 -75.5l-10 277l-10 277c1.33301 16 7.16602 28.333 17.499 37s22.5 13 36.5 13c15.333 0 29.666 -4.16699 42.999 -12.5s20.666 -18.833 21.999 -31.5c0.666992 -10 1.5 -24.5 2.5 -43.5s1.83301 -41.167 2.5 -66.5s1.5 -53.166 2.5 -83.499s1.83301 -61.5 2.5 -93.5
c1.33301 -44 2.83301 -89 4.5 -135l5 -131.5c1.66699 -41.667 3.33398 -79.167 5.00098 -112.5s3.16699 -59.666 4.5 -78.999c0.666992 -8.66699 -0.666016 -17.167 -3.99902 -25.5s-8 -15.666 -14 -21.999s-13.167 -11.5 -21.5 -15.5s-16.833 -6 -25.5 -6
c-8 0 -15.833 1.66699 -23.5 5s-14.5 8.66602 -20.5 15.999zM190.003 903.998c-3.33301 -11.333 -8.83594 -19.335 -16.5029 -24.002s-16.167 -7 -25.5 -7c-8.66699 0 -17.167 2.33301 -25.5 7s-15.5 10.667 -21.5 18s-10.167 15.333 -12.5 24s-1.83301 16.667 1.5 24
c8 16 16.833 32.5 26.5 49.5s20.834 32.667 33.501 47s27.334 26.5 44.001 36.5s36.334 16.667 59.001 20c35.333 4 65.833 -0.5 91.5 -13.5s51.5 -33.5 77.5 -61.5l20 -21c6 -6 11.667 -9.33301 17 -10c6.66699 -1.33301 13 -0.166016 19 3.50098s12 8.66699 18 15
s11.667 13.666 17 21.999l16 24.5c6 8.66699 15.333 13.667 28 15s25 0 37 -4s21.833 -10.667 29.5 -20s9.5 -20.333 5.5 -33c-6.66699 -21.333 -16.834 -40.5 -30.501 -57.5s-28.5 -31.5 -44.5 -43.5s-32.333 -21.167 -49 -27.5s-31.667 -9.5 -45 -9.5
s-25.333 1.83301 -36 5.5s-20.667 8.83398 -30 15.501s-18 14 -26 22l-24 25c-12.667 13.333 -25.167 25.5 -37.5 36.5s-25.5 14.833 -39.5 11.5h1c-8 -1.33301 -19.667 -8.16602 -35 -20.499s-29.666 -35.5 -42.999 -69.5z" />
    <glyph glyph-name="Ograve" unicode="&#xd2;" horiz-adv-x="731" 
d="M289 0c-54.667 6 -99.501 22.832 -134.501 50.499s-62.167 61.5 -81.5 101.5s-32 84.167 -38 132.5s-7.66699 96.166 -5 143.499c2.66699 52 12.334 103.667 29.001 155s40.167 97 70.5 137s67.5 71.667 111.5 95s95 32.666 153 27.999h-1
c42.667 -3.33301 80.834 -13.666 114.501 -30.999s62.5 -39 86.5 -65s43.333 -55.167 58 -87.5s24.667 -65.166 30 -98.499c4.66699 -27.333 7 -57.666 7 -90.999c0 -56 -8 -112 -24 -168s-39.333 -106.5 -70 -151.5s-68.667 -81.667 -114 -110s-97.333 -42.5 -156 -42.5
c-6.66699 0 -12.834 0.166992 -18.501 0.5s-11.5 0.833008 -17.5 1.5zM300.999 111.999c4 -0.666992 8.16797 -1.16504 12.501 -1.49805s8.16602 -0.5 11.499 -0.5c39.333 0 74.5 11.667 105.5 35s57.333 52.833 79 88.5s38.167 74.167 49.5 115.5s17 80 17 116
c0 12 -1 24.667 -3 38c-3.33301 25.333 -10 50.833 -20 76.5s-23.167 49 -39.5 70s-36 38.667 -59 53s-48.833 22.833 -77.5 25.5c-40 0 -74.167 -11.5 -102.5 -34.5s-51.5 -50.833 -69.5 -83.5s-31.667 -66.167 -41 -100.5s-15 -62.833 -17 -85.5
c-3.33301 -24.667 -3.33301 -54 0 -88s11 -66.833 23 -98.5s28.667 -59.334 50 -83.001s48.333 -37.834 81 -42.501zM270 983.001c-9.33301 11.333 -11.832 23.498 -7.49902 36.498s12.166 23.833 23.499 32.5s24.5 13.334 39.5 14.001s28.5 -5.66602 40.5 -18.999l72 -80
c11.333 -13.333 15 -26.5 11 -39.5s-11.667 -23.667 -23 -32s-24 -13.5 -38 -15.5s-25.333 1.66699 -34 11z" />
    <glyph glyph-name="Oacute" unicode="&#xd3;" horiz-adv-x="731" 
d="M289 0c-54.667 6 -99.501 22.832 -134.501 50.499s-62.167 61.5 -81.5 101.5s-32 84.167 -38 132.5s-7.66699 96.166 -5 143.499c2.66699 52 12.334 103.667 29.001 155s40.167 97 70.5 137s67.5 71.667 111.5 95s95 32.666 153 27.999h-1
c42.667 -3.33301 80.834 -13.666 114.501 -30.999s62.5 -39 86.5 -65s43.333 -55.167 58 -87.5s24.667 -65.166 30 -98.499c4.66699 -27.333 7 -57.666 7 -90.999c0 -56 -8 -112 -24 -168s-39.333 -106.5 -70 -151.5s-68.667 -81.667 -114 -110s-97.333 -42.5 -156 -42.5
c-6.66699 0 -12.834 0.166992 -18.501 0.5s-11.5 0.833008 -17.5 1.5zM300.999 111.999c4 -0.666992 8.16797 -1.16504 12.501 -1.49805s8.16602 -0.5 11.499 -0.5c39.333 0 74.5 11.667 105.5 35s57.333 52.833 79 88.5s38.167 74.167 49.5 115.5s17 80 17 116
c0 12 -1 24.667 -3 38c-3.33301 25.333 -10 50.833 -20 76.5s-23.167 49 -39.5 70s-36 38.667 -59 53s-48.833 22.833 -77.5 25.5c-40 0 -74.167 -11.5 -102.5 -34.5s-51.5 -50.833 -69.5 -83.5s-31.667 -66.167 -41 -100.5s-15 -62.833 -17 -85.5
c-3.33301 -24.667 -3.33301 -54 0 -88s11 -66.833 23 -98.5s28.667 -59.334 50 -83.001s48.333 -37.834 81 -42.501zM360 891.001c-8.66699 -9.33301 -19.999 -12.998 -33.999 -10.998s-26.667 7.16699 -38 15.5s-19 19 -23 32s-0.333008 26.167 11 39.5l72 80
c12 13.333 25.5 19.666 40.5 18.999s28.167 -5.33398 39.5 -14.001s19.166 -19.5 23.499 -32.5s1.83301 -25.167 -7.5 -36.5z" />
    <glyph glyph-name="Ocircumflex" unicode="&#xd4;" horiz-adv-x="731" 
d="M289 0c-54.667 6 -99.501 22.832 -134.501 50.499s-62.167 61.5 -81.5 101.5s-32 84.167 -38 132.5s-7.66699 96.166 -5 143.499c2.66699 52 12.334 103.667 29.001 155s40.167 97 70.5 137s67.5 71.667 111.5 95s95 32.666 153 27.999h-1
c42.667 -3.33301 80.834 -13.666 114.501 -30.999s62.5 -39 86.5 -65s43.333 -55.167 58 -87.5s24.667 -65.166 30 -98.499c4.66699 -27.333 7 -57.666 7 -90.999c0 -56 -8 -112 -24 -168s-39.333 -106.5 -70 -151.5s-68.667 -81.667 -114 -110s-97.333 -42.5 -156 -42.5
c-6.66699 0 -12.834 0.166992 -18.501 0.5s-11.5 0.833008 -17.5 1.5zM300.999 111.999c4 -0.666992 8.16797 -1.16504 12.501 -1.49805s8.16602 -0.5 11.499 -0.5c39.333 0 74.5 11.667 105.5 35s57.333 52.833 79 88.5s38.167 74.167 49.5 115.5s17 80 17 116
c0 12 -1 24.667 -3 38c-3.33301 25.333 -10 50.833 -20 76.5s-23.167 49 -39.5 70s-36 38.667 -59 53s-48.833 22.833 -77.5 25.5c-40 0 -74.167 -11.5 -102.5 -34.5s-51.5 -50.833 -69.5 -83.5s-31.667 -66.167 -41 -100.5s-15 -62.833 -17 -85.5
c-3.33301 -24.667 -3.33301 -54 0 -88s11 -66.833 23 -98.5s28.667 -59.334 50 -83.001s48.333 -37.834 81 -42.501zM329 1048l-1 -0.999023c4 8 10.167 14.167 18.5 18.5s16.833 6.66602 25.5 6.99902s16.834 -1.5 24.501 -5.5s13.5 -10.333 17.5 -19l61 -104
c6 -11.333 5.66699 -21.833 -1 -31.5s-15.5 -17 -26.5 -22s-22.167 -7 -33.5 -6s-19 6.16699 -23 15.5l-18 27l-16 -31c-2 -8 -9 -12.833 -21 -14.5s-24 -0.5 -36 3.5s-21.833 10.833 -29.5 20.5s-7.83398 22.167 -0.500977 37.5z" />
    <glyph glyph-name="Otilde" unicode="&#xd5;" horiz-adv-x="731" 
d="M289 0c-54.667 6 -99.501 22.832 -134.501 50.499s-62.167 61.5 -81.5 101.5s-32 84.167 -38 132.5s-7.66699 96.166 -5 143.499c2.66699 52 12.334 103.667 29.001 155s40.167 97 70.5 137s67.5 71.667 111.5 95s95 32.666 153 27.999h-1
c42.667 -3.33301 80.834 -13.666 114.501 -30.999s62.5 -39 86.5 -65s43.333 -55.167 58 -87.5s24.667 -65.166 30 -98.499c4.66699 -27.333 7 -57.666 7 -90.999c0 -56 -8 -112 -24 -168s-39.333 -106.5 -70 -151.5s-68.667 -81.667 -114 -110s-97.333 -42.5 -156 -42.5
c-6.66699 0 -12.834 0.166992 -18.501 0.5s-11.5 0.833008 -17.5 1.5zM300.999 111.999c4 -0.666992 8.16797 -1.16504 12.501 -1.49805s8.16602 -0.5 11.499 -0.5c39.333 0 74.5 11.667 105.5 35s57.333 52.833 79 88.5s38.167 74.167 49.5 115.5s17 80 17 116
c0 12 -1 24.667 -3 38c-3.33301 25.333 -10 50.833 -20 76.5s-23.167 49 -39.5 70s-36 38.667 -59 53s-48.833 22.833 -77.5 25.5c-40 0 -74.167 -11.5 -102.5 -34.5s-51.5 -50.833 -69.5 -83.5s-31.667 -66.167 -41 -100.5s-15 -62.833 -17 -85.5
c-3.33301 -24.667 -3.33301 -54 0 -88s11 -66.833 23 -98.5s28.667 -59.334 50 -83.001s48.333 -37.834 81 -42.501zM200 904.001c-3.33301 -11.333 -8.83594 -19.335 -16.5029 -24.002s-16.167 -7 -25.5 -7c-8.66699 0 -17.167 2.33301 -25.5 7s-15.5 10.667 -21.5 18
s-10.167 15.333 -12.5 24s-1.83301 16.667 1.5 24c8 16 16.833 32.5 26.5 49.5s20.834 32.667 33.501 47s27.334 26.5 44.001 36.5s36.334 16.667 59.001 20c35.333 4 65.833 -0.5 91.5 -13.5s51.5 -33.5 77.5 -61.5l20 -21c6 -6 11.667 -9.33301 17 -10
c6.66699 -1.33301 13 -0.166016 19 3.50098s12 8.66699 18 15s11.667 13.666 17 21.999l16 24.5c6 8.66699 15.333 13.667 28 15s25 0 37 -4s21.833 -10.667 29.5 -20s9.5 -20.333 5.5 -33c-6.66699 -21.333 -16.834 -40.5 -30.501 -57.5s-28.5 -31.5 -44.5 -43.5
s-32.333 -21.167 -49 -27.5s-31.667 -9.5 -45 -9.5s-25.333 1.83301 -36 5.5s-20.667 8.83398 -30 15.501s-18 14 -26 22l-24 25c-12.667 13.333 -25.167 25.5 -37.5 36.5s-25.5 14.833 -39.5 11.5h1c-8 -1.33301 -19.667 -8.16602 -35 -20.499s-29.666 -35.5 -42.999 -69.5
z" />
    <glyph glyph-name="Odieresis" unicode="&#xd6;" horiz-adv-x="731" 
d="M289 0c-54.667 6 -99.501 22.832 -134.501 50.499s-62.167 61.5 -81.5 101.5s-32 84.167 -38 132.5s-7.66699 96.166 -5 143.499c2.66699 52 12.334 103.667 29.001 155s40.167 97 70.5 137s67.5 71.667 111.5 95s95 32.666 153 27.999h-1
c42.667 -3.33301 80.834 -13.666 114.501 -30.999s62.5 -39 86.5 -65s43.333 -55.167 58 -87.5s24.667 -65.166 30 -98.499c4.66699 -27.333 7 -57.666 7 -90.999c0 -56 -8 -112 -24 -168s-39.333 -106.5 -70 -151.5s-68.667 -81.667 -114 -110s-97.333 -42.5 -156 -42.5
c-6.66699 0 -12.834 0.166992 -18.501 0.5s-11.5 0.833008 -17.5 1.5zM300.999 111.999c4 -0.666992 8.16797 -1.16504 12.501 -1.49805s8.16602 -0.5 11.499 -0.5c39.333 0 74.5 11.667 105.5 35s57.333 52.833 79 88.5s38.167 74.167 49.5 115.5s17 80 17 116
c0 12 -1 24.667 -3 38c-3.33301 25.333 -10 50.833 -20 76.5s-23.167 49 -39.5 70s-36 38.667 -59 53s-48.833 22.833 -77.5 25.5c-40 0 -74.167 -11.5 -102.5 -34.5s-51.5 -50.833 -69.5 -83.5s-31.667 -66.167 -41 -100.5s-15 -62.833 -17 -85.5
c-3.33301 -24.667 -3.33301 -54 0 -88s11 -66.833 23 -98.5s28.667 -59.334 50 -83.001s48.333 -37.834 81 -42.501zM341 957.001c7.33301 -10 10.0039 -20.499 8.00391 -31.499s-6.83301 -20.833 -14.5 -29.5s-17 -15.834 -28 -21.501s-22.167 -8.5 -33.5 -8.5
c-10.667 0 -20.834 2.5 -30.501 7.5s-17.5 13.167 -23.5 24.5c-6 12.667 -8.33301 24.5 -7 35.5s5.33301 20.5 12 28.5s15.167 14.167 25.5 18.5s21.166 6.5 32.499 6.5s22.166 -2.16699 32.499 -6.5s19.166 -11.833 26.499 -22.5v-1zM498.004 962.002
c7.33301 -10 10.0029 -20.3301 8.00293 -30.9971s-6.83301 -20.334 -14.5 -29.001s-17.167 -15.834 -28.5 -21.501s-22.666 -8.5 -33.999 -8.5c-10.667 0 -20.834 2.5 -30.501 7.5s-17.167 13.167 -22.5 24.5c-6 12.667 -8.33301 24.5 -7 35.5s5.33301 20.5 12 28.5
s15.167 14.167 25.5 18.5s21.166 6.5 32.499 6.5s22.166 -2.33301 32.499 -7s19.166 -12.334 26.499 -23.001v-1z" />
    <glyph glyph-name="multiply" unicode="&#xd7;" horiz-adv-x="582" 
d="M366 370l39.5 -42.9971c13 -14 27.167 -27.667 42.5 -41c12 -13.333 18 -26.333 18 -39c0 -11.333 -3.66699 -22.333 -11 -33s-16.166 -19 -26.499 -25s-21.666 -9.16699 -33.999 -9.5s-23.5 4.16699 -33.5 13.5l-81 91l-82 -82h1c-12 -12.667 -25 -17.834 -39 -15.501
s-26.333 8.66602 -37 18.999s-17.5 23 -20.5 38s0.5 28.5 10.5 40.5c8.66699 10.667 19.5 22.167 32.5 34.5l39.5 38.5l17 17l-89 99v-1c-12 14 -16 28 -12 42s11.833 25.5 23.5 34.5s24.834 14.5 39.501 16.5s26.667 -2 36 -12l22 -24l25 -28l10 -11.5l8 -9l8.5 -9.5
c3 -3.33301 6.83301 -7.33301 11.5 -12l40 43l41 46h-1c6 7.33301 12.667 12.666 20 15.999s14.666 5 21.999 5c11.333 0 22.166 -3.33301 32.499 -10s18.666 -15.167 24.999 -25.5s9.5 -21.5 9.5 -33.5s-4.33301 -23 -13 -33z" />
    <glyph glyph-name="Oslash" unicode="&#xd8;" horiz-adv-x="731" 
d="M231 -25c-9.33301 0 -18.502 1.66211 -27.502 4.99512s-16.667 8 -23 14s-11 13.167 -14 21.5s-3.5 17.5 -1.5 27.5c-26 16.667 -47.667 37.334 -65 62.001s-31.166 51.834 -41.499 81.501s-17.833 60.834 -22.5 93.501s-7 65.667 -7 99
c0 8.66699 0.166992 17.167 0.5 25.5s0.833008 16.5 1.5 24.5c2.66699 32.667 8 66 16 100s19 66.833 33 98.5s31 61.334 51 89.001s43 51.334 69 71.001s55.167 34.5 87.5 44.5s67.833 13.667 106.5 11c8 -1.33301 16.167 -2.5 24.5 -3.5s16.833 -2.83301 25.5 -5.5
c4 7.33301 9.83301 13.166 17.5 17.499s15.167 6.5 22.5 6.5c8 0 16.5 -2 25.5 -6s17 -9.16699 24 -15.5s12.5 -13.5 16.5 -21.5s5.33301 -15.667 4 -23c-0.666992 -0.666992 -1 -2 -1 -4c0 -1.33301 -0.333008 -2.33301 -1 -3v-1c36 -28 64.833 -61.667 86.5 -101
s36.167 -80 43.5 -122c4.66699 -27.333 7 -57.666 7 -90.999c0 -56 -8 -112 -24 -168s-39.333 -106.5 -70 -151.5s-68.667 -81.667 -114 -110s-97.333 -42.5 -156 -42.5c-6 0 -12.167 0.166992 -18.5 0.5s-12.166 0.833008 -17.499 1.5h-9
c-5.33301 -8.66699 -12.5 -15 -21.5 -19s-18.167 -6 -27.5 -6zM146.998 423.995c-2 -14 -2.99902 -28.002 -2.99902 -42.002c0 -18.667 1.16699 -37.667 3.5 -57s6 -38.5 11 -57.5s11.5 -37.167 19.5 -54.5s17.667 -33 29 -47l98.5 279l99.5 280
c-5.33301 1.33301 -10 2 -14 2s-8.66699 0.333008 -14 1c-27.333 1.33301 -52 -3.16699 -74 -13.5s-41.333 -24.166 -58 -41.499s-30.834 -37.166 -42.501 -59.499s-21.334 -45 -29.001 -68s-13.667 -45 -18 -66s-7.16602 -39.167 -8.49902 -54.5v-1zM466.999 542.993
l-41.001 -112.5l-40.5 -115.5l-36.5 -109.5l-30 -95.5h6c39.333 0 74.5 11.667 105.5 35s57.333 52.833 79 88.5s38.167 74.167 49.5 115.5s17 80 17 116c0 12 -1 24.667 -3 38c-4 28 -11.167 56 -21.5 84s-24.166 52.667 -41.499 74z" />
    <glyph glyph-name="Ugrave" unicode="&#xd9;" horiz-adv-x="740" 
d="M372 -8c-61.333 -2 -113.169 9.49707 -155.502 34.4971s-76.666 62.167 -102.999 111.5s-45.333 110.166 -57 182.499s-17.5 155.166 -17.5 248.499c0 36.667 0.833008 75 2.5 115s4.16699 81.333 7.5 124c1.33301 13.333 9 24.333 23 33s28.333 13 43 13
c15.333 0 28.666 -4.5 39.999 -13.5s15.333 -24.5 12 -46.5v1c-3.33301 -27.333 -6.5 -60.5 -9.5 -99.5s-4.5 -80.5 -4.5 -124.5c0 -36 1.33301 -72.5 4 -109.5s7 -72.833 13 -107.5s14.5 -67.167 25.5 -97.5s24.5 -56.5 40.5 -78.5s35.333 -39.167 58 -51.5
s49 -17.5 79 -15.5c38.667 2 70.834 12.667 96.501 32s46 44.833 61 76.5s25.5 68.334 31.5 110.001s9 85.834 9 132.501c0 52 -3 106.333 -9 163s-13 111 -21 163c-0.666992 8.66699 1 16.834 5 24.501s9.33301 14.167 16 19.5s14.167 9.66602 22.5 12.999s16.5 5 24.5 5
c13.333 0 25 -3.5 35 -10.5s16 -18.5 18 -34.5l17 -166.5c6 -59.667 9 -118.5 9 -176.5c0 -59.333 -4.16699 -116.666 -12.5 -171.999s-24.166 -104.666 -47.499 -147.999s-55.5 -78.666 -96.5 -105.999s-94.167 -42 -159.5 -44zM274.997 982.997
c-9.33301 11.333 -11.832 23.498 -7.49902 36.498s12.166 23.833 23.499 32.5s24.5 13.334 39.5 14.001s28.5 -5.66602 40.5 -18.999l72 -80c11.333 -13.333 15 -26.5 11 -39.5s-11.667 -23.667 -23 -32s-24 -13.5 -38 -15.5s-25.333 1.66699 -34 11z" />
    <glyph glyph-name="Uacute" unicode="&#xda;" horiz-adv-x="740" 
d="M372 -8c-61.333 -2 -113.169 9.49707 -155.502 34.4971s-76.666 62.167 -102.999 111.5s-45.333 110.166 -57 182.499s-17.5 155.166 -17.5 248.499c0 36.667 0.833008 75 2.5 115s4.16699 81.333 7.5 124c1.33301 13.333 9 24.333 23 33s28.333 13 43 13
c15.333 0 28.666 -4.5 39.999 -13.5s15.333 -24.5 12 -46.5v1c-3.33301 -27.333 -6.5 -60.5 -9.5 -99.5s-4.5 -80.5 -4.5 -124.5c0 -36 1.33301 -72.5 4 -109.5s7 -72.833 13 -107.5s14.5 -67.167 25.5 -97.5s24.5 -56.5 40.5 -78.5s35.333 -39.167 58 -51.5
s49 -17.5 79 -15.5c38.667 2 70.834 12.667 96.501 32s46 44.833 61 76.5s25.5 68.334 31.5 110.001s9 85.834 9 132.501c0 52 -3 106.333 -9 163s-13 111 -21 163c-0.666992 8.66699 1 16.834 5 24.501s9.33301 14.167 16 19.5s14.167 9.66602 22.5 12.999s16.5 5 24.5 5
c13.333 0 25 -3.5 35 -10.5s16 -18.5 18 -34.5l17 -166.5c6 -59.667 9 -118.5 9 -176.5c0 -59.333 -4.16699 -116.666 -12.5 -171.999s-24.166 -104.666 -47.499 -147.999s-55.5 -78.666 -96.5 -105.999s-94.167 -42 -159.5 -44zM364.997 890.997
c-8.66699 -9.33301 -19.999 -12.998 -33.999 -10.998s-26.667 7.16699 -38 15.5s-19 19 -23 32s-0.333008 26.167 11 39.5l72 80c12 13.333 25.5 19.666 40.5 18.999s28.167 -5.33398 39.5 -14.001s19.166 -19.5 23.499 -32.5s1.83301 -25.167 -7.5 -36.5z" />
    <glyph glyph-name="Ucircumflex" unicode="&#xdb;" horiz-adv-x="740" 
d="M372 -8c-61.333 -2 -113.169 9.49707 -155.502 34.4971s-76.666 62.167 -102.999 111.5s-45.333 110.166 -57 182.499s-17.5 155.166 -17.5 248.499c0 36.667 0.833008 75 2.5 115s4.16699 81.333 7.5 124c1.33301 13.333 9 24.333 23 33s28.333 13 43 13
c15.333 0 28.666 -4.5 39.999 -13.5s15.333 -24.5 12 -46.5v1c-3.33301 -27.333 -6.5 -60.5 -9.5 -99.5s-4.5 -80.5 -4.5 -124.5c0 -36 1.33301 -72.5 4 -109.5s7 -72.833 13 -107.5s14.5 -67.167 25.5 -97.5s24.5 -56.5 40.5 -78.5s35.333 -39.167 58 -51.5
s49 -17.5 79 -15.5c38.667 2 70.834 12.667 96.501 32s46 44.833 61 76.5s25.5 68.334 31.5 110.001s9 85.834 9 132.501c0 52 -3 106.333 -9 163s-13 111 -21 163c-0.666992 8.66699 1 16.834 5 24.501s9.33301 14.167 16 19.5s14.167 9.66602 22.5 12.999s16.5 5 24.5 5
c13.333 0 25 -3.5 35 -10.5s16 -18.5 18 -34.5l17 -166.5c6 -59.667 9 -118.5 9 -176.5c0 -59.333 -4.16699 -116.666 -12.5 -171.999s-24.166 -104.666 -47.499 -147.999s-55.5 -78.666 -96.5 -105.999s-94.167 -42 -159.5 -44zM333.997 1048l-1 -0.999023
c4 8 10.167 14.167 18.5 18.5s16.833 6.66602 25.5 6.99902s16.834 -1.5 24.501 -5.5s13.5 -10.333 17.5 -19l61 -104c6 -11.333 5.66699 -21.833 -1 -31.5s-15.5 -17 -26.5 -22s-22.167 -7 -33.5 -6s-19 6.16699 -23 15.5l-18 27l-16 -31c-2 -8 -9 -12.833 -21 -14.5
s-24 -0.5 -36 3.5s-21.833 10.833 -29.5 20.5s-7.83398 22.167 -0.500977 37.5z" />
    <glyph glyph-name="Udieresis" unicode="&#xdc;" horiz-adv-x="740" 
d="M372 -8c-61.333 -2 -113.169 9.49707 -155.502 34.4971s-76.666 62.167 -102.999 111.5s-45.333 110.166 -57 182.499s-17.5 155.166 -17.5 248.499c0 36.667 0.833008 75 2.5 115s4.16699 81.333 7.5 124c1.33301 13.333 9 24.333 23 33s28.333 13 43 13
c15.333 0 28.666 -4.5 39.999 -13.5s15.333 -24.5 12 -46.5v1c-3.33301 -27.333 -6.5 -60.5 -9.5 -99.5s-4.5 -80.5 -4.5 -124.5c0 -36 1.33301 -72.5 4 -109.5s7 -72.833 13 -107.5s14.5 -67.167 25.5 -97.5s24.5 -56.5 40.5 -78.5s35.333 -39.167 58 -51.5
s49 -17.5 79 -15.5c38.667 2 70.834 12.667 96.501 32s46 44.833 61 76.5s25.5 68.334 31.5 110.001s9 85.834 9 132.501c0 52 -3 106.333 -9 163s-13 111 -21 163c-0.666992 8.66699 1 16.834 5 24.501s9.33301 14.167 16 19.5s14.167 9.66602 22.5 12.999s16.5 5 24.5 5
c13.333 0 25 -3.5 35 -10.5s16 -18.5 18 -34.5l17 -166.5c6 -59.667 9 -118.5 9 -176.5c0 -59.333 -4.16699 -116.666 -12.5 -171.999s-24.166 -104.666 -47.499 -147.999s-55.5 -78.666 -96.5 -105.999s-94.167 -42 -159.5 -44zM345.997 956.997
c7.33301 -10 10.0039 -20.499 8.00391 -31.499s-6.83301 -20.833 -14.5 -29.5s-17 -15.834 -28 -21.501s-22.167 -8.5 -33.5 -8.5c-10.667 0 -20.834 2.5 -30.501 7.5s-17.5 13.167 -23.5 24.5c-6 12.667 -8.33301 24.5 -7 35.5s5.33301 20.5 12 28.5
s15.167 14.167 25.5 18.5s21.166 6.5 32.499 6.5s22.166 -2.16699 32.499 -6.5s19.166 -11.833 26.499 -22.5v-1zM503.001 961.998c7.33301 -10 10.0029 -20.3301 8.00293 -30.9971s-6.83301 -20.334 -14.5 -29.001s-17.167 -15.834 -28.5 -21.501
s-22.666 -8.5 -33.999 -8.5c-10.667 0 -20.834 2.5 -30.501 7.5s-17.167 13.167 -22.5 24.5c-6 12.667 -8.33301 24.5 -7 35.5s5.33301 20.5 12 28.5s15.167 14.167 25.5 18.5s21.166 6.5 32.499 6.5s22.166 -2.33301 32.499 -7s19.166 -12.334 26.499 -23.001v-1z" />
    <glyph glyph-name="Yacute" unicode="&#xdd;" horiz-adv-x="654" 
d="M382 458c-1.33301 -24.667 -2.00195 -50 -2.00195 -76v-82c0 -40 0.166992 -81.333 0.5 -124s0.833008 -86 1.5 -130c-0.666992 -17.333 -7.16699 -31.166 -19.5 -41.499s-25.166 -15.5 -38.499 -15.5c-14 0 -27.167 4.5 -39.5 13.5s-19.166 22.5 -20.499 40.5
c-0.666992 69.333 -1 127.5 -1 174.5s-0.166992 85.667 -0.5 116s-0.5 53.666 -0.5 69.999v35.5v13v2l-233 313c-10 14.667 -12.5 28.167 -7.5 40.5s13.5 22.166 25.5 29.499s25 11.166 39 11.499s25 -4.16699 33 -13.5c15.333 -17.333 29.5 -35.166 42.5 -53.499
l40.5 -56.5l56.5 -74l62.5 -81c34 40.667 66.667 81.834 98 123.501l98 131.5c8.66699 12 20.5 18.167 35.5 18.5s28.5 -3.16699 40.5 -10.5s20.5 -17.333 25.5 -30s2.16699 -26 -8.5 -40zM321.998 891c-8.66699 -9.33301 -19.999 -12.998 -33.999 -10.998
s-26.667 7.16699 -38 15.5s-19 19 -23 32s-0.333008 26.167 11 39.5l72 80c12 13.333 25.5 19.666 40.5 18.999s28.167 -5.33398 39.5 -14.001s19.166 -19.5 23.499 -32.5s1.83301 -25.167 -7.5 -36.5z" />
    <glyph glyph-name="Thorn" unicode="&#xde;" 
d="M192 -69c0 -10 -1.83496 -18.666 -5.50195 -25.999s-8.83398 -13.5 -15.501 -18.5s-14 -8.66699 -22 -11s-16 -3.5 -24 -3.5c-15.333 0 -28.833 4.16699 -40.5 12.5s-17.5 21.833 -17.5 40.5c0 18 -0.333008 41.667 -1 71s-1.5 62 -2.5 98s-2.16699 74.167 -3.5 114.5
s-2.83301 80.666 -4.5 120.999s-3.16699 79.166 -4.5 116.499s-2.66602 71.333 -3.99902 102l-5 110c-0.666992 6.66699 0.833008 13.167 4.5 19.5s8.5 11.666 14.5 15.999s13 7.83301 21 10.5s16 4 24 4c13.333 0 25.5 -3.83301 36.5 -11.5s16.5 -20.167 16.5 -37.5v-117
c32.667 24 64.834 40.833 96.501 50.5s63.834 14.5 96.501 14.5c32 0 62.833 -5.83301 92.5 -17.5s56.167 -28.167 79.5 -49.5s43.166 -47 59.499 -77s27.5 -63.333 33.5 -100c1.33301 -10 2.5 -20.667 3.5 -32s1.5 -22.666 1.5 -33.999
c0 -35.333 -4.33301 -69.333 -13 -102s-22.167 -62 -40.5 -88s-42.166 -47.667 -71.499 -65s-65 -28.666 -107 -33.999h1c-14 -2 -28.667 -3 -44 -3c-29.333 0 -57.333 3.16699 -84 9.5s-52.667 18.833 -78 37.5zM502.998 347.001c-4 23.333 -11 43.8311 -21 61.498
s-22.167 32.334 -36.5 44.001s-30.166 20.334 -47.499 26.001s-35.333 8.5 -54 8.5c-30.667 0 -61.334 -7.66699 -92.001 -23s-57.667 -38 -81 -68c0 -5.33301 0.166992 -10.5 0.5 -15.5s0.5 -10.167 0.5 -15.5c0.666992 -25.333 1.5 -51 2.5 -77s3.16699 -52.333 6.5 -79
c8 -14 18.667 -26.5 32 -37.5s27.833 -20.333 43.5 -28s32.167 -13.5 49.5 -17.5s34 -6 50 -6c7.33301 0 15 0.5 23 1.5s14.667 2.16699 20 3.5c18.667 6 34.667 15 48 27s24.5 25.833 33.5 41.5s15.667 32.5 20 50.5s6.5 36 6.5 54c0 8 -0.333008 16.167 -1 24.5
s-1.66699 16.5 -3 24.5z" />
    <glyph glyph-name="germandbls" unicode="&#xdf;" horiz-adv-x="683" 
d="M172 27c-0.666992 -17.333 -7.33398 -30.502 -20.001 -39.502s-26.334 -13.5 -41.001 -13.5c-13.333 0 -25.333 3.5 -36 10.5s-16.667 18.5 -18 34.5l-16 568c-1.33301 38 2.33398 71 11.001 99s20 51.333 34 70s29.167 33.167 45.5 43.5s32.166 16.5 47.499 18.5
c15.333 2.66699 30.333 4.66699 45 6s29.334 2 44.001 2c32.667 0 62.667 -3.5 90 -10.5s51 -17.833 71 -32.5s35.667 -33.167 47 -55.5s18 -48.5 20 -78.5c0.666992 -11.333 -1 -23.5 -5 -36.5s-9.66699 -26.333 -17 -40s-16.333 -27.167 -27 -40.5s-22.667 -26 -36 -38
c23.333 -1.33301 47 -5.5 71 -12.5s46.167 -17.667 66.5 -32s37.833 -33 52.5 -56s24.667 -51.167 30 -84.5c0 -4.66699 0.166992 -9.5 0.5 -14.5s0.5 -10.167 0.5 -15.5c0 -40 -10.333 -77.333 -31 -112s-47.5 -64.667 -80.5 -90s-70.5 -45.333 -112.5 -60
s-84.333 -22 -127 -22h-15c-5.33301 0 -10 0.333008 -14 1c-12 1.33301 -22.333 8.5 -31 21.5s-13 26.5 -13 40.5c0 13.333 3.83301 24.833 11.5 34.5s21.5 13.834 41.5 12.501c30 -1.33301 60.667 2.83398 92 12.501s59.666 23.167 84.999 40.5s45.833 37.833 61.5 61.5
s22.5 48.5 20.5 74.5c-2.66699 14.667 -9 27.5 -19 38.5s-22.667 20 -38 27s-32.666 12.167 -51.999 15.5s-39.333 5 -60 5c-34.667 0 -69.334 -4 -104.001 -12c-8 -1.33301 -15.833 0.166992 -23.5 4.5s-14.334 10.166 -20.001 17.499s-10.167 15.5 -13.5 24.5
s-5 18.167 -5 27.5c0 11.333 2.33301 21.333 7 30s12 15 22 19c14.667 5.33301 31.167 13.333 49.5 24s35.333 23.167 51 37.5s29 29.666 40 45.999s17.167 32.833 18.5 49.5c0.666992 10.667 -2.5 19.834 -9.5 27.501s-16.667 14 -29 19s-26.5 8.66699 -42.5 11
s-32.333 3.5 -49 3.5c-6.66699 0 -13.667 -0.166992 -21 -0.5s-13.666 -0.833008 -18.999 -1.5s-11 -3 -17 -7s-11.667 -10.167 -17 -18.5s-9.66602 -18.666 -12.999 -30.999s-4.66602 -26.833 -3.99902 -43.5z" />
    <glyph glyph-name="agrave" unicode="&#xe0;" horiz-adv-x="665" 
d="M190 21c-27.333 8.66699 -50.501 21.1689 -69.501 37.502s-34.833 35.5 -47.5 57.5s-21.834 45.667 -27.501 71s-8.5 51.333 -8.5 78c0 35.333 4.66699 70.666 14 105.999s22.666 65.666 39.999 90.999c20 30.667 41.667 57 65 79s48.833 38.833 76.5 50.5
s57.834 17.834 90.501 18.501s68.667 -5 108 -17c4 14.667 11.5 25.167 22.5 31.5s22.5 9.5 34.5 9.5c14 0 26.667 -4.33301 38 -13s18.333 -21.334 21 -38.001c3.33301 -25.333 6.66602 -54.333 9.99902 -87l10 -100c2.66699 -31.333 5.83398 -62.666 9.50098 -93.999
l10.5 -90c3.33301 -28.667 6.83301 -55.5 10.5 -80.5s7.5 -46.5 11.5 -64.5v1c2.66699 -10.667 2.66699 -20.667 0 -30s-6.83398 -17.333 -12.501 -24s-12.5 -11.834 -20.5 -15.501s-16 -5.5 -24 -5.5c-12.667 0 -24.167 4 -34.5 12s-17.166 20.667 -20.499 38l-9 35
c-25.333 -22 -56.666 -39.167 -93.999 -51.5s-75.666 -18.5 -114.999 -18.5c-15.333 0 -30.5 0.833008 -45.5 2.5s-29.5 5.16699 -43.5 10.5zM227.999 128.002c6.66699 -2 13.833 -3.66504 21.5 -4.99805s15.834 -2 24.501 -2c19.333 0 39.333 2.33301 60 7
s40.167 11.5 58.5 20.5s34.166 20 47.499 33s22.666 27.5 27.999 43.5c-4.66699 42 -8.66699 83.333 -12 124c-1.33301 16 -2.16602 31 -2.49902 45s-1.5 28.667 -3.5 44c-13.333 17.333 -30.5 30.333 -51.5 39s-42.833 13 -65.5 13c-28 0 -55.167 -6.83301 -81.5 -20.5
s-47.5 -33.167 -63.5 -58.5c-11.333 -19.333 -20.333 -41.833 -27 -67.5s-10 -51.834 -10 -78.501c0 -30.667 5.83301 -58.834 17.5 -84.501s31.5 -43.167 59.5 -52.5zM236.998 744.004c-9.33301 11.333 -11.832 23.498 -7.49902 36.498s12.166 23.833 23.499 32.5
s24.5 13.334 39.5 14.001s28.5 -5.66602 40.5 -18.999l72 -80c11.333 -13.333 15 -26.5 11 -39.5s-11.667 -23.667 -23 -32s-24 -13.5 -38 -15.5s-25.333 1.66699 -34 11z" />
    <glyph glyph-name="aacute" unicode="&#xe1;" horiz-adv-x="665" 
d="M190 21c-27.333 8.66699 -50.501 21.1689 -69.501 37.502s-34.833 35.5 -47.5 57.5s-21.834 45.667 -27.501 71s-8.5 51.333 -8.5 78c0 35.333 4.66699 70.666 14 105.999s22.666 65.666 39.999 90.999c20 30.667 41.667 57 65 79s48.833 38.833 76.5 50.5
s57.834 17.834 90.501 18.501s68.667 -5 108 -17c4 14.667 11.5 25.167 22.5 31.5s22.5 9.5 34.5 9.5c14 0 26.667 -4.33301 38 -13s18.333 -21.334 21 -38.001c3.33301 -25.333 6.66602 -54.333 9.99902 -87l10 -100c2.66699 -31.333 5.83398 -62.666 9.50098 -93.999
l10.5 -90c3.33301 -28.667 6.83301 -55.5 10.5 -80.5s7.5 -46.5 11.5 -64.5v1c2.66699 -10.667 2.66699 -20.667 0 -30s-6.83398 -17.333 -12.501 -24s-12.5 -11.834 -20.5 -15.501s-16 -5.5 -24 -5.5c-12.667 0 -24.167 4 -34.5 12s-17.166 20.667 -20.499 38l-9 35
c-25.333 -22 -56.666 -39.167 -93.999 -51.5s-75.666 -18.5 -114.999 -18.5c-15.333 0 -30.5 0.833008 -45.5 2.5s-29.5 5.16699 -43.5 10.5zM227.999 128.002c6.66699 -2 13.833 -3.66504 21.5 -4.99805s15.834 -2 24.501 -2c19.333 0 39.333 2.33301 60 7
s40.167 11.5 58.5 20.5s34.166 20 47.499 33s22.666 27.5 27.999 43.5c-4.66699 42 -8.66699 83.333 -12 124c-1.33301 16 -2.16602 31 -2.49902 45s-1.5 28.667 -3.5 44c-13.333 17.333 -30.5 30.333 -51.5 39s-42.833 13 -65.5 13c-28 0 -55.167 -6.83301 -81.5 -20.5
s-47.5 -33.167 -63.5 -58.5c-11.333 -19.333 -20.333 -41.833 -27 -67.5s-10 -51.834 -10 -78.501c0 -30.667 5.83301 -58.834 17.5 -84.501s31.5 -43.167 59.5 -52.5zM326.998 652.004c-8.66699 -9.33301 -19.999 -12.998 -33.999 -10.998s-26.667 7.16699 -38 15.5
s-19 19 -23 32s-0.333008 26.167 11 39.5l72 80c12 13.333 25.5 19.666 40.5 18.999s28.167 -5.33398 39.5 -14.001s19.166 -19.5 23.499 -32.5s1.83301 -25.167 -7.5 -36.5z" />
    <glyph glyph-name="acircumflex" unicode="&#xe2;" horiz-adv-x="665" 
d="M190 21c-27.333 8.66699 -50.501 21.1689 -69.501 37.502s-34.833 35.5 -47.5 57.5s-21.834 45.667 -27.501 71s-8.5 51.333 -8.5 78c0 35.333 4.66699 70.666 14 105.999s22.666 65.666 39.999 90.999c20 30.667 41.667 57 65 79s48.833 38.833 76.5 50.5
s57.834 17.834 90.501 18.501s68.667 -5 108 -17c4 14.667 11.5 25.167 22.5 31.5s22.5 9.5 34.5 9.5c14 0 26.667 -4.33301 38 -13s18.333 -21.334 21 -38.001c3.33301 -25.333 6.66602 -54.333 9.99902 -87l10 -100c2.66699 -31.333 5.83398 -62.666 9.50098 -93.999
l10.5 -90c3.33301 -28.667 6.83301 -55.5 10.5 -80.5s7.5 -46.5 11.5 -64.5v1c2.66699 -10.667 2.66699 -20.667 0 -30s-6.83398 -17.333 -12.501 -24s-12.5 -11.834 -20.5 -15.501s-16 -5.5 -24 -5.5c-12.667 0 -24.167 4 -34.5 12s-17.166 20.667 -20.499 38l-9 35
c-25.333 -22 -56.666 -39.167 -93.999 -51.5s-75.666 -18.5 -114.999 -18.5c-15.333 0 -30.5 0.833008 -45.5 2.5s-29.5 5.16699 -43.5 10.5zM227.999 128.002c6.66699 -2 13.833 -3.66504 21.5 -4.99805s15.834 -2 24.501 -2c19.333 0 39.333 2.33301 60 7
s40.167 11.5 58.5 20.5s34.166 20 47.499 33s22.666 27.5 27.999 43.5c-4.66699 42 -8.66699 83.333 -12 124c-1.33301 16 -2.16602 31 -2.49902 45s-1.5 28.667 -3.5 44c-13.333 17.333 -30.5 30.333 -51.5 39s-42.833 13 -65.5 13c-28 0 -55.167 -6.83301 -81.5 -20.5
s-47.5 -33.167 -63.5 -58.5c-11.333 -19.333 -20.333 -41.833 -27 -67.5s-10 -51.834 -10 -78.501c0 -30.667 5.83301 -58.834 17.5 -84.501s31.5 -43.167 59.5 -52.5zM295.998 809.004l-1 -0.999023c4 8 10.167 14.167 18.5 18.5s16.833 6.66602 25.5 6.99902
s16.834 -1.5 24.501 -5.5s13.5 -10.333 17.5 -19l61 -104c6 -11.333 5.66699 -21.833 -1 -31.5s-15.5 -17 -26.5 -22s-22.167 -7 -33.5 -6s-19 6.16699 -23 15.5l-18 27l-16 -31c-2 -8 -9 -12.833 -21 -14.5s-24 -0.5 -36 3.5s-21.833 10.833 -29.5 20.5
s-7.83398 22.167 -0.500977 37.5z" />
    <glyph glyph-name="atilde" unicode="&#xe3;" horiz-adv-x="665" 
d="M190 21c-27.333 8.66699 -50.501 21.1689 -69.501 37.502s-34.833 35.5 -47.5 57.5s-21.834 45.667 -27.501 71s-8.5 51.333 -8.5 78c0 35.333 4.66699 70.666 14 105.999s22.666 65.666 39.999 90.999c20 30.667 41.667 57 65 79s48.833 38.833 76.5 50.5
s57.834 17.834 90.501 18.501s68.667 -5 108 -17c4 14.667 11.5 25.167 22.5 31.5s22.5 9.5 34.5 9.5c14 0 26.667 -4.33301 38 -13s18.333 -21.334 21 -38.001c3.33301 -25.333 6.66602 -54.333 9.99902 -87l10 -100c2.66699 -31.333 5.83398 -62.666 9.50098 -93.999
l10.5 -90c3.33301 -28.667 6.83301 -55.5 10.5 -80.5s7.5 -46.5 11.5 -64.5v1c2.66699 -10.667 2.66699 -20.667 0 -30s-6.83398 -17.333 -12.501 -24s-12.5 -11.834 -20.5 -15.501s-16 -5.5 -24 -5.5c-12.667 0 -24.167 4 -34.5 12s-17.166 20.667 -20.499 38l-9 35
c-25.333 -22 -56.666 -39.167 -93.999 -51.5s-75.666 -18.5 -114.999 -18.5c-15.333 0 -30.5 0.833008 -45.5 2.5s-29.5 5.16699 -43.5 10.5zM227.999 128.002c6.66699 -2 13.833 -3.66504 21.5 -4.99805s15.834 -2 24.501 -2c19.333 0 39.333 2.33301 60 7
s40.167 11.5 58.5 20.5s34.166 20 47.499 33s22.666 27.5 27.999 43.5c-4.66699 42 -8.66699 83.333 -12 124c-1.33301 16 -2.16602 31 -2.49902 45s-1.5 28.667 -3.5 44c-13.333 17.333 -30.5 30.333 -51.5 39s-42.833 13 -65.5 13c-28 0 -55.167 -6.83301 -81.5 -20.5
s-47.5 -33.167 -63.5 -58.5c-11.333 -19.333 -20.333 -41.833 -27 -67.5s-10 -51.834 -10 -78.501c0 -30.667 5.83301 -58.834 17.5 -84.501s31.5 -43.167 59.5 -52.5zM166.998 665.004c-3.33301 -11.333 -8.83594 -19.335 -16.5029 -24.002s-16.167 -7 -25.5 -7
c-8.66699 0 -17.167 2.33301 -25.5 7s-15.5 10.667 -21.5 18s-10.167 15.333 -12.5 24s-1.83301 16.667 1.5 24c8 16 16.833 32.5 26.5 49.5s20.834 32.667 33.501 47s27.334 26.5 44.001 36.5s36.334 16.667 59.001 20c35.333 4 65.833 -0.5 91.5 -13.5
s51.5 -33.5 77.5 -61.5l20 -21c6 -6 11.667 -9.33301 17 -10c6.66699 -1.33301 13 -0.166016 19 3.50098s12 8.66699 18 15s11.667 13.666 17 21.999l16 24.5c6 8.66699 15.333 13.667 28 15s25 0 37 -4s21.833 -10.667 29.5 -20s9.5 -20.333 5.5 -33
c-6.66699 -21.333 -16.834 -40.5 -30.501 -57.5s-28.5 -31.5 -44.5 -43.5s-32.333 -21.167 -49 -27.5s-31.667 -9.5 -45 -9.5s-25.333 1.83301 -36 5.5s-20.667 8.83398 -30 15.501s-18 14 -26 22l-24 25c-12.667 13.333 -25.167 25.5 -37.5 36.5s-25.5 14.833 -39.5 11.5h1
c-8 -1.33301 -19.667 -8.16602 -35 -20.499s-29.666 -35.5 -42.999 -69.5z" />
    <glyph glyph-name="adieresis" unicode="&#xe4;" horiz-adv-x="665" 
d="M190 21c-27.333 8.66699 -50.501 21.1689 -69.501 37.502s-34.833 35.5 -47.5 57.5s-21.834 45.667 -27.501 71s-8.5 51.333 -8.5 78c0 35.333 4.66699 70.666 14 105.999s22.666 65.666 39.999 90.999c20 30.667 41.667 57 65 79s48.833 38.833 76.5 50.5
s57.834 17.834 90.501 18.501s68.667 -5 108 -17c4 14.667 11.5 25.167 22.5 31.5s22.5 9.5 34.5 9.5c14 0 26.667 -4.33301 38 -13s18.333 -21.334 21 -38.001c3.33301 -25.333 6.66602 -54.333 9.99902 -87l10 -100c2.66699 -31.333 5.83398 -62.666 9.50098 -93.999
l10.5 -90c3.33301 -28.667 6.83301 -55.5 10.5 -80.5s7.5 -46.5 11.5 -64.5v1c2.66699 -10.667 2.66699 -20.667 0 -30s-6.83398 -17.333 -12.501 -24s-12.5 -11.834 -20.5 -15.501s-16 -5.5 -24 -5.5c-12.667 0 -24.167 4 -34.5 12s-17.166 20.667 -20.499 38l-9 35
c-25.333 -22 -56.666 -39.167 -93.999 -51.5s-75.666 -18.5 -114.999 -18.5c-15.333 0 -30.5 0.833008 -45.5 2.5s-29.5 5.16699 -43.5 10.5zM227.999 128.002c6.66699 -2 13.833 -3.66504 21.5 -4.99805s15.834 -2 24.501 -2c19.333 0 39.333 2.33301 60 7
s40.167 11.5 58.5 20.5s34.166 20 47.499 33s22.666 27.5 27.999 43.5c-4.66699 42 -8.66699 83.333 -12 124c-1.33301 16 -2.16602 31 -2.49902 45s-1.5 28.667 -3.5 44c-13.333 17.333 -30.5 30.333 -51.5 39s-42.833 13 -65.5 13c-28 0 -55.167 -6.83301 -81.5 -20.5
s-47.5 -33.167 -63.5 -58.5c-11.333 -19.333 -20.333 -41.833 -27 -67.5s-10 -51.834 -10 -78.501c0 -30.667 5.83301 -58.834 17.5 -84.501s31.5 -43.167 59.5 -52.5zM307.998 718.004c7.33301 -10 10.0039 -20.499 8.00391 -31.499s-6.83301 -20.833 -14.5 -29.5
s-17 -15.834 -28 -21.501s-22.167 -8.5 -33.5 -8.5c-10.667 0 -20.834 2.5 -30.501 7.5s-17.5 13.167 -23.5 24.5c-6 12.667 -8.33301 24.5 -7 35.5s5.33301 20.5 12 28.5s15.167 14.167 25.5 18.5s21.166 6.5 32.499 6.5s22.166 -2.16699 32.499 -6.5
s19.166 -11.833 26.499 -22.5v-1zM465.002 723.005c7.33301 -10 10.0029 -20.3301 8.00293 -30.9971s-6.83301 -20.334 -14.5 -29.001s-17.167 -15.834 -28.5 -21.501s-22.666 -8.5 -33.999 -8.5c-10.667 0 -20.834 2.5 -30.501 7.5s-17.167 13.167 -22.5 24.5
c-6 12.667 -8.33301 24.5 -7 35.5s5.33301 20.5 12 28.5s15.167 14.167 25.5 18.5s21.166 6.5 32.499 6.5s22.166 -2.33301 32.499 -7s19.166 -12.334 26.499 -23.001v-1z" />
    <glyph glyph-name="aring" unicode="&#xe5;" horiz-adv-x="665" 
d="M190 21c-27.333 8.66699 -50.501 21.1689 -69.501 37.502s-34.833 35.5 -47.5 57.5s-21.834 45.667 -27.501 71s-8.5 51.333 -8.5 78c0 35.333 4.66699 70.666 14 105.999s22.666 65.666 39.999 90.999c20 30.667 41.667 57 65 79s48.833 38.833 76.5 50.5
s57.834 17.834 90.501 18.501s68.667 -5 108 -17c4 14.667 11.5 25.167 22.5 31.5s22.5 9.5 34.5 9.5c14 0 26.667 -4.33301 38 -13s18.333 -21.334 21 -38.001c3.33301 -25.333 6.66602 -54.333 9.99902 -87l10 -100c2.66699 -31.333 5.83398 -62.666 9.50098 -93.999
l10.5 -90c3.33301 -28.667 6.83301 -55.5 10.5 -80.5s7.5 -46.5 11.5 -64.5v1c2.66699 -10.667 2.66699 -20.667 0 -30s-6.83398 -17.333 -12.501 -24s-12.5 -11.834 -20.5 -15.501s-16 -5.5 -24 -5.5c-12.667 0 -24.167 4 -34.5 12s-17.166 20.667 -20.499 38l-9 35
c-25.333 -22 -56.666 -39.167 -93.999 -51.5s-75.666 -18.5 -114.999 -18.5c-15.333 0 -30.5 0.833008 -45.5 2.5s-29.5 5.16699 -43.5 10.5zM227.999 128.002c6.66699 -2 13.833 -3.66504 21.5 -4.99805s15.834 -2 24.501 -2c19.333 0 39.333 2.33301 60 7
s40.167 11.5 58.5 20.5s34.166 20 47.499 33s22.666 27.5 27.999 43.5c-4.66699 42 -8.66699 83.333 -12 124c-1.33301 16 -2.16602 31 -2.49902 45s-1.5 28.667 -3.5 44c-13.333 17.333 -30.5 30.333 -51.5 39s-42.833 13 -65.5 13c-28 0 -55.167 -6.83301 -81.5 -20.5
s-47.5 -33.167 -63.5 -58.5c-11.333 -19.333 -20.333 -41.833 -27 -67.5s-10 -51.834 -10 -78.501c0 -30.667 5.83301 -58.834 17.5 -84.501s31.5 -43.167 59.5 -52.5zM312.998 732.004c6.66699 0 13.335 1.66699 20.002 5s9 7 7 11h1c-5.33301 6 -12 9 -20 9
c-6.66699 0 -12.334 -1.83301 -17.001 -5.5s-5.33398 -8.16699 -2.00098 -13.5c2 -4 5.66699 -6 11 -6zM412.999 789.004c4.66699 -7.33301 8 -14.668 10 -22.001s3 -14.333 3 -21c0 -14 -3.33301 -26.833 -10 -38.5s-15.334 -21.834 -26.001 -30.501s-23 -15.5 -37 -20.5
s-28 -7.5 -42 -7.5c-18 0 -34.833 4.16699 -50.5 12.5s-28.167 21.833 -37.5 40.5c-3.33301 7.33301 -5.66602 14.333 -6.99902 21s-2 13.334 -2 20.001c0 14 3.16699 26.833 9.5 38.5s14.833 21.834 25.5 30.501s22.667 15.5 36 20.5s27 7.5 41 7.5
c17.333 0 33.833 -4 49.5 -12s28.5 -21 38.5 -39h-1z" />
    <glyph glyph-name="ae" unicode="&#xe6;" horiz-adv-x="927" 
d="M581 -5c-28.667 -1.33301 -54.5029 0.331055 -77.5029 4.99805s-44.167 12.334 -63.5 23.001c-22.667 -9.33301 -46.334 -16.666 -71.001 -21.999s-49.667 -8 -75 -8c-15.333 0 -30.5 1 -45.5 3s-29.833 5.66699 -44.5 11c-26.667 8.66699 -49.5 21.334 -68.5 38.001
s-34.667 35.667 -47 57s-21.5 44.666 -27.5 69.999s-9 51 -9 77c0 35.333 4.83301 70.5 14.5 105.5s22.5 65.833 38.5 92.5c30 48 66.333 84.167 109 108.5s90.334 36.5 143.001 36.5c18.667 0 37.5 -1.66699 56.5 -5s39.167 -7.66602 60.5 -12.999
c15.333 7.33301 31.5 13.333 48.5 18s34.5 7.66699 52.5 9c30 2.66699 58.5 -1.16602 85.5 -11.499s51.667 -24.333 74 -42s41.333 -37.334 57 -59.001s26.834 -42.5 33.501 -62.5l3 -12l6 -24.5c2 -8.33301 3 -16.166 3 -23.499c0 -14 -3.83301 -26.667 -11.5 -38
s-22.167 -20.666 -43.5 -27.999c-35.333 -10.667 -73.5 -19.334 -114.5 -26.001s-81.833 -12.667 -122.5 -18l-59.5 -8.5c-17 -2.33301 -35.167 -5.16602 -54.5 -8.49902c6 -44 21.833 -77.667 47.5 -101s59.5 -33.333 101.5 -30
c12.667 1.33301 27.167 3.66602 43.5 6.99902s33 8.33301 50 15s33 15.167 48 25.5s27.167 23.166 36.5 38.499c6.66699 9.33301 14.334 16.166 23.001 20.499s17.667 6.5 27 6.5c10 0 19.5 -2.5 28.5 -7.5s16.167 -11.667 21.5 -20s8.66602 -18 9.99902 -29
s-1 -22.5 -7 -34.5c-13.333 -22 -31.166 -41.167 -53.499 -57.5s-46.666 -30 -72.999 -41s-53 -19.5 -80 -25.5s-51.5 -9.66699 -73.5 -11zM241.997 113.997c13.333 -4.66699 29 -7.00195 47 -7.00195c19.333 0 39.666 3 60.999 9c-11.333 19.333 -19.833 39.833 -25.5 61.5
s-9.16699 43.5 -10.5 65.5c-1.33301 42.667 2.33398 84.334 11.001 125.001s22.334 76 41.001 106c-4 0.666992 -7.33301 1 -10 1h-10c-28 0 -55.167 -6.83301 -81.5 -20.5s-47.5 -33.167 -63.5 -58.5c-10.667 -18.667 -19.334 -41 -26.001 -67s-10 -52 -10 -78
c0 -15.333 1.33301 -30.166 4 -44.499s7 -27.5 13 -39.5s14 -22.667 24 -32s22 -16.333 36 -21zM581.997 488.995c-40 -7.33301 -73.167 -23.168 -99.5 -47.501s-42.166 -54.5 -47.499 -90.5c12 0 31 1.83301 57 5.5s53.5 8 82.5 13s56.667 10.333 83 16
s45.833 10.167 58.5 13.5c-6.66699 16 -15.334 29.833 -26.001 41.5s-22.167 21.334 -34.5 29.001s-25 13 -38 16s-24.833 4.16699 -35.5 3.5z" />
    <glyph glyph-name="ccedilla" unicode="&#xe7;" horiz-adv-x="609" 
d="M384 18c-12 -5.33301 -23.6689 -9 -35.002 -11c22.667 -7.33301 42.5 -19.166 59.5 -35.499s25.5 -38.166 25.5 -65.499c0 -23.333 -4.83301 -42.333 -14.5 -57s-21.334 -26.167 -35.001 -34.5s-28.167 -13.833 -43.5 -16.5s-28.666 -4 -39.999 -4
c-34.667 0.666992 -63.167 9.66699 -85.5 27s-38.166 36.333 -47.499 57c-4 10 -2.33301 18.833 5 26.5s16.5 13.334 27.5 17.001s21.833 4.66699 32.5 3s18 -6.83398 22 -15.501c3.33301 -9.33301 9.33301 -15.833 18 -19.5s18.334 -5.16699 29.001 -4.5
c11.333 0.666992 20.166 2.16699 26.499 4.5s9.5 7.16602 9.5 14.499c0 6.66699 -3 11.667 -9 15s-13 5.83301 -21 7.5s-16.167 2.5 -24.5 2.5h-18.5h1c-6.66699 -1.33301 -14 -0.666016 -22 2.00098s-15.167 6.83398 -21.5 12.501s-11.166 13 -14.499 22s-4 19.5 -2 31.5
l2 15c-38 13.333 -72.167 35.666 -102.5 66.999s-52.166 72.333 -65.499 123c-4 16 -7.16699 32.5 -9.5 49.5s-3.5 33.833 -3.5 50.5c0 50.667 10 100.5 30 149.5s49 90.5 87 124.5c19.333 17.333 41.166 29.833 65.499 37.5s48.833 11.5 73.5 11.5
c22.667 0 45.167 -3 67.5 -9s43.5 -14.833 63.5 -26.5s38 -25.5 54 -41.5s29 -34 39 -54c5.33301 -11.333 7.33301 -22.166 6 -32.499s-4.83301 -19.5 -10.5 -27.5s-13 -14.333 -22 -19s-18.5 -7 -28.5 -7c-8 0 -16 1.83301 -24 5.5s-14.667 9.16699 -20 16.5
c-22.667 28 -45.167 48 -67.5 60s-42.166 18 -59.499 18c-22.667 0 -39.667 -4.66699 -51 -14c-28.667 -20.667 -50.167 -47.334 -64.5 -80.001s-21.5 -67 -21.5 -103c0 -12 0.666992 -24.167 2 -36.5s3.66602 -23.833 6.99902 -34.5c10.667 -40 28 -70.833 52 -92.5
s53 -32.5 87 -32.5c15.333 0 31.666 2 48.999 6h-2c23.333 8.66699 44.833 22 64.5 40s38.834 39.667 57.501 65v-1c12 18 26.667 27 44 27c10 0 19.333 -3.16699 28 -9.5s15.5 -14.5 20.5 -24.5s7.5 -20.833 7.5 -32.5s-3.33301 -22.5 -10 -32.5
c-18.667 -24.667 -34.834 -44.334 -48.501 -59.001s-26.667 -26.5 -39 -35.5s-24.666 -16.333 -36.999 -22s-26.5 -11.834 -42.5 -18.501z" />
    <glyph glyph-name="egrave" unicode="&#xe8;" horiz-adv-x="628" 
d="M295 -5c-44 -2.66699 -82.333 2.83496 -115 16.502s-60 32.334 -82 56.001s-38.833 50.834 -50.5 81.501s-18.167 62 -19.5 94c-2 48 2.5 92.833 13.5 134.5s27.667 78.5 50 110.5s50.166 57.833 83.499 77.5s71.333 31.5 114 35.5c29.333 2.66699 58.666 -1 87.999 -11
s56.333 -25.333 81 -46s45.5 -45.834 62.5 -75.501s28.167 -62.834 33.5 -99.501c2 -14 -1.83301 -27.167 -11.5 -39.5s-25.167 -22.166 -46.5 -29.499c-34.667 -10.667 -72.667 -19.334 -114 -26.001s-82.333 -12.667 -123 -18l-59 -8.5
c-16.667 -2.33301 -34.667 -5.16602 -54 -8.49902c5.33301 -44 20.833 -77.667 46.5 -101s59.5 -33.333 101.5 -30c12.667 1.33301 27.167 3.66602 43.5 6.99902s33 8.33301 50 15s33 15.167 48 25.5s27.5 23.166 37.5 38.499c6 9.33301 13.5 16.166 22.5 20.499
s17.833 6.5 26.5 6.5c10 0 19.5 -2.5 28.5 -7.5s16.333 -11.667 22 -20s9 -18 10 -29s-1.5 -22.5 -7.5 -34.5c-13.333 -22 -31.166 -41.167 -53.499 -57.5s-46.666 -30 -72.999 -41s-53 -19.5 -80 -25.5s-51.5 -9.66699 -73.5 -11zM296 489.002
c-40 -7.33301 -73.167 -23.168 -99.5 -47.501s-42.166 -54.5 -47.499 -90.5c12 0 31 1.83301 57 5.5s53.5 8 82.5 13s56.667 10.333 83 16s45.833 10.167 58.5 13.5c-6.66699 16 -15.334 29.833 -26.001 41.5s-22.167 21.334 -34.5 29.001s-25 13 -38 16
s-24.833 4.16699 -35.5 3.5zM219 744c-9.33301 11.333 -11.832 23.498 -7.49902 36.498s12.166 23.833 23.499 32.5s24.5 13.334 39.5 14.001s28.5 -5.66602 40.5 -18.999l72 -80c11.333 -13.333 15 -26.5 11 -39.5s-11.667 -23.667 -23 -32s-24 -13.5 -38 -15.5
s-25.333 1.66699 -34 11z" />
    <glyph glyph-name="eacute" unicode="&#xe9;" horiz-adv-x="628" 
d="M295 -5c-44 -2.66699 -82.333 2.83496 -115 16.502s-60 32.334 -82 56.001s-38.833 50.834 -50.5 81.501s-18.167 62 -19.5 94c-2 48 2.5 92.833 13.5 134.5s27.667 78.5 50 110.5s50.166 57.833 83.499 77.5s71.333 31.5 114 35.5c29.333 2.66699 58.666 -1 87.999 -11
s56.333 -25.333 81 -46s45.5 -45.834 62.5 -75.501s28.167 -62.834 33.5 -99.501c2 -14 -1.83301 -27.167 -11.5 -39.5s-25.167 -22.166 -46.5 -29.499c-34.667 -10.667 -72.667 -19.334 -114 -26.001s-82.333 -12.667 -123 -18l-59 -8.5
c-16.667 -2.33301 -34.667 -5.16602 -54 -8.49902c5.33301 -44 20.833 -77.667 46.5 -101s59.5 -33.333 101.5 -30c12.667 1.33301 27.167 3.66602 43.5 6.99902s33 8.33301 50 15s33 15.167 48 25.5s27.5 23.166 37.5 38.499c6 9.33301 13.5 16.166 22.5 20.499
s17.833 6.5 26.5 6.5c10 0 19.5 -2.5 28.5 -7.5s16.333 -11.667 22 -20s9 -18 10 -29s-1.5 -22.5 -7.5 -34.5c-13.333 -22 -31.166 -41.167 -53.499 -57.5s-46.666 -30 -72.999 -41s-53 -19.5 -80 -25.5s-51.5 -9.66699 -73.5 -11zM296 489.002
c-40 -7.33301 -73.167 -23.168 -99.5 -47.501s-42.166 -54.5 -47.499 -90.5c12 0 31 1.83301 57 5.5s53.5 8 82.5 13s56.667 10.333 83 16s45.833 10.167 58.5 13.5c-6.66699 16 -15.334 29.833 -26.001 41.5s-22.167 21.334 -34.5 29.001s-25 13 -38 16
s-24.833 4.16699 -35.5 3.5zM309 652c-8.66699 -9.33301 -19.999 -12.998 -33.999 -10.998s-26.667 7.16699 -38 15.5s-19 19 -23 32s-0.333008 26.167 11 39.5l72 80c12 13.333 25.5 19.666 40.5 18.999s28.167 -5.33398 39.5 -14.001s19.166 -19.5 23.499 -32.5
s1.83301 -25.167 -7.5 -36.5z" />
    <glyph glyph-name="ecircumflex" unicode="&#xea;" horiz-adv-x="628" 
d="M295 -5c-44 -2.66699 -82.333 2.83496 -115 16.502s-60 32.334 -82 56.001s-38.833 50.834 -50.5 81.501s-18.167 62 -19.5 94c-2 48 2.5 92.833 13.5 134.5s27.667 78.5 50 110.5s50.166 57.833 83.499 77.5s71.333 31.5 114 35.5c29.333 2.66699 58.666 -1 87.999 -11
s56.333 -25.333 81 -46s45.5 -45.834 62.5 -75.501s28.167 -62.834 33.5 -99.501c2 -14 -1.83301 -27.167 -11.5 -39.5s-25.167 -22.166 -46.5 -29.499c-34.667 -10.667 -72.667 -19.334 -114 -26.001s-82.333 -12.667 -123 -18l-59 -8.5
c-16.667 -2.33301 -34.667 -5.16602 -54 -8.49902c5.33301 -44 20.833 -77.667 46.5 -101s59.5 -33.333 101.5 -30c12.667 1.33301 27.167 3.66602 43.5 6.99902s33 8.33301 50 15s33 15.167 48 25.5s27.5 23.166 37.5 38.499c6 9.33301 13.5 16.166 22.5 20.499
s17.833 6.5 26.5 6.5c10 0 19.5 -2.5 28.5 -7.5s16.333 -11.667 22 -20s9 -18 10 -29s-1.5 -22.5 -7.5 -34.5c-13.333 -22 -31.166 -41.167 -53.499 -57.5s-46.666 -30 -72.999 -41s-53 -19.5 -80 -25.5s-51.5 -9.66699 -73.5 -11zM296 489.002
c-40 -7.33301 -73.167 -23.168 -99.5 -47.501s-42.166 -54.5 -47.499 -90.5c12 0 31 1.83301 57 5.5s53.5 8 82.5 13s56.667 10.333 83 16s45.833 10.167 58.5 13.5c-6.66699 16 -15.334 29.833 -26.001 41.5s-22.167 21.334 -34.5 29.001s-25 13 -38 16
s-24.833 4.16699 -35.5 3.5zM278 809l-1 -0.999023c4 8 10.167 14.167 18.5 18.5s16.833 6.66602 25.5 6.99902s16.834 -1.5 24.501 -5.5s13.5 -10.333 17.5 -19l61 -104c6 -11.333 5.66699 -21.833 -1 -31.5s-15.5 -17 -26.5 -22s-22.167 -7 -33.5 -6s-19 6.16699 -23 15.5
l-18 27l-16 -31c-2 -8 -9 -12.833 -21 -14.5s-24 -0.5 -36 3.5s-21.833 10.833 -29.5 20.5s-7.83398 22.167 -0.500977 37.5z" />
    <glyph glyph-name="edieresis" unicode="&#xeb;" horiz-adv-x="628" 
d="M295 -5c-44 -2.66699 -82.333 2.83496 -115 16.502s-60 32.334 -82 56.001s-38.833 50.834 -50.5 81.501s-18.167 62 -19.5 94c-2 48 2.5 92.833 13.5 134.5s27.667 78.5 50 110.5s50.166 57.833 83.499 77.5s71.333 31.5 114 35.5c29.333 2.66699 58.666 -1 87.999 -11
s56.333 -25.333 81 -46s45.5 -45.834 62.5 -75.501s28.167 -62.834 33.5 -99.501c2 -14 -1.83301 -27.167 -11.5 -39.5s-25.167 -22.166 -46.5 -29.499c-34.667 -10.667 -72.667 -19.334 -114 -26.001s-82.333 -12.667 -123 -18l-59 -8.5
c-16.667 -2.33301 -34.667 -5.16602 -54 -8.49902c5.33301 -44 20.833 -77.667 46.5 -101s59.5 -33.333 101.5 -30c12.667 1.33301 27.167 3.66602 43.5 6.99902s33 8.33301 50 15s33 15.167 48 25.5s27.5 23.166 37.5 38.499c6 9.33301 13.5 16.166 22.5 20.499
s17.833 6.5 26.5 6.5c10 0 19.5 -2.5 28.5 -7.5s16.333 -11.667 22 -20s9 -18 10 -29s-1.5 -22.5 -7.5 -34.5c-13.333 -22 -31.166 -41.167 -53.499 -57.5s-46.666 -30 -72.999 -41s-53 -19.5 -80 -25.5s-51.5 -9.66699 -73.5 -11zM296 489.002
c-40 -7.33301 -73.167 -23.168 -99.5 -47.501s-42.166 -54.5 -47.499 -90.5c12 0 31 1.83301 57 5.5s53.5 8 82.5 13s56.667 10.333 83 16s45.833 10.167 58.5 13.5c-6.66699 16 -15.334 29.833 -26.001 41.5s-22.167 21.334 -34.5 29.001s-25 13 -38 16
s-24.833 4.16699 -35.5 3.5zM290 718c7.33301 -10 10.0039 -20.499 8.00391 -31.499s-6.83301 -20.833 -14.5 -29.5s-17 -15.834 -28 -21.501s-22.167 -8.5 -33.5 -8.5c-10.667 0 -20.834 2.5 -30.501 7.5s-17.5 13.167 -23.5 24.5c-6 12.667 -8.33301 24.5 -7 35.5
s5.33301 20.5 12 28.5s15.167 14.167 25.5 18.5s21.166 6.5 32.499 6.5s22.166 -2.16699 32.499 -6.5s19.166 -11.833 26.499 -22.5v-1zM447.004 723.001c7.33301 -10 10.0029 -20.3301 8.00293 -30.9971s-6.83301 -20.334 -14.5 -29.001s-17.167 -15.834 -28.5 -21.501
s-22.666 -8.5 -33.999 -8.5c-10.667 0 -20.834 2.5 -30.501 7.5s-17.167 13.167 -22.5 24.5c-6 12.667 -8.33301 24.5 -7 35.5s5.33301 20.5 12 28.5s15.167 14.167 25.5 18.5s21.166 6.5 32.499 6.5s22.166 -2.33301 32.499 -7s19.166 -12.334 26.499 -23.001v-1z" />
    <glyph glyph-name="igrave" unicode="&#xec;" horiz-adv-x="196" 
d="M30 578c1.33301 16 7.16699 28.332 17.5 36.999s22.166 13 35.499 13c14.667 0 28.667 -4.16699 42 -12.5s20.666 -18.833 21.999 -31.5c1.33301 -15.333 2.33301 -37.833 3 -67.5s1.66699 -62.167 3 -97.5c0.666992 -31.333 1.66699 -64.166 3 -98.499
s2.83301 -67.833 4.5 -100.5s3.5 -63.667 5.5 -93s4.33301 -54.333 7 -75c1.33301 -10 0.333008 -19 -3 -27s-8.16602 -14.667 -14.499 -20s-13.666 -9.33301 -21.999 -12s-16.5 -4 -24.5 -4c-14 0 -27 4 -39 12s-18.667 20.333 -20 37zM3.00098 743.999
c-9.33301 11.333 -11.832 23.498 -7.49902 36.498s12.166 23.833 23.499 32.5s24.5 13.334 39.5 14.001s28.5 -5.66602 40.5 -18.999l72 -80c11.333 -13.333 15 -26.5 11 -39.5s-11.667 -23.667 -23 -32s-24 -13.5 -38 -15.5s-25.333 1.66699 -34 11z" />
    <glyph glyph-name="iacute" unicode="&#xed;" horiz-adv-x="196" 
d="M30 578c1.33301 16 7.16699 28.332 17.5 36.999s22.166 13 35.499 13c14.667 0 28.667 -4.16699 42 -12.5s20.666 -18.833 21.999 -31.5c1.33301 -15.333 2.33301 -37.833 3 -67.5s1.66699 -62.167 3 -97.5c0.666992 -31.333 1.66699 -64.166 3 -98.499
s2.83301 -67.833 4.5 -100.5s3.5 -63.667 5.5 -93s4.33301 -54.333 7 -75c1.33301 -10 0.333008 -19 -3 -27s-8.16602 -14.667 -14.499 -20s-13.666 -9.33301 -21.999 -12s-16.5 -4 -24.5 -4c-14 0 -27 4 -39 12s-18.667 20.333 -20 37zM93.001 651.999
c-8.66699 -9.33301 -19.999 -12.998 -33.999 -10.998s-26.667 7.16699 -38 15.5s-19 19 -23 32s-0.333008 26.167 11 39.5l72 80c12 13.333 25.5 19.666 40.5 18.999s28.167 -5.33398 39.5 -14.001s19.166 -19.5 23.499 -32.5s1.83301 -25.167 -7.5 -36.5z" />
    <glyph glyph-name="icircumflex" unicode="&#xee;" horiz-adv-x="196" 
d="M30 578c1.33301 16 7.16699 28.332 17.5 36.999s22.166 13 35.499 13c14.667 0 28.667 -4.16699 42 -12.5s20.666 -18.833 21.999 -31.5c1.33301 -15.333 2.33301 -37.833 3 -67.5s1.66699 -62.167 3 -97.5c0.666992 -31.333 1.66699 -64.166 3 -98.499
s2.83301 -67.833 4.5 -100.5s3.5 -63.667 5.5 -93s4.33301 -54.333 7 -75c1.33301 -10 0.333008 -19 -3 -27s-8.16602 -14.667 -14.499 -20s-13.666 -9.33301 -21.999 -12s-16.5 -4 -24.5 -4c-14 0 -27 4 -39 12s-18.667 20.333 -20 37zM62.001 808.999l-1 -0.999023
c4 8 10.167 14.167 18.5 18.5s16.833 6.66602 25.5 6.99902s16.834 -1.5 24.501 -5.5s13.5 -10.333 17.5 -19l61 -104c6 -11.333 5.66699 -21.833 -1 -31.5s-15.5 -17 -26.5 -22s-22.167 -7 -33.5 -6s-19 6.16699 -23 15.5l-18 27l-16 -31c-2 -8 -9 -12.833 -21 -14.5
s-24 -0.5 -36 3.5s-21.833 10.833 -29.5 20.5s-7.83398 22.167 -0.500977 37.5z" />
    <glyph glyph-name="idieresis" unicode="&#xef;" horiz-adv-x="196" 
d="M30 578c1.33301 16 7.16699 28.332 17.5 36.999s22.166 13 35.499 13c14.667 0 28.667 -4.16699 42 -12.5s20.666 -18.833 21.999 -31.5c1.33301 -15.333 2.33301 -37.833 3 -67.5s1.66699 -62.167 3 -97.5c0.666992 -31.333 1.66699 -64.166 3 -98.499
s2.83301 -67.833 4.5 -100.5s3.5 -63.667 5.5 -93s4.33301 -54.333 7 -75c1.33301 -10 0.333008 -19 -3 -27s-8.16602 -14.667 -14.499 -20s-13.666 -9.33301 -21.999 -12s-16.5 -4 -24.5 -4c-14 0 -27 4 -39 12s-18.667 20.333 -20 37zM74.001 717.999
c7.33301 -10 10.0039 -20.499 8.00391 -31.499s-6.83301 -20.833 -14.5 -29.5s-17 -15.834 -28 -21.501s-22.167 -8.5 -33.5 -8.5c-10.667 0 -20.834 2.5 -30.501 7.5s-17.5 13.167 -23.5 24.5c-6 12.667 -8.33301 24.5 -7 35.5s5.33301 20.5 12 28.5
s15.167 14.167 25.5 18.5s21.166 6.5 32.499 6.5s22.166 -2.16699 32.499 -6.5s19.166 -11.833 26.499 -22.5v-1zM231.005 723c7.33301 -10 10.0029 -20.3301 8.00293 -30.9971s-6.83301 -20.334 -14.5 -29.001s-17.167 -15.834 -28.5 -21.501s-22.666 -8.5 -33.999 -8.5
c-10.667 0 -20.834 2.5 -30.501 7.5s-17.167 13.167 -22.5 24.5c-6 12.667 -8.33301 24.5 -7 35.5s5.33301 20.5 12 28.5s15.167 14.167 25.5 18.5s21.166 6.5 32.499 6.5s22.166 -2.33301 32.499 -7s19.166 -12.334 26.499 -23.001v-1z" />
    <glyph glyph-name="eth" unicode="&#xf0;" horiz-adv-x="645" 
d="M496 626c33.333 -52.667 58.1719 -106.173 74.5049 -160.506s24.166 -104.5 23.499 -150.5c-0.666992 -43.333 -5.66699 -84.333 -15 -123s-23.5 -72.667 -42.5 -102s-42.833 -52.666 -71.5 -69.999s-63 -26 -103 -26c-9.33301 0 -18 0.5 -26 1.5s-16 2.16699 -24 3.5
c-34 6 -68 18.5 -102 37.5s-64.5 42.167 -91.5 69.5s-48.833 58 -65.5 92s-25 69 -25 105c0 28 6 56.667 18 86c16 35.333 38.167 60.5 66.5 75.5s58.166 22.5 89.499 22.5c21.333 0 42.333 -2.66699 63 -8s39.667 -12.333 57 -21h-1c30 -14 59 -32.333 87 -55
s53.333 -46.667 76 -72c-2.66699 48 -13.334 95.667 -32.001 143s-43.334 91 -74.001 131l-195 -35c-10 -1.33301 -18.667 -0.666016 -26 2.00098s-13.333 6.83398 -18 12.501s-8.16699 12.334 -10.5 20.001s-3.5 15.5 -3.5 23.5c0 13.333 2.83301 25.666 8.5 36.999
s14.167 18 25.5 20c14 3.33301 30.667 6.83301 50 10.5s40 7.16699 62 10.5c-7.33301 4.66699 -14.333 8.83398 -21 12.501l-21 11.5h1c-11.333 5.33301 -19.333 11.666 -24 18.999s-7 15.666 -7 24.999c0 8.66699 2.16699 16.834 6.5 24.501s10 14.334 17 20.001
s14.833 9.5 23.5 11.5s17.667 1.66699 27 -1c53.333 -21.333 101 -53.666 143 -96.999c15.333 3.33301 31.166 7 47.499 11l47.5 12c11.333 2.66699 21.5 2.5 30.5 -0.5s16.833 -7.66699 23.5 -14s11.667 -14.166 15 -23.499s5 -18.333 5 -27
c0 -12.667 -3.33301 -24 -10 -34s-17 -17 -31 -21zM337.006 101.994c28.667 -7.33301 52.832 -4.5 72.499 8.5s38.834 35.5 57.501 67.5c-11.333 16 -23.833 32.5 -37.5 49.5s-28.167 33.333 -43.5 49s-31.666 30 -48.999 43s-35.333 23.833 -54 32.5
c-11.333 5.33301 -23.333 9.5 -36 12.5s-25.334 4.5 -38.001 4.5c-19.333 0 -35 -5.33301 -47 -16s-18 -26.667 -18 -48c0 -24 6 -47 18 -69s27.167 -42 45.5 -60s39 -33.333 62 -46s45.5 -22 67.5 -28z" />
    <glyph glyph-name="ntilde" unicode="&#xf1;" horiz-adv-x="606" 
d="M28 577l-0.00292969 -1.00195c-2.66699 18.667 1.83301 32.334 13.5 41.001s25.167 13 40.5 13c12.667 0 24.667 -3.5 36 -10.5s18.333 -16.167 21 -27.5l6 -46c27.333 24 57.166 43.833 89.499 59.5s64.5 23.167 96.5 22.5c38 -0.666992 69.833 -8.66699 95.5 -24
s46.834 -36.333 63.501 -63s29.334 -58.167 38.001 -94.5s15 -75.833 19 -118.5s6.5 -87.334 7.5 -134.001s1.83301 -93.667 2.5 -141c0 -19.333 -6.66699 -33.833 -20 -43.5s-27 -14.5 -41 -14.5c-14.667 0 -28.667 4.66699 -42 14s-20 24 -20 44
c1.33301 27.333 2.16602 58.166 2.49902 92.499s-0.666992 68.833 -3 103.5s-6.16602 68.5 -11.499 101.5s-12.666 61.833 -21.999 86.5s-21 43.834 -35 57.501s-31 18.834 -51 15.501c-14.667 -2 -29.167 -7.33301 -43.5 -16s-28 -18.667 -41 -30
s-25.333 -23.666 -37 -36.999s-22.167 -26 -31.5 -38c0 -54 0.833008 -108.667 2.5 -164s6.83398 -111.333 15.501 -168c2 -10 1.33301 -19 -2 -27s-8.33301 -14.833 -15 -20.5s-14.167 -10 -22.5 -13s-16.833 -4.5 -25.5 -4.5c-13.333 0 -25.5 3.83301 -36.5 11.5
s-17.833 19.167 -20.5 34.5zM131.997 694.998c-3.33301 -11.333 -8.83594 -19.335 -16.5029 -24.002s-16.167 -7 -25.5 -7c-8.66699 0 -17.167 2.33301 -25.5 7s-15.5 10.667 -21.5 18s-10.167 15.333 -12.5 24s-1.83301 16.667 1.5 24c8 16 16.833 32.5 26.5 49.5
s20.834 32.667 33.501 47s27.334 26.5 44.001 36.5s36.334 16.667 59.001 20c35.333 4 65.833 -0.5 91.5 -13.5s51.5 -33.5 77.5 -61.5l20 -21c6 -6 11.667 -9.33301 17 -10c6.66699 -1.33301 13 -0.166016 19 3.50098s12 8.66699 18 15s11.667 13.666 17 21.999l16 24.5
c6 8.66699 15.333 13.667 28 15s25 0 37 -4s21.833 -10.667 29.5 -20s9.5 -20.333 5.5 -33c-6.66699 -21.333 -16.834 -40.5 -30.501 -57.5s-28.5 -31.5 -44.5 -43.5s-32.333 -21.167 -49 -27.5s-31.667 -9.5 -45 -9.5s-25.333 1.83301 -36 5.5s-20.667 8.83398 -30 15.501
s-18 14 -26 22l-24 25c-12.667 13.333 -25.167 25.5 -37.5 36.5s-25.5 14.833 -39.5 11.5h1c-8 -1.33301 -19.667 -8.16602 -35 -20.499s-29.666 -35.5 -42.999 -69.5z" />
    <glyph glyph-name="ograve" unicode="&#xf2;" 
d="M618 295c-2 -42 -10.3291 -80.998 -24.9961 -116.998s-34.667 -67.333 -60 -94s-55.5 -47.667 -90.5 -63s-74.167 -23 -117.5 -23s-83.5 7.83301 -120.5 23.5s-68.5 38.667 -94.5 69s-45.833 67.333 -59.5 111s-18.5 93.167 -14.5 148.5
c2 33.333 9.83301 66.166 23.5 98.499s33.167 61.166 58.5 86.499s56.666 45.666 93.999 60.999s81 22.333 131 21c37.333 -1.33301 73.166 -9.5 107.499 -24.5s64.166 -36.333 89.499 -64s45.166 -61.167 59.499 -100.5s20.5 -83.666 18.5 -132.999zM152.004 333.002
c-4 -35.333 -1.33594 -67.668 7.99707 -97.001s23.5 -53.666 42.5 -72.999s41.5 -33.333 67.5 -42s53.667 -10 83 -4c22.667 4 42.834 11.167 60.501 21.5s32.834 23 45.501 38s22.667 32.167 30 51.5s12 39.666 14 60.999c2.66699 24.667 1 49.167 -5 73.5
s-15.833 46.333 -29.5 66s-31.167 35.834 -52.5 48.501s-45.666 19.667 -72.999 21c-14 0.666992 -31 -1 -51 -5s-39.667 -12 -59 -24s-36.5 -29 -51.5 -51s-24.833 -50.333 -29.5 -85zM242.001 744c-9.33301 11.333 -11.832 23.498 -7.49902 36.498
s12.166 23.833 23.499 32.5s24.5 13.334 39.5 14.001s28.5 -5.66602 40.5 -18.999l72 -80c11.333 -13.333 15 -26.5 11 -39.5s-11.667 -23.667 -23 -32s-24 -13.5 -38 -15.5s-25.333 1.66699 -34 11z" />
    </font>
</defs>
</svg>
